<svg width="144" height="265" viewBox="0 0 144 265" fill="none" xmlns="http://www.w3.org/2000/svg">
<path d="M119.894 113.574C119.949 113.629 120.696 113.558 121.081 113.723C123.165 114.596 127.128 118.725 127.741 120.934C128.268 122.814 128.048 124.716 128.15 126.612C128.205 127.602 128.889 128.176 128.135 129.277L128.614 129.513C127.914 130.881 128.559 131.754 128.638 133.06C128.205 133.17 127.34 132.737 127.419 133.421C127.561 134.64 128.284 134.176 128.378 134.286C128.528 134.443 128.182 135.269 128.221 135.592C128.268 136.016 128.646 136.472 128.63 136.858C128.622 137.211 127.034 138.359 126.79 139.138C126.46 140.215 125.87 143.762 125.98 144.847C126.145 146.514 126.208 147.725 126.106 149.455C126.051 150.422 125.508 153.379 125.838 154C125.925 154.165 126.365 154.188 126.523 154.534C127.026 155.683 126.609 157.239 125.453 157.774C126.145 158.561 125.752 159.158 125.901 159.984C126.074 160.959 126.916 160.904 125.713 162.02L126.444 161.902C126.295 162.744 126.656 163.522 126.703 164.332C126.735 164.796 126.452 165.244 126.491 165.74C126.546 166.44 127.293 167.25 127.34 167.769C127.388 168.233 127.026 168.862 127.152 169.404C127.993 170.112 129.07 169.404 130.195 169.577C130.604 169.64 130.926 169.947 131.241 169.994C135.558 170.647 140.873 171.087 142.58 175.939C142.792 176.536 143.57 179.847 142.839 180.043C140.913 180.374 139.615 179.021 137.759 178.809C137.28 178.754 135.495 178.707 135.125 178.809C134.85 178.88 134.874 179.43 134.614 179.477C134.197 179.548 133.12 179.171 132.216 179.359C131.988 179.406 128.827 180.688 128.693 180.822C128.394 181.105 127.875 182.67 127.466 183.126L127.435 206.425L126.688 206.677C126.806 206.905 127.285 206.952 127.364 207.093C127.741 207.73 127.254 217.041 127.262 218.645C127.277 220.965 127.561 223.324 127.411 225.659C127.506 226.524 128.457 226.241 129.117 226.272C128.803 227.814 128.764 229.685 128.866 231.266C128.952 232.626 129.621 234.309 129.353 235.63C129.251 236.165 127.993 237.313 127.993 238.067C127.993 238.885 130.273 241.056 128.638 241.354V241.716C130.218 242.345 128.945 243.54 128.882 244.413C128.834 245.058 129.377 245.671 129.377 246.348C129.377 247.283 127.899 249.328 127.537 250.602C126.814 253.212 126.326 256.413 126.2 259.118L124.156 259.33C123.755 259.621 124.14 261.909 122.119 262.232C120.798 262.444 121.065 261.296 120.562 260.486C119.06 258.033 119.65 258.74 119.123 256.082C118.895 254.95 117.991 253.755 118.408 252.292C114.956 252.717 116.811 256.641 116.277 258.992L116.615 259.283C118.187 259.071 117.991 261.044 118.903 261.878L117.896 264.913C117.771 264.992 116.387 265.007 116.151 264.952C115.915 264.897 115.86 264.41 115.624 264.221C112.966 262.137 112.887 260.989 111 259.094C109.113 257.199 106.864 257.301 106.494 254.101C106.455 253.731 106.455 253.684 106.848 253.747C107.242 253.81 111.236 256.373 112.015 256.853C112.911 257.411 113.839 259.016 115.018 258.033L116.528 245.907C117.197 244.681 117.165 242.557 117.653 241.433C118.14 240.309 119.689 240.002 119.563 237.753C119.54 237.399 119.217 237.195 119.202 237.022C119.155 236.44 119.54 235.881 119.115 235.284C118.423 234.891 117.613 235.866 117.197 235.638C117.118 235.598 116.08 234.435 116.041 234.356C115.278 233.003 115.435 229.913 115.49 228.301C115.506 227.845 115.852 227.586 115.868 227.2C115.907 226.139 115.011 225.258 114.995 224.409C114.979 223.693 115.404 223.449 115.459 222.962C115.71 220.957 115.364 219.156 115.199 217.174C114.633 210.514 114.979 203.453 114.94 196.722C114.932 195.212 114.161 195.047 114.051 194.669C113.532 192.845 114.625 190.344 112.164 189.786C109.372 189.149 109.341 190.722 107.595 191.925C104.238 194.245 100.353 195.637 96.9247 197.539C94.9825 198.617 92.8279 201.22 90.6812 202.265C90.233 202.824 90.4846 203.885 90.2801 204.601C89.7769 206.394 87.9447 207.038 87.1898 208.949C86.3799 210.994 86.6394 212.228 86.49 214.131C86.3956 215.287 84.7522 217.009 85.2947 218.661C83.3682 218.566 83.5333 220.328 82.7627 221.122C82.4482 221.452 81.9135 221.334 81.5439 221.601C80.7969 222.136 79.9869 223.056 80.215 224.047C79.5309 224.031 78.8389 224.094 78.1548 224.039C77.5965 223.992 77.5493 223.269 76.8101 224.047C76.0159 221.9 76.3698 219.455 76.0631 217.127C75.7564 214.8 75.0094 213.038 75.3397 210.294C75.4655 209.256 77.2033 205.599 75.2296 205.537C73.7277 205.489 69.7016 207.298 67.9088 207.73C65.9114 208.218 60.0296 207.998 58.0087 207.439C56.1765 206.928 55.5868 206.236 55.1464 204.341H55.8777L55.634 202.879L56.499 203.06C57.647 201.974 56.2866 200.433 57.3089 199.136L59.2511 198.947C59.5893 197.602 61.3507 196.887 62.1999 195.692C62.483 195.298 63.6861 192.931 63.4188 192.656C62.3729 192.389 61.2327 192.538 60.1948 192.35C57.1673 191.791 54.3051 190.486 52.8897 187.726C52.465 186.892 51.7101 187.27 51.718 188.143C51.7652 191.178 51.773 194.276 51.2226 197.374C50.8294 199.568 49.5084 200.936 49.7836 203.24C50.3891 203.697 50.6171 202.769 51.0024 202.635C50.8923 204.624 51.545 206.205 50.7351 208.108L52.0011 209.57L50.9946 211.505C52.6144 212.307 51.144 213.895 51.2383 215.161C51.3012 215.971 51.8831 217.049 51.9775 218.087C52.2134 220.626 52.1505 223.386 52.2134 225.863C52.237 226.799 53.102 227.963 52.1033 228.907C50.2397 227.452 50.1925 229.858 49.6499 230.841C49.2174 231.619 48.1166 232.005 47.7234 232.563C47.3302 233.121 47.4482 233.743 47.0078 234.293C46.6697 234.718 46.1822 234.529 46.0328 234.741C45.7497 235.142 45.4745 236.188 45.1678 236.691C44.7117 237.069 44.3421 235.787 44.2635 235.535C43.8153 234.136 43.8389 232.131 43.485 230.998C43.4614 230.92 42.6122 230.637 42.2741 229.937C41.5428 228.411 41.7236 227.428 41.5034 225.887C40.6778 220.194 39.7184 214.108 39.6791 208.344C39.6791 208.131 39.6555 207.55 39.4275 207.479C37.1471 207.211 37.3437 208.792 36.518 210.152C35.4643 211.89 31.8079 214.139 30.0779 215.641C28.348 217.143 27.4437 218.81 25.3127 219.879C24.0545 220.508 21.6169 221.177 20.5081 221.885C19.7926 222.341 19.9027 222.86 19.5488 223.245C18.4086 224.479 15.1689 226.147 13.5254 227.318C11.6461 228.663 9.38143 229.276 7.11677 229.575L0.393555 227.09C1.25853 227.035 1.43939 226.029 2.28077 225.816C3.04352 225.62 3.88491 225.911 4.60048 225.706C5.08801 225.565 6.83368 224.063 7.5178 223.756C8.02892 223.52 8.8939 223.599 9.24775 223.347C9.46006 223.198 9.46793 222.655 9.74314 222.333C10.5216 221.452 12.0393 220.736 13.0536 219.549C13.9815 218.456 14.8308 216.412 15.853 215.531C17.7638 213.88 19.0534 211.914 21.1058 210.066C21.381 209.814 21.5068 209.335 21.7427 209.193C22.1201 208.965 23.8029 208.721 23.968 208.446C24.2039 208.061 23.7636 207.377 23.8973 207.007C24.0467 206.59 25.297 205.906 25.7137 205.434C29.6454 200.999 33.3963 194.63 36.3057 189.503C37.037 188.213 37.0292 187.073 37.5167 185.847C38.1615 184.227 39.5848 183.228 38.8535 181.223C38.6412 181.073 36.8247 181.679 36.4787 181.899C35.9991 182.198 33.8602 183.433 33.7423 183.55C31.1002 186.232 29.842 189.094 25.8395 190.73C25.2655 190.966 22.9222 191.705 22.419 191.713C21.8528 191.713 19.2657 190.966 18.8018 190.683C18.3929 190.431 18.3143 189.55 17.4178 189.149C17.0011 188.96 16.4821 189.102 16.2619 188.968C15.8687 188.74 15.7665 186.947 15.4992 186.499C15.279 186.138 14.8937 185.579 14.6106 185.123C14.4769 184.911 14.0995 184.903 13.9422 184.573C13.3682 183.354 14.2253 183.417 14.2646 183.252C14.6499 181.679 12.8728 181.632 12.7941 181.302C12.6526 180.727 12.8728 179.745 12.747 178.966C12.5582 177.779 11.3945 177.087 11.1586 175.931C10.9541 174.932 11.2529 173.8 11.0956 172.833C11.0249 172.408 10.6003 172.125 10.5924 171.606C10.5924 171.409 11.4416 169.404 11.6146 169.003C11.7719 168.634 12.4088 168.83 11.8348 167.596C12.8492 167.965 12.8335 167.029 13.203 166.896C13.8793 166.652 15.7036 167.391 16.8281 167.36C22.0887 167.21 26.3742 165.457 31.2967 164.057C33.0581 163.554 33.4906 163.381 35.1026 162.752C37.7919 161.698 39.9701 161.95 39.3331 158.104H40.3082L40.2689 157.161L39.6162 157.114L39.3331 155.431C39.8993 155.502 40.78 155.376 40.552 154.582C40.3947 154.016 39.0343 154.44 38.8849 153.819C38.6176 152.278 39.0894 150.461 38.9636 148.983C38.767 146.687 37.5875 143.659 37.3909 141.253C34.2455 139.767 32.8851 134.774 34.2848 131.77C34.6623 130.96 36.1485 130.677 35.9519 129.175C36.2428 128.923 39.915 129.301 40.5598 129.505C41.5034 129.812 42.3055 130.763 43.0604 131.149C47.8256 133.579 51.3956 133.508 54.9105 138.281C55.1229 138.572 55.5711 138.611 55.8463 139.051C56.5383 140.168 56.7899 144.163 56.1844 145.381C55.8148 146.136 55.2172 146.184 54.9105 146.608C54.3208 147.402 53.5502 150.634 53.448 151.649C53.3615 152.459 53.5344 153.386 53.4637 154.22C55.343 154.432 56.5068 152.773 58.4176 153.025C59.031 154.487 59.3612 153.921 60.2655 154.354C61.4922 154.951 63.2379 157.153 63.6625 158.301C64.1186 159.528 63.7805 162.256 63.4345 163.538C63.3794 163.743 62.9705 163.719 62.9705 163.813C62.9941 164.49 63.8041 164.718 63.6861 165.04L62.9784 165.182C62.8526 166.29 62.7582 166.723 63.6782 167.352L62.711 167.839C62.3965 165.559 58.1974 168.445 59.0546 169.302H60.0296C59.5657 170.324 58.2525 169.845 57.4111 170.191C57.1359 170.308 56.3653 171.504 56.0586 171.653C55.4531 171.952 54.3837 171.858 53.8097 172.447C53.1255 173.147 53.0233 175.821 52.9761 176.843C53.9276 177.134 54.2343 176.064 55.0206 176.104C56.2473 176.953 58.0874 176.859 59.1804 177.81C59.5264 178.109 60.2341 179.076 60.6272 179.532C61.4136 180.437 61.1384 180.185 61.7124 181.113C61.9876 181.553 62.829 181.891 62.8919 182.009C63.0413 182.277 62.8604 182.803 62.9548 182.914C63.002 182.961 63.8041 182.976 64.2444 183.204C65.1408 183.653 67.1145 185.501 66.5956 186.57L67.547 186.971L67.319 189.259C68.3098 189.558 68.2469 188.787 68.8681 188.512C69.3478 188.3 69.851 188.331 70.2285 188.151C70.8654 187.844 77.4156 178.195 77.9975 176.937C78.2413 176.41 79.0669 174.452 79.004 174.051C78.7996 172.707 77.6122 173.981 77.5336 173.926C77.4864 173.556 77.2977 173.257 77.3055 172.864C77.337 170.993 80.4037 161.981 81.363 160.11C81.5832 159.685 82.0157 159.685 82.1966 159.229C82.5504 158.348 82.0865 157.821 82.2516 157.137C82.519 156.021 84.4376 154.401 84.5556 154.063C84.7836 153.394 84.1074 152.647 84.4534 152.026C84.6342 151.696 85.1847 151.641 85.2712 151.483C85.6014 150.894 85.0117 150.634 86.4349 150.084C86.6551 149.651 85.9946 148.605 86.2226 147.953C86.317 147.685 86.6944 147.654 86.8517 147.347C87.292 146.506 87.929 144.273 88.5581 143.927C89.0377 143.667 89.9342 143.652 90.3352 143.29C90.4453 143.188 91.4518 141.717 91.1687 141.576C91.7506 141.544 92.3718 141.654 92.9458 141.521C93.8894 141.3 95.9654 140.278 96.9011 140.121C97.7818 139.971 98.6232 140.121 99.4174 140.498C100.754 141.127 103.247 144.69 103.286 146.066C103.373 148.81 101.745 149.848 100.778 152.026C100.487 152.679 100.526 153.441 100.282 153.96C99.96 154.637 99.0242 154.731 98.6075 155.211C98.2379 155.635 98.0256 156.713 97.7032 157.224C97.4201 157.664 96.3271 159.213 95.7924 158.962C96.2878 158.081 97.9784 157.129 96.8854 156.17C95.2734 156.901 94.8881 159.04 94.0546 160.149C93.5435 160.825 92.7493 160.888 92.6392 162.154L91.9 162.005V162.98C90.634 162.642 90.689 163.444 90.1779 163.813C87.3785 165.842 86.3642 168.02 83.7063 169.994C83.1559 170.403 81.6618 171.008 81.4181 171.354C81.0957 171.795 81.0485 173.234 81.3159 173.682C81.6068 174.169 84.5634 175.821 85.2082 176.355C86.2541 177.22 89.0456 180.138 89.6825 181.129C90.2251 181.978 89.9342 183.354 91.2945 183.433C91.5776 183.448 93.8029 182.976 94.1489 182.858C94.7701 182.654 95.179 182.009 95.7452 181.781C97.3651 181.121 99.8892 180.877 100.597 179.273C102.523 178.919 104.387 178.266 106.251 177.676C106.785 177.511 106.699 177.637 107.422 177.346C109.711 176.434 112.447 176.135 114.279 174.759C115.891 173.532 114.987 172.801 115.011 171.378C115.034 169.86 115.703 167.902 115.75 165.771C115.805 163.184 115.687 164.631 115.026 162.846C114.193 160.597 114.586 153.992 115.246 151.641C115.427 151.012 115.915 150.689 116.001 149.966C116.206 148.401 115.435 148.267 115.27 147.269C115.089 146.152 115.679 141.245 114.374 140.844C113.477 140.569 113.477 141.67 112.825 141.56C113.076 140.223 112.573 138.548 112.604 137.329C112.628 136.409 113.288 135.096 113.021 134.192C112.99 134.082 111.653 132.43 111.551 132.368C111.307 132.226 110.749 132.32 110.245 132.092C108.452 131.267 107.021 125.275 106.369 123.317C105.771 121.532 105.189 121.131 105.512 118.795C105.559 118.441 107.124 115.469 107.289 115.335C107.548 115.131 108.94 114.958 109.483 114.73C110.12 114.47 110.67 114.006 111.228 113.802C112.235 113.44 117.684 112.096 118.541 112.104C120.216 112.119 119.729 113.401 119.886 113.55L119.894 113.574ZM127.183 132.084C128.819 128.137 124.651 130.472 126.31 131.864C126.585 132.092 126.837 132.124 127.183 132.084ZM113.556 176.615C112.463 176.387 112.148 177.637 111.024 177.346C110.473 178.864 112.62 178.313 113.406 177.857L113.556 176.615ZM110.151 178.078C108.83 177.818 107.957 178.597 106.754 178.935C105.928 179.163 104.93 179.084 104.135 179.485C103.876 179.619 102.319 181.16 102.366 181.364C103.27 182.269 104.434 180.594 105.535 180.153C106.723 179.682 108.712 179.532 109.734 179.005C110.23 178.754 110.198 178.612 110.151 178.085V178.078ZM77.2662 182.741C76.4641 181.435 74.5927 185.068 74.2388 185.611C73.9243 186.09 72.3594 187.238 73.3895 187.954C73.7513 188.206 77.7773 187.805 77.9189 187.592C78.4457 186.295 77.6515 185.32 77.3527 184.235C77.2269 183.779 77.4077 182.976 77.2662 182.741ZM124.022 254.738L123.063 255.131L123.542 256.688C124.62 256.767 123.983 255.312 124.022 254.738Z" fill="white"/>
<path d="M81.7093 7.45712C81.7722 7.52789 82.1889 7.40208 82.3383 7.52789C82.5585 7.72448 82.3541 8.2356 83.2505 8.69954C85.4601 9.86332 85.8218 9.7611 87.5125 11.9786C89.038 13.9759 89.4705 15.525 90.2489 17.7582C90.3826 18.1514 90.8465 18.3008 90.933 18.7962C90.9645 19.0085 90.7129 21.2181 90.6421 21.4225C90.5713 21.627 88.8335 23.3491 88.6212 23.7894C87.8034 25.4643 87.08 32.0696 87.0171 34.1141C86.9227 37.1022 89.6749 35.6081 91.7823 35.4587C93.6931 35.325 95.6511 35.3486 97.5698 35.2149C98.5606 34.4522 98.1359 32.7144 97.2552 32.1718C97.7978 30.8665 100.912 33.3828 101.549 33.713C103.224 34.578 104.875 34.5387 106.424 35.1678C110.371 36.7562 112.644 40.1374 114.382 43.7231C114.201 44.6196 114.767 46.6169 114.413 47.3718C114.217 47.7964 113.517 48.0166 113.202 48.3704C112.204 49.4949 112.935 49.9746 110.631 49.5735C110.379 50.2891 111.37 50.6351 111.378 51.1541C111.378 51.964 109.656 52.4594 109.9 51.0282L107.714 52.0033C107.706 51.8067 107.769 51.4922 107.666 51.3349C107.313 50.8159 103.098 50.9182 102.248 51.044C101.847 51.1069 101.564 51.4765 101.022 51.5315C100.062 51.6416 99.166 51.1305 98.1123 51.2799C97.554 51.3585 97.0665 51.791 96.5239 51.8932C93.0011 52.5144 89.6041 52.6009 86.4666 54.669C85.8847 55.0543 86.3251 55.5497 84.8546 55.188C84.5086 56.8472 83.0775 58.6793 82.6922 60.2048C82.4248 61.2664 82.4248 63.1929 82.0946 64.2309C81.9766 64.6083 81.4655 64.7656 81.4026 65.2689C81.3476 65.6856 81.6385 66.1024 81.5913 66.4405C81.5441 66.7786 80.5298 68.2648 80.3096 68.776C80.113 69.2242 80.286 69.7825 80.0737 70.2464C79.885 70.6632 78.6819 72.1887 78.5167 72.629C78.1393 73.5962 77.9427 75.0667 77.6518 76.0968H76.5509V76.9067L77.0384 77.2999C75.9375 77.3942 76.2678 78.4794 75.9926 79.0534C75.7174 79.6274 75.2534 80.115 74.9703 80.7047C74.5614 81.5618 74.876 82.7807 73.6336 82.6549L74.1132 83.2603C73.7201 83.7557 73.4291 83.2761 72.8787 83.7243C72.6035 83.9523 71.7385 85.7924 71.9272 86.0597L72.6506 86.1777C72.5405 86.9797 71.2667 87.1763 71.0701 87.5144C70.8027 87.9627 71.1487 88.5996 70.7162 89.1029C70.3781 89.496 69.175 89.5825 68.9863 89.8577C68.7504 90.1959 68.8526 90.9429 68.6324 91.399C68.1842 92.3347 65.3298 94.4578 64.3705 94.9296C64.1503 95.0319 59.9355 96.0462 59.6367 96.0541C58.3943 96.0777 58.6459 95.7002 58.0404 95.425C57.199 95.0397 52.4967 97.8863 50.9948 97.1314L51.7261 96.0384C51.1049 96.1642 50.4601 95.7946 49.9018 95.7946C49.1548 95.7946 49.5086 96.3608 50.0355 96.4001L49.9018 97.0134C47.0002 96.3844 44.0436 96.982 41.1341 97.0134C40.1826 97.0292 39.2862 96.7146 38.2168 96.7461C36.2273 96.8169 34.2851 97.3201 32.162 96.982C30.4477 96.7146 26.1622 93.011 25.6982 91.1552L28.0415 93.3098C30.6365 94.7488 33.3493 95.0319 36.2667 94.5522C36.707 94.4814 39.3019 93.7029 39.8524 93.5142C40.7488 93.2076 51.9541 86.3271 52.8191 85.5486C58.0562 80.8463 60.0141 75.625 62.6327 69.3264C63.073 68.2806 64.0717 67.4077 63.8987 66.0867C61.0914 66.6764 58.638 66.8494 55.8623 65.9687C53.0865 65.088 50.0669 62.6268 49.3514 59.8195C49.2177 59.2848 49.3907 58.7187 49.2491 58.2233C49.1469 57.8537 48.5178 57.492 48.2662 57.0123C45.8286 52.3257 47.4563 45.0206 46.5599 40.2239C46.4891 39.8622 46.1667 39.587 46.1352 39.2017C46.2139 38.8478 47.3776 38.5726 47.7236 38.5648C48.0303 38.5648 49.7367 38.9579 50.0748 39.0759C50.4916 39.2174 53.1808 42.119 53.9279 42.5829C54.3761 42.866 54.6985 43.0076 55.2489 42.9761C57.5922 42.174 60.1242 42.0168 62.4911 41.4349C64.3783 40.9788 69.7097 39.587 70.9521 38.4625C71.8171 37.6762 72.4383 34.979 72.4226 33.831C72.4069 32.1089 71.7542 29.6241 71.6598 27.7604C71.4947 24.5207 72.8315 18.1199 70.4646 15.5722C70.0007 15.0768 69.2065 14.7858 68.8841 14.2275C68.3022 13.2053 67.9562 11.09 67.39 9.88691C67.1541 9.38365 66.1633 8.21201 66.1083 7.99183C66.0061 7.56721 66.4071 6.61574 66.47 6.05743C66.5093 5.64854 66.242 5.23178 66.352 4.6892C66.3835 4.54766 67.2013 3.0143 67.2878 2.93566C67.8618 2.39309 70.7634 1.01699 71.652 0.733908C72.1867 0.560913 74.6479 -0.0445688 75.0804 0.00261168C76.5352 0.152016 77.0227 1.57529 77.8877 2.54249C78.1786 2.87275 78.6268 3.04575 78.9649 3.41533C79.2638 3.74559 79.4053 4.46903 79.6884 4.64202C80.2624 4.99587 81.6542 4.47689 82.0238 4.98801C82.4878 5.60922 81.1824 6.90668 81.6778 7.4178L81.7093 7.45712Z" fill="white"/>
<path d="M85.1611 66.7632C85.6801 67.125 87.1427 68.0057 87.701 68.2573C89.3208 68.9807 90.9879 69.4447 92.7729 70.2389C96.0362 71.6857 100.416 73.3528 103.42 75.1692C104.01 75.5309 104.128 76.105 104.505 76.3409C105.221 76.7969 106.801 77.0329 107.698 77.4653C110.851 79.0066 116.182 82.7417 118.801 85.1007C119.461 85.6905 122.575 89.7637 122.866 90.5265C123.267 91.588 122.866 92.8226 123.362 93.9234C124.038 95.4489 126.593 97.0767 125.296 99.1605C125.036 99.5772 124.565 99.6952 124.431 100.01C124.258 100.419 124.329 100.938 124.132 101.394C124.061 101.559 122.85 103.006 122.748 103.045C121.993 103.36 118.73 102.675 117.889 102.322C116.3 101.653 114.311 99.4042 112.84 99.0976C112.368 98.9953 111.48 99.2391 111.126 99.074C109.64 98.3741 108.201 96.5105 106.998 95.4489C101.163 90.3063 94.9903 84.7783 89.7219 79.0695C88.4952 77.7406 88.0705 76.624 87.1427 75.3894C85.8373 73.6595 85.0353 73.6752 84.7286 71.1117C84.705 70.8837 84.3433 70.6635 84.3905 70.4197C84.4376 70.1366 85.0746 69.9165 85.1139 69.3975C85.1532 68.8785 84.6971 68.6583 84.6736 68.2494C84.65 67.7776 85.0431 66.9756 84.8544 66.3701C85.224 66.2678 85.0431 66.6689 85.1768 66.7554L85.1611 66.7632Z" fill="white"/>
</svg>
