<svg width="411" height="84" viewBox="0 0 411 84" fill="none" xmlns="http://www.w3.org/2000/svg">
<path d="M168.989 23.2507C168.989 15.6187 168.727 11.7282 168.465 10.3876C168.946 10.4314 170.204 10.4752 171.296 10.4752C172.476 10.4752 175.046 10.3438 178.349 10.3C184.887 10.3438 190.847 11.2814 194.99 15.5662C197.166 17.8444 199.123 21.5508 199.123 26.8608C199.123 32.4424 196.904 36.6834 194.422 39.277C192.114 41.6429 188.146 44.4994 180.351 44.4994C178.524 44.4994 176.733 44.4118 175.256 44.2803C172.905 44.1051 171.209 43.8334 168.631 44.0087C168.762 42.0459 168.98 38.024 168.98 31.3296V23.2507H168.989ZM174.478 29.2792C174.478 34.0109 174.521 36.5607 174.565 37.6297C174.609 38.9703 174.652 39.7239 174.871 39.9517C175.439 40.4424 177.834 41.0207 180.84 41.0207C184.065 41.0207 187.159 40.3022 189.554 38.024C191.861 35.8334 193.215 32.1708 193.215 28.0174C193.215 24.5826 192.56 21.3668 190.471 18.5541C187.814 15.0667 183.287 13.5946 178.367 13.5946C176.802 13.5946 175.36 13.7699 174.749 13.9539C174.618 14.0415 174.574 14.1291 174.574 14.2693C174.486 15.1631 174.486 18.6417 174.486 22.8915V29.2792H174.478Z" fill="url(#paint0_linear_50_2968)"/>
<path d="M215.807 34.1423C215.676 34.1423 215.632 34.1861 215.589 34.2737C214.365 37.6648 212.888 42.0021 212.364 44.0525C211.796 44.0087 211.184 43.9649 209.882 43.9649C208.483 43.9649 207.137 44.0525 206.657 44.1401C207.837 41.7743 209.619 37.7962 211.796 32.6615L220.509 11.8509C221.252 10.1949 221.47 9.70416 221.776 9.70416C222.038 9.70416 222.344 10.1072 223.087 11.8509C223.655 13.1478 228.051 23.1018 231.844 32.0394C233.889 36.771 236.328 42.1774 237.595 44.0525C236.468 44.0087 235.331 43.9649 234.763 43.9649C233.199 43.9649 231.407 44.0525 230.717 44.1401C229.974 42.0898 228.016 37.1741 226.802 34.2737C226.758 34.1861 226.758 34.1423 226.627 34.1423H215.825H215.807ZM225.255 30.4797C225.386 30.4797 225.429 30.4358 225.386 30.3044L221.033 19.2288L216.9 30.3044C216.856 30.4358 216.856 30.4797 216.987 30.4797H225.263H225.255Z" fill="url(#paint1_linear_50_2968)"/>
<path d="M247.768 23.2945C247.768 16.9068 247.637 11.8159 247.288 10.3876C247.768 10.4752 249.027 10.4752 249.901 10.4752C251.815 10.4752 253.213 10.3876 253.65 10.3C253.475 11.9999 253.257 16.9506 253.257 23.2945V31.1543C253.257 36.5169 253.432 42.7206 253.737 44.0613C253.257 44.0174 252.173 43.9736 251.037 43.9736C249.726 43.9736 247.943 44.0613 247.375 44.1489C247.593 42.3614 247.768 36.8674 247.768 31.1543V23.2945Z" fill="url(#paint2_linear_50_2968)"/>
<path d="M270.674 17.3098C270.937 14.8126 271.199 12.5344 271.505 10.4314C271.592 9.85309 271.679 9.71289 271.854 9.71289C272.029 9.71289 272.204 10.0283 272.466 10.4752C273.384 11.8597 275.21 15.3383 276.556 17.6165L286.004 34.8082L293.887 20.254C296.718 15.5661 297.89 13.3755 299.113 11.0097C299.769 9.94071 299.987 9.71289 300.206 9.71289C300.424 9.71289 300.511 9.88814 300.643 11.0535C300.905 13.2441 301.123 15.6538 301.385 18.0196C302.478 28.4292 303.867 41.2398 304.61 44.0525C304.173 44.0087 303.343 43.9649 301.91 43.9649C300.389 43.9649 298.903 44.0087 298.16 44.1401C298.16 40.7491 297.199 29.4457 296.771 22.2167C293.196 29.2266 288.626 37.4457 285.575 43.9649C285.313 44.587 285.138 44.5432 284.876 44.0087C281.433 36.5519 277.081 28.6045 274.118 22.2606C273.637 29.6735 272.772 40.7929 272.772 44.0525C272.116 43.9649 270.945 43.9649 270.421 43.9649C268.9 43.9649 267.764 44.0525 267.152 44.1401C267.808 41.2836 269.46 27.7545 270.683 17.3011L270.674 17.3098Z" fill="url(#paint3_linear_50_2968)"/>
<path d="M322.5 34.1423C322.369 34.1423 322.326 34.1861 322.282 34.2737C321.058 37.6648 319.581 42.0021 319.057 44.0525C318.489 44.0087 317.877 43.9649 316.575 43.9649C315.177 43.9649 313.831 44.0525 313.35 44.1401C314.53 41.7743 316.313 37.7962 318.489 32.6615L327.202 11.8509C327.945 10.1949 328.164 9.70416 328.47 9.70416C328.732 9.70416 329.038 10.1072 329.781 11.8509C330.349 13.1478 334.745 23.1018 338.538 32.0394C340.583 36.771 343.021 42.1774 344.288 44.0525C343.161 44.0087 342.025 43.9649 341.457 43.9649C339.892 43.9649 338.101 44.0525 337.41 44.1401C336.667 42.0898 334.71 37.1741 333.495 34.2737C333.451 34.1861 333.451 34.1423 333.32 34.1423H322.518H322.5ZM331.948 30.4797C332.079 30.4797 332.123 30.4358 332.079 30.3044L327.727 19.2288L323.593 30.3044C323.549 30.4358 323.549 30.4797 323.68 30.4797H331.957H331.948Z" fill="url(#paint4_linear_50_2968)"/>
<path d="M353.028 36.8674C354.417 38.7425 357.424 40.8893 360.955 40.8893C364.485 40.8893 366.181 38.7425 366.181 36.0262C366.181 33.7918 365.394 32.2759 361.916 29.9101L359.74 28.438C354.907 25.2222 353.771 22.1379 353.771 18.8783C353.771 13.875 357.52 9.72168 363.917 9.72168C365.7 9.72168 367.186 9.94074 368.313 10.1247C369.79 10.3964 370.708 10.5278 371.058 10.5278C370.927 11.0185 370.664 13.9626 370.664 16.3285C369.79 15.3033 367.702 13.3843 363.83 13.3843C360.824 13.3843 358.997 15.3033 358.997 17.6691C358.997 19.7195 359.478 21.1478 362.921 23.4698L365.054 24.898C370.411 28.5169 371.757 31.1018 371.757 34.7644C371.757 37.1741 370.664 40.7053 367.536 42.7995C365.359 44.2278 362.615 44.7184 360.526 44.7184C357.651 44.7184 354.208 43.9561 352.6 42.7995C352.774 42.0372 353.08 38.7776 353.037 36.8586L353.028 36.8674Z" fill="url(#paint5_linear_50_2968)"/>
<path d="M385.207 10.4752C386.99 10.4752 388.432 10.4314 389.21 10.3C388.991 11.8597 388.773 16.9506 388.773 23.2945V29.2354C388.773 34.7732 389.865 37.0514 391.779 38.6987C393.65 40.3548 395.957 40.5739 397.617 40.5739C399.278 40.5739 401.585 40.127 403.062 38.5673C405.282 36.3767 405.675 33.6078 405.675 28.07V23.2945C405.675 16.9068 405.369 12.0875 405.107 10.3876C405.675 10.4314 406.803 10.4752 407.458 10.4752C408.848 10.4752 410.115 10.3876 410.465 10.3C410.202 11.8597 409.94 16.9506 409.94 23.2945V28.1138C409.94 33.3362 409.591 38.4709 405.632 41.8707C403.018 44.1927 399.619 44.7272 396.7 44.7272C393.256 44.7272 389.516 44.0087 387.077 41.7392C384.858 39.7327 383.293 36.8236 383.293 30.392V23.2945C383.293 16.9068 383.031 11.7721 382.725 10.3876C383.293 10.4314 384.289 10.4752 385.207 10.4752Z" fill="url(#paint6_linear_50_2968)"/>
<path d="M174.915 55.426V63.6714C174.915 64.6878 174.609 65.4939 174.006 66.0898C173.403 66.6856 172.608 66.9748 171.62 66.9748C170.632 66.9748 169.837 66.6769 169.234 66.0898C168.631 65.4939 168.325 64.6878 168.325 63.6714H170.169C170.178 64.1796 170.309 64.5739 170.545 64.8718C170.781 65.1697 171.139 65.3187 171.611 65.3187C172.083 65.3187 172.442 65.1697 172.686 64.8631C172.931 64.5651 173.053 64.1621 173.053 63.6714V55.426H174.897H174.915Z" fill="url(#paint7_linear_50_2968)"/>
<path d="M187.823 64.5301H183.156L182.352 66.8696H180.438L184.432 55.4173H186.547L190.541 66.8696H188.619L187.815 64.5301H187.823ZM187.308 62.9967L185.49 57.678L183.663 62.9967H187.308Z" fill="url(#paint8_linear_50_2968)"/>
<path d="M202.89 60.4819C202.619 60.9988 202.191 61.4194 201.606 61.7436C201.02 62.0678 200.26 62.2256 199.342 62.2256H197.323V66.8696H195.497V55.4348H199.351C200.207 55.4348 200.933 55.5837 201.527 55.8904C202.121 56.1883 202.567 56.6001 202.855 57.1171C203.152 57.6341 203.292 58.2124 203.292 58.8433C203.292 59.4216 203.161 59.9736 202.89 60.4906V60.4819ZM200.898 60.2102C201.239 59.886 201.413 59.4304 201.413 58.8345C201.413 57.5815 200.723 56.9594 199.342 56.9594H197.323V60.6922H199.342C200.032 60.6922 200.557 60.5344 200.898 60.2102Z" fill="url(#paint9_linear_50_2968)"/>
<path d="M214.968 64.5301H210.301L209.497 66.8696H207.583L211.577 55.4173H213.692L217.686 66.8696H215.763L214.959 64.5301H214.968ZM214.461 62.9967L212.643 57.678L210.817 62.9967H214.461Z" fill="url(#paint10_linear_50_2968)"/>
<path d="M231.81 66.8696H229.983L224.477 58.3264V66.8696H222.651V55.4173H224.477L229.983 63.943V55.4173H231.81V66.8696Z" fill="url(#paint11_linear_50_2968)"/>
<path d="M239.256 56.9419V60.2979H243.11V61.8313H239.256V65.3362H243.591V66.8696H237.429V55.4173H243.591V56.9507H239.256V56.9419Z" fill="url(#paint12_linear_50_2968)"/>
<path d="M250.696 66.5805C250.093 66.3088 249.629 65.9321 249.28 65.4414C248.93 64.9507 248.764 64.3724 248.764 63.7152H250.722C250.766 64.2059 250.958 64.6177 251.29 64.9332C251.622 65.2486 252.103 65.4063 252.706 65.4063C253.309 65.4063 253.833 65.2486 254.183 64.9332C254.532 64.6177 254.716 64.2147 254.716 63.724C254.716 63.3384 254.602 63.0317 254.384 62.7864C254.165 62.541 253.894 62.357 253.562 62.2256C253.239 62.0942 252.784 61.954 252.208 61.7962C251.482 61.5947 250.888 61.4019 250.433 61.1916C249.979 60.9813 249.594 60.6747 249.271 60.2453C248.948 59.816 248.79 59.2464 248.79 58.5367C248.79 57.8795 248.948 57.3012 249.271 56.8105C249.594 56.3198 250.04 55.9342 250.617 55.6714C251.194 55.4085 251.867 55.2771 252.618 55.2771C253.702 55.2771 254.585 55.5575 255.275 56.1095C255.966 56.6615 256.35 57.4238 256.42 58.3877H254.401C254.366 57.9671 254.174 57.6166 253.824 57.3187C253.475 57.0208 253.003 56.8718 252.426 56.8718C251.902 56.8718 251.473 57.012 251.141 57.2836C250.809 57.5553 250.643 57.9496 250.643 58.4666C250.643 58.8171 250.748 59.1062 250.958 59.334C251.168 59.5619 251.43 59.7371 251.753 59.8685C252.076 60 252.513 60.1402 253.073 60.2979C253.807 60.5082 254.41 60.7185 254.882 60.92C255.345 61.1303 255.747 61.4458 256.07 61.8839C256.394 62.3132 256.56 62.8915 256.56 63.6188C256.56 64.1971 256.411 64.7492 256.105 65.2661C255.8 65.7831 255.354 66.1949 254.777 66.5104C254.191 66.8258 253.51 66.9835 252.714 66.9835C251.963 66.9835 251.29 66.8521 250.696 66.5805Z" fill="url(#paint13_linear_50_2968)"/>
<path d="M263.77 56.9419V60.2979H267.625V61.8313H263.77V65.3362H268.105V66.8696H261.944V55.4173H268.105V56.9507H263.77V56.9419Z" fill="url(#paint14_linear_50_2968)"/>
<path d="M286.738 66.8696L284.169 62.2957H282.77V66.8696H280.944V55.4348H284.798C285.655 55.4348 286.38 55.5925 286.974 55.8992C287.568 56.2058 288.014 56.6177 288.303 57.1346C288.6 57.6516 288.74 58.2299 288.74 58.8608C288.74 59.6056 288.53 60.2803 288.102 60.8937C287.682 61.4983 287.027 61.9189 286.153 62.1379L288.914 66.8784H286.729L286.738 66.8696ZM282.77 60.7973H284.789C285.471 60.7973 285.987 60.6221 286.336 60.2716C286.686 59.9211 286.861 59.4479 286.861 58.8521C286.861 58.2562 286.686 57.7918 286.345 57.4589C286.004 57.1259 285.48 56.9594 284.789 56.9594H282.77V60.7973Z" fill="url(#paint15_linear_50_2968)"/>
<path d="M296.124 56.9419V60.2979H299.979V61.8313H296.124V65.3362H300.459V66.8696H294.298V55.4173H300.459V56.9507H296.124V56.9419Z" fill="url(#paint16_linear_50_2968)"/>
<path d="M307.565 66.5805C306.962 66.3088 306.499 65.9321 306.149 65.4414C305.799 64.9507 305.633 64.3724 305.633 63.7152H307.591C307.635 64.2059 307.827 64.6177 308.159 64.9332C308.491 65.2486 308.972 65.4063 309.575 65.4063C310.178 65.4063 310.702 65.2486 311.052 64.9332C311.401 64.6177 311.585 64.2147 311.585 63.724C311.585 63.3384 311.471 63.0317 311.253 62.7864C311.034 62.541 310.763 62.357 310.431 62.2256C310.108 62.0942 309.654 61.954 309.077 61.7962C308.351 61.5947 307.757 61.4019 307.303 61.1916C306.848 60.9813 306.464 60.6747 306.14 60.2453C305.817 59.816 305.66 59.2464 305.66 58.5367C305.66 57.8795 305.817 57.3012 306.14 56.8105C306.464 56.3198 306.909 55.9342 307.486 55.6714C308.063 55.4085 308.736 55.2771 309.487 55.2771C310.571 55.2771 311.454 55.5575 312.144 56.1095C312.835 56.6615 313.219 57.4238 313.289 58.3877H311.27C311.235 57.9671 311.043 57.6166 310.694 57.3187C310.344 57.0208 309.872 56.8718 309.295 56.8718C308.771 56.8718 308.343 57.012 308.01 57.2836C307.678 57.5553 307.512 57.9496 307.512 58.4666C307.512 58.8171 307.617 59.1062 307.827 59.334C308.037 59.5619 308.299 59.7371 308.622 59.8685C308.946 60 309.383 60.1402 309.942 60.2979C310.676 60.5082 311.279 60.7185 311.751 60.92C312.214 61.1303 312.616 61.4458 312.94 61.8839C313.263 62.3132 313.429 62.8915 313.429 63.6188C313.429 64.1971 313.28 64.7492 312.975 65.2661C312.669 65.7831 312.223 66.1949 311.646 66.5104C311.061 66.8258 310.379 66.9835 309.584 66.9835C308.832 66.9835 308.159 66.8521 307.565 66.5805Z" fill="url(#paint17_linear_50_2968)"/>
<path d="M326.014 55.426V56.9594H323.043V66.8696H321.216V56.9594H318.227V55.426H326.014Z" fill="url(#paint18_linear_50_2968)"/>
<path d="M337.795 64.5301H333.128L332.324 66.8696H330.41L334.404 55.4173H336.519L340.513 66.8696H338.59L337.786 64.5301H337.795ZM337.279 62.9967L335.461 57.678L333.635 62.9967H337.279Z" fill="url(#paint19_linear_50_2968)"/>
<path d="M347.278 55.426V62.7163C347.278 63.5838 347.496 64.2322 347.942 64.6703C348.388 65.1084 348.999 65.3275 349.795 65.3275C350.59 65.3275 351.219 65.1084 351.665 64.6703C352.111 64.2322 352.329 63.575 352.329 62.7163V55.426H354.156V62.6812C354.156 63.61 353.955 64.4074 353.561 65.0471C353.168 65.6955 352.635 66.1774 351.971 66.4929C351.307 66.8083 350.573 66.966 349.768 66.966C348.964 66.966 348.239 66.8083 347.575 66.4929C346.919 66.1774 346.395 65.6955 346.01 65.0471C345.626 64.3987 345.434 63.61 345.434 62.6812V55.426H347.26H347.278Z" fill="url(#paint20_linear_50_2968)"/>
<path d="M365.543 66.8696L362.974 62.2957H361.576V66.8696H359.749V55.4348H363.603C364.46 55.4348 365.185 55.5925 365.779 55.8992C366.374 56.2058 366.819 56.6177 367.108 57.1346C367.405 57.6516 367.545 58.2299 367.545 58.8608C367.545 59.6056 367.335 60.2803 366.907 60.8937C366.487 61.4983 365.832 61.9189 364.958 62.1379L367.72 66.8784H365.535L365.543 66.8696ZM361.576 60.7973H363.594C364.276 60.7973 364.792 60.6221 365.141 60.2716C365.491 59.9211 365.666 59.4479 365.666 58.8521C365.666 58.2562 365.491 57.7918 365.15 57.4589C364.809 57.1259 364.285 56.9594 363.594 56.9594H361.576V60.7973Z" fill="url(#paint21_linear_50_2968)"/>
<path d="M379.824 64.5301H375.157L374.353 66.8696H372.439L376.433 55.4173H378.548L382.542 66.8696H380.619L379.815 64.5301H379.824ZM379.308 62.9967L377.49 57.678L375.664 62.9967H379.308Z" fill="url(#paint22_linear_50_2968)"/>
<path d="M396.657 66.8696H394.83L389.324 58.3264V66.8696H387.498V55.4173H389.324L394.83 63.943V55.4173H396.657V66.8696Z" fill="url(#paint23_linear_50_2968)"/>
<path d="M409.477 55.426V56.9594H406.506V66.8696H404.679V56.9594H401.69V55.426H409.477Z" fill="url(#paint24_linear_50_2968)"/>
<path d="M135.569 83.965C135.28 83.3428 134.599 82.9047 134.144 82.3877C133.663 81.8357 133.34 81.1873 132.781 80.6966C131.802 79.8291 130.535 79.6188 130.412 78.0066C130.526 77.8839 130.788 77.9628 130.928 78.0066C131.487 78.2169 132.755 79.1281 133.323 79.5049C133.856 79.8554 134.371 80.6265 135.018 80.2497C135.394 78.1818 135.429 75.9649 135.796 73.9146C135.883 73.4063 136.268 71.6977 136.451 71.3034C136.722 70.7163 137.413 70.4885 137.456 69.6648C137.474 69.253 137.29 69.1391 137.264 68.9113C137.22 68.5958 137.623 68.0263 136.985 68.0263C136.617 68.0263 136.513 68.368 136.137 68.1489C135.175 67.5794 135.123 65.3888 135.245 64.3899C135.28 64.0745 135.473 63.8817 135.473 63.5487C135.473 63.0142 135.027 62.7075 135.027 62.173C135.027 61.7437 135.359 61.1215 135.359 60.587C135.359 59.6845 135.088 58.5542 135.036 57.6341C134.861 54.357 135.079 51.0887 135.036 47.8291C135.027 46.8302 134.529 46.5147 134.424 45.9101C134.249 44.9375 134.782 43.7721 133.288 43.5706C132.047 43.4041 132.029 44.035 131.234 44.6571C129.53 46.0065 127.03 46.7075 125.195 47.8817C124.356 48.4162 123.613 49.2048 122.826 49.8269C122.451 50.1248 121.979 50.1599 121.9 50.6856C121.629 52.3504 121.69 51.8072 120.738 52.9989C119.619 54.4008 120.021 55.2157 119.785 56.7842C119.715 57.2486 119.261 57.7919 119.182 58.1862C119.138 58.4227 119.208 58.9485 119.147 59.0449C119.112 59.0974 118.596 59.1763 118.43 59.3253C118.177 59.5443 118.116 60.1226 117.801 60.3855C117.53 60.6133 117.146 60.6133 116.848 60.9025C116.578 61.1654 116.368 61.6298 116.429 62.0065C116.071 61.989 115.695 62.0416 115.328 62.0065C115.17 61.989 115.066 61.8138 114.908 61.8138C114.795 61.8138 114.576 61.9452 114.532 61.9102C114.323 61.7262 114.27 58.9047 114.218 58.3789C114.069 57.0558 113.641 56.0043 113.807 54.5936C113.894 53.8313 114.524 52.9375 114.069 52.2015C113.484 51.7371 110.879 52.9989 110.093 53.1916C108.721 53.5246 105.478 53.4808 104.159 52.9726C103.512 52.7272 103.066 52.1314 103.075 51.4216L103.398 51.3691L103.293 50.633L103.809 50.7382C104.176 50.1949 103.905 49.8181 103.914 49.3187C103.931 48.2409 104.814 48.7579 105.233 48.4162C105.347 48.3198 105.452 47.9868 105.601 47.8378C105.95 47.4698 106.483 47.1719 106.807 46.725C106.929 46.5498 107.584 45.2267 107.497 45.1478C105.496 45.0514 103.547 44.7623 102.201 43.1325C101.947 42.8258 101.309 41.5027 101.196 42.7732C101.065 44.1489 101.274 45.5421 101.073 46.9791C100.881 48.3811 100.156 49.4589 100.138 50.8433L100.872 50.5279V53.0076C100.872 53.104 100.636 53.3143 100.715 53.4896L101.371 54.2782L100.89 55.2157C101.563 55.8028 100.925 56.5914 100.977 57.3362C101.012 57.8357 101.344 58.4403 101.397 59.0274C101.51 60.3592 101.44 61.805 101.502 63.1369C101.528 63.6188 101.939 64.127 101.432 64.5564C100.243 63.9956 100.523 65.0383 100.068 65.713C99.8237 66.0898 99.3605 66.1949 99.1332 66.4666C98.871 66.7733 98.9147 67.2114 98.7487 67.4567C98.5826 67.7021 98.2942 67.6232 98.1544 67.7546C97.9621 67.9299 97.9184 68.6659 97.6475 68.7711C97.3416 68.8937 97.263 68.4293 97.1843 68.1927C96.9745 67.5181 97.027 66.3614 96.791 65.8532C96.5813 65.4063 96.0656 65.4239 95.8384 64.3811C95.3927 62.2607 95.0606 59.0186 94.8683 56.8105C94.7809 55.8028 94.8945 54.4534 94.7547 53.5509C94.6585 52.92 94.1079 52.9989 93.7059 53.3231C93.4263 53.5509 93.234 54.357 92.9281 54.7601C92.0279 55.9342 90.3062 56.828 89.1875 57.862C88.3835 58.6068 88.1388 59.2376 87.0201 59.8072C86.3122 60.1665 84.9838 60.4381 84.4157 60.885C84.1448 61.0953 84.1186 61.4545 83.8739 61.7174C83.4019 62.2168 80.9548 63.7152 80.2469 64.092C79.3555 64.5651 78.3679 64.8631 77.3628 64.9857L73.832 63.6714C74.4351 62.655 75.2741 63.0668 76.0432 62.8302C76.4714 62.6988 77.0395 62.0328 77.4852 61.8488C77.7823 61.7261 78.2455 61.7524 78.4116 61.621C78.499 61.5509 78.6913 61.104 78.9272 60.8674C79.3205 60.4731 79.9672 60.1577 80.3518 59.7634C80.9548 59.1325 81.2782 58.1424 81.8725 57.4939C82.091 57.2574 82.3706 57.1347 82.5629 56.9244C83.2708 56.127 84.3108 54.6988 85.0887 54.0766C85.3858 53.84 85.9714 53.7875 86.3384 53.6911C86.4083 53.3494 86.1462 53.0339 86.3384 52.7185C86.3996 52.6133 87.3085 51.9649 87.5532 51.6933C89.1089 50.0109 90.8918 47.0405 92.0367 45.0164C92.8407 43.5969 93.0155 42.8345 93.5923 41.4063C93.9157 40.6002 94.5711 40.0744 94.3264 39.0317C91.2676 39.2683 90.3412 42.598 87.9465 43.8685C86.6618 44.5432 85.0275 44.9287 83.6728 44.184C83.332 43.9912 83.3145 43.6144 83.0436 43.4304C82.7115 43.2113 82.292 43.3165 82.1172 43.1062C81.9424 42.8959 81.9162 42.1949 81.7851 41.8619C81.5579 41.3011 80.7189 40.8367 80.8587 40.276C80.8936 40.1358 81.2345 40.2059 81.1646 39.8554C81.0684 39.3384 80.413 39.2595 80.3518 39.0843C80.2557 38.8214 80.378 38.2256 80.3168 37.8575C80.212 37.2529 79.6788 36.8762 79.504 36.3504C79.2856 35.6932 79.4866 35.0799 79.3904 34.4665C79.3642 34.2913 79.1894 34.1686 79.1719 33.932C79.1195 33.1872 80.0983 32.4424 79.8099 31.7677C80.2557 31.943 80.4042 31.3734 80.5178 31.3471C81.016 31.2245 81.6802 31.5224 82.1784 31.5574C84.6866 31.759 91.1452 29.7173 93.5836 28.6571C94.6848 28.1839 94.5537 27.7283 94.5274 26.5979H95.0518C95.2179 26.0284 94.7372 26.1861 94.6498 26.0547C94.5886 25.9671 94.5886 25.4063 94.5274 25.231C94.7896 25.231 95.2528 25.0996 95.1567 24.7579C95.078 24.4687 94.3527 24.7403 94.239 24.2058C94.0905 23.4786 94.3876 22.3657 94.309 21.4983C94.274 21.1127 93.5748 17.7217 93.4612 17.5465C93.4263 17.4939 93.1728 17.4588 93.0679 17.3624C91.8531 16.3548 91.2501 14.5147 91.6346 12.9813C91.8793 12.0262 92.6747 12.0612 92.762 11.1149L92.8757 11.0536C93.0679 10.9659 94.947 11.1762 95.2528 11.2639C95.6898 11.3953 96.3278 12.0349 96.8434 12.3066C98.4952 13.174 100.304 13.4282 101.79 14.725C102.367 15.2332 103.477 16.3811 103.634 17.0908C103.791 17.8181 103.896 19.3778 103.459 19.9824C103.241 20.2803 102.996 20.2891 102.751 20.7447C102.594 21.0426 102.105 22.5673 102.105 22.8389V24.4775C102.917 24.7053 103.861 23.7327 104.569 23.8378C104.858 23.8816 104.884 24.2759 105.155 24.4161C105.723 24.714 105.994 24.6089 106.571 25.2135C107.855 26.5629 108.013 28.1226 107.252 29.805L107.567 30.3833C106.78 30.4008 107.191 31.2858 107.567 31.6451C106.78 32.0569 107.165 31.5837 106.754 31.4523C106.142 31.2595 105.041 31.9079 105.041 32.5914H105.566C105.478 33.231 104.657 32.8893 104.22 33.0908C103.966 33.2047 103.765 33.7392 103.451 33.9057C103.118 34.0722 102.664 34.0021 102.349 34.2825C101.834 34.7294 101.877 36.07 101.877 36.7097C102.236 36.7272 102.533 36.2716 102.865 36.2891C102.979 36.2891 104.421 36.7885 104.604 36.8762C105.688 37.3669 105.871 38.3132 106.562 39.0229C106.702 39.1631 107.086 39.3384 107.104 39.3734C107.174 39.5049 107.078 39.7502 107.174 39.8904C107.217 39.9517 107.855 40.0657 108.109 40.2146C108.467 40.4337 108.913 40.9682 109.07 41.3537C109.245 41.7655 109 41.8882 109.638 42.1599L109.542 43.3077C109.831 43.518 110.014 43.0799 110.241 42.9572C110.556 42.782 110.932 42.8433 111.229 42.5804C111.954 41.9233 113.781 39.0229 114.384 38.0416C114.716 37.507 115.101 36.9463 115.345 36.3679C115.468 36.0876 115.992 34.8959 115.485 34.8433L114.908 35.1325C114.515 34.7294 115.424 31.9693 115.616 31.3647C116.044 29.9802 116.481 28.4994 117.329 27.3866C117.705 26.8959 117.329 26.4928 117.478 25.9495C117.644 25.3887 118.509 24.9068 118.649 24.4862C118.789 24.0656 118.448 23.6275 118.64 23.3208C118.736 23.1719 119.033 23.1719 119.095 23.093C119.261 22.8652 119.042 22.4095 119.706 22.2694C119.82 22.0941 119.435 21.507 119.549 21.1828C119.601 21.0339 119.837 20.9901 119.942 20.8323C120.292 20.3416 120.292 19.334 120.93 18.9747C121.175 18.8345 121.629 18.8082 121.813 18.6505C121.987 18.5015 122.232 17.748 122.337 17.7305C124.137 17.9145 125.466 15.9868 127.161 17.5202C127.686 17.9933 128.752 19.5355 128.778 20.219C128.839 21.4983 127.843 22.2606 127.432 23.2858C127.292 23.645 127.275 24.1007 127.152 24.3723C126.986 24.7228 126.488 24.8192 126.261 25.0645C126.025 25.3186 125.911 25.8707 125.719 26.2036C125.527 26.5278 125.134 27.15 124.688 27.0711C125.003 26.5717 125.579 26.3263 125.422 25.6516C124.469 25.8269 124.33 27.0799 123.788 27.7546C123.508 28.1051 123.115 28.1752 123.062 28.7184H122.695V29.2442C122.022 29.0952 122.101 29.4107 121.804 29.6648C120.633 30.6549 119.698 31.8904 118.596 32.7754C117.836 33.3888 116.543 33.5377 116.936 34.8608C117.041 35.2288 118.526 35.9736 118.902 36.2628C119.549 36.7623 121.113 38.3482 121.489 39.0492C121.681 39.3997 121.743 40.1533 122.223 40.2146C122.485 40.2497 123.683 39.978 123.954 39.8466C124.233 39.7152 124.365 39.4873 124.618 39.3471C125.387 38.9266 126.217 38.9966 127.013 38.3745C127.152 38.2606 127.17 38.0416 127.345 37.9715C127.817 37.7612 128.909 37.5859 129.503 37.4019C130.709 37.0251 133.934 36.2102 134.73 35.4742C135.385 34.8696 134.948 34.2299 134.992 33.4238C135.053 32.4337 135.604 30.9265 135.385 29.9627C135.333 29.7349 135.079 29.4895 134.983 29.2091C134.581 28.0788 134.721 24.2847 135.123 23.1105C135.254 22.725 135.508 22.6286 135.525 22.1379C135.542 21.5158 135.175 21.2617 135.105 20.7535C135.001 20.0262 135.368 17.7392 134.642 17.4063C134.301 17.2485 134.162 17.7655 133.83 17.7567C133.908 16.9594 133.655 16.1795 133.716 15.3822C133.751 14.8739 134.048 14.3219 133.908 13.8225C133.873 13.7085 133.261 12.9638 133.148 12.9024C132.859 12.7359 132.466 12.806 132.178 12.5607C131.942 12.3679 131.566 11.5705 131.426 11.2639C131.007 10.3263 130.063 7.66254 129.879 6.69868C129.704 5.7874 130.15 4.73592 130.648 3.98236C131.015 3.43033 131.548 3.56177 132.108 3.34271C132.44 3.21127 132.693 2.96593 133.06 2.82573C133.69 2.58038 136.32 1.92321 136.915 1.9495C137.719 1.98455 137.526 2.72058 137.605 2.79944C137.631 2.82573 138.086 2.80821 138.304 2.88707C139.239 3.19375 141.223 5.38433 141.634 6.29562C142.167 7.48729 141.931 8.58258 142.01 9.81807C142.045 10.3 142.429 10.6855 142.01 11.1938C142.394 11.2726 142.097 11.6582 142.106 12.0349C142.115 12.4555 142.246 12.8323 142.22 13.2529C142.132 13.3405 141.547 13.0777 141.59 13.4106C141.66 13.9364 142.106 13.8575 142.123 13.9451C142.158 14.1379 142.027 14.3745 142.045 14.5585C142.062 14.7688 142.228 14.9703 142.228 15.2069C142.228 15.6187 141.503 15.9868 141.293 16.4862C140.585 18.2562 141.066 20.07 140.961 21.8488C140.917 22.6724 140.638 23.5399 140.734 24.3811C140.76 24.6352 141.293 24.6264 141.276 25.3186C141.258 25.932 140.664 26.3789 140.664 26.5629C140.664 26.6593 140.76 27.4567 140.786 27.5881C140.882 28.0875 141.319 28.2365 140.743 28.7447L141.066 28.8061C141.005 29.1916 141.249 29.6122 141.258 29.9627C141.258 30.2606 141.118 30.5147 141.171 30.8915C141.223 31.2332 141.564 31.5574 141.582 31.8553C141.599 32.1095 141.398 32.3898 141.494 32.679C141.625 33.0733 142.587 32.7316 142.884 32.7491C143.172 32.7666 143.417 32.9857 143.662 33.0383C146.467 33.5903 149.639 33.6604 149.98 37.3493C150.007 37.6034 150.094 38.3395 149.823 38.4271C148.984 38.6724 148.285 38.0065 147.586 37.8575C147.184 37.7699 146.091 37.6385 145.759 37.8313C145.619 37.9101 145.602 38.1029 145.514 38.1292C145.174 38.2168 144.728 37.989 144.3 38.0416C144.072 38.0766 142.499 38.69 142.333 38.8126C142.228 38.8915 141.748 39.8378 141.721 39.9868L141.538 52.5695L141.276 52.7272C141.276 52.7973 141.477 52.7886 141.573 52.955C141.914 53.5509 141.599 55.5575 141.582 56.311C141.555 58.2563 141.617 60.1927 141.695 62.1205C141.721 62.839 141.214 63.3297 142.534 63.2245C142.482 63.7678 142.316 64.5476 142.316 65.0734C142.316 66.0635 142.788 67.2727 142.63 68.2278C142.56 68.6834 141.949 69.0515 141.922 69.5159C141.905 69.8926 142.552 70.4972 142.587 70.9091C142.613 71.1895 142.281 71.3472 142.316 71.4961C142.333 71.5838 142.543 71.6101 142.604 71.6889C142.866 72.0307 142.429 72.5914 142.421 72.977C142.403 73.4063 142.7 73.7218 142.63 74.23C142.56 74.7382 141.8 75.8423 141.59 76.5695C141.197 77.9277 141.101 79.4173 140.935 80.8193L139.895 80.9858C139.615 81.8269 139.449 82.7382 138.322 82.4666C138.077 81.7393 137.474 81.0471 137.299 80.3286C137.203 79.943 137.212 79.4436 137.116 79.0318C136.985 78.4534 136.565 77.954 136.74 77.2442C135.053 77.2881 135.866 79.6364 135.7 80.7667L135.787 80.8894C135.962 80.977 136.259 80.9419 136.399 81.0734C136.451 81.126 137.019 82.3089 137.028 82.379C137.063 82.7295 136.548 83.5794 136.53 84H135.481L135.569 83.965ZM141.555 12.6658C141.617 12.3942 141.949 11.7545 141.678 11.553C140.795 11.3164 140.603 12.7272 141.555 12.6658ZM134.188 37.2267L134.205 36.4994L132.991 36.9375L132.868 37.1828C133.165 37.6823 133.777 37.3581 134.197 37.2179L134.188 37.2267ZM132.414 37.3493C131.723 37.1916 131.225 37.6735 130.631 37.8313C129.626 38.0941 128.909 37.9101 128.315 39.093C128.428 39.242 128.472 39.2595 128.656 39.2332C129.023 39.1807 129.635 38.5761 130.045 38.4008C130.753 38.1117 131.645 38.1292 132.353 37.7787L132.422 37.3493H132.414ZM114.611 39.6801C114.148 39.7239 113.484 41.0558 113.222 41.4501C113.082 41.6604 112.313 42.2738 112.75 42.5717C112.951 42.7119 114.69 42.598 114.987 42.4928C115.704 42.2299 114.978 41.0821 114.882 40.644C114.821 40.3723 114.987 39.6451 114.611 39.6801ZM139.877 78.4797L139.362 78.7426L139.72 79.5312C139.947 79.5312 139.869 78.655 139.877 78.4797Z" fill="url(#paint25_linear_50_2968)"/>
<path d="M41.251 5.54205C42.0113 5.39309 41.8453 5.87501 42.1337 6.19046C42.5532 6.65486 43.7418 6.97907 44.3011 7.37337C46.1801 8.71401 46.8444 11.1938 47.6921 13.1653C47.8144 13.4457 48.1553 13.6297 48.2165 13.9626C48.2602 14.1905 48.0592 15.5837 47.9543 15.8378C47.7445 16.3811 46.8181 17.0733 46.5122 17.599C45.9354 18.5892 45.4023 22.8564 45.3324 24.1445C45.1314 27.8422 46.2675 26.484 48.7496 26.2562C50.1305 26.1335 51.6861 26.2562 53.0844 26.081C53.9497 25.3362 53.2505 24.4161 52.8922 23.6275C54.2905 23.4172 55.2169 24.6527 56.3793 25.1521C57.4018 25.5903 58.538 25.6428 59.578 26.0284C62.7417 27.2025 65.687 31.1018 65.6957 34.484C65.6957 35.4041 65.1713 35.4216 64.6557 35.9386C64.0439 36.5519 63.9827 37.2967 62.7767 36.7447C62.5494 37.2967 63.2836 37.6034 63.336 37.8575C63.4671 38.5498 62.0688 38.8827 62.1911 37.9101L60.5918 38.4972L60.5044 38.0415C59.4731 37.8137 58.3981 37.6823 57.3406 37.7787C56.7201 37.84 56.0996 38.1467 55.584 38.1993C54.8324 38.2869 54.1419 37.9452 53.4078 38.0591C53.0058 38.1204 52.5426 38.4534 52.0269 38.5673C49.912 39.0229 47.6397 39.0142 45.6732 40.0656C44.9391 40.4599 44.6245 41.1785 43.7331 41.0295C43.4097 42.3176 42.3522 43.5005 42.055 44.7535C41.889 45.4632 41.9414 46.3745 41.7841 47.1018C41.5481 48.1796 41.251 47.8028 41.2772 49.0733C41.2947 49.897 40.5081 50.3964 40.3159 51.0273C40.1935 51.4392 40.2809 51.7809 40.0886 52.2628C39.8789 52.7973 39.2846 53.2968 39.0137 53.9539C38.7165 54.6812 38.6116 55.5312 38.4368 56.2935L37.6328 56.4337L37.7814 57.3713C37.1259 57.6254 37.3444 58.1949 37.1521 58.6506C36.8113 59.4479 36.0859 60.7272 35.6664 61.3932C35.5702 61.5421 35.7713 61.7962 35.6052 61.9014C35.3955 62.0416 34.9585 61.9715 34.7575 62.1555C34.6176 62.2869 34.0321 63.7678 34.1369 63.8729L34.7225 63.943C34.4953 64.5126 33.9971 64.5388 33.5514 64.8455C33.4378 66.3264 33.1756 66.1862 31.952 66.7031C31.8996 68.3329 29.636 70.0328 28.2202 70.541C27.6609 70.7426 25.1089 71.3735 24.6632 71.2858C24.235 71.1982 24.0864 70.7251 23.5358 70.7864C22.7754 70.8652 19.2009 72.6177 18.7465 72.1884L19.0349 71.3121L17.8026 71.023L17.654 71.3209L18.0036 71.4786L17.8725 72.0482C17.3744 71.9167 16.7189 71.7765 16.212 71.7502C14.6738 71.6714 13.0483 72.0569 11.5538 72.0657C10.8196 72.0657 9.9719 71.7502 9.22904 71.7502C7.96179 71.7502 6.66833 72.1796 5.29621 72.0569C3.32979 71.8817 0.734128 69.4808 0 67.6758C2.08877 69.989 4.84175 70.69 7.88313 70.1117C10.9245 69.5334 15.3642 66.5892 18.0124 64.8192C23.6494 61.0514 24.6807 57.0821 27.3026 51.2376C27.6259 50.5191 28.3601 49.9233 28.2027 49.0032C24.6632 50.1599 19.769 48.9945 17.9075 45.5509C17.3656 44.5432 17.6278 44.1226 17.3831 43.3077C17.2782 42.9747 16.9024 42.782 16.7451 42.4928C14.5165 38.4797 16.3169 33.1784 15.137 28.8937C17.7152 27.7546 18.93 30.0853 20.5818 31.3559C20.8877 31.5925 21.1761 31.8466 21.5956 31.8115C25.0128 31.0492 28.7883 30.6461 32.0307 29.2792C33.2368 28.771 33.6388 28.5607 34.0933 27.2639C35.0109 24.6439 33.9447 22.8301 33.8748 20.3504C33.8136 18.1248 34.5739 14.1905 33.5252 12.2452C33.0882 11.4391 32.223 11.1499 31.8646 10.5541C31.384 9.75673 31.2529 8.36352 30.8509 7.48728C30.5799 6.89145 29.8021 6.23427 29.8108 5.63843C29.8196 5.27918 30.0905 4.85858 30.0905 4.45552C30.0905 4.21017 29.9419 3.96483 29.9419 3.71948C29.9419 1.73043 34.5215 0.0831108 36.1296 0.00424974C37.6066 -0.0746113 37.7202 0.959344 38.5155 1.83558C38.7689 2.11597 39.136 2.26493 39.3982 2.55409C39.6866 2.86953 39.6691 3.40404 40.1935 3.50042C40.6217 3.57928 41.2772 3.33394 41.5918 3.71072C41.9851 4.18388 41.1374 4.97249 41.286 5.54205H41.251Z" fill="url(#paint26_linear_50_2968)"/>
<path d="M43.8993 49.5553C43.978 49.6779 45.5249 50.5103 45.8046 50.6418C49.1781 52.2278 53.006 53.2792 56.3183 55.1106C57.2709 55.6363 57.7516 56.3548 58.3459 56.7228C59.3684 57.345 61.1863 57.7393 62.6021 58.5805C65.3376 60.2103 70.6688 64.127 71.8049 67.1413C72.0846 67.8861 71.8137 68.7535 72.1807 69.6823C72.6876 70.9704 74.2782 71.6801 73.7451 73.38C73.5965 73.8532 73.1421 73.8883 72.9673 74.2037C72.8012 74.5016 72.8449 74.931 72.7138 75.2552C72.609 75.5005 71.8486 76.403 71.6301 76.5082C71.0883 76.7623 68.4489 76.1402 67.8022 75.8247C66.7534 75.3165 65.7222 73.9759 64.6122 73.6341C63.9655 73.4326 63.3712 73.6341 62.8031 73.4063C61.9991 73.0821 60.4696 71.207 59.718 70.5235C54.2995 65.6254 49.4053 61.5859 45.0879 55.5925C44.7645 55.1456 44.2926 54.8652 44.0042 54.3395C43.6371 53.6735 43.6546 52.9463 43.2788 52.2891C43.2788 51.9649 43.777 51.7984 43.8469 51.5355C43.9168 51.2727 43.5585 50.8521 43.5585 50.3964C43.5585 49.9846 43.7857 49.5815 43.7158 49.1522C43.978 49.1084 43.8032 49.4063 43.8993 49.5465V49.5553Z" fill="url(#paint27_linear_50_2968)"/>
<defs>
<linearGradient id="paint0_linear_50_2968" x1="399.567" y1="-140.684" x2="13.4205" y2="151.013" gradientUnits="userSpaceOnUse">
<stop offset="0.01" stop-color="#BF8D3C"/>
<stop offset="0.06" stop-color="#B28B3D"/>
<stop offset="0.11" stop-color="#D6B469"/>
<stop offset="0.12" stop-color="#E1C984"/>
<stop offset="0.15" stop-color="#F3E9AD"/>
<stop offset="0.17" stop-color="#FAF6BD"/>
<stop offset="0.23" stop-color="#D0BB70"/>
<stop offset="0.26" stop-color="#C8AE63"/>
<stop offset="0.33" stop-color="#B28B3D"/>
<stop offset="0.41" stop-color="#976B28"/>
<stop offset="0.46" stop-color="#BDA162"/>
<stop offset="0.53" stop-color="#FAF6BD"/>
<stop offset="0.64" stop-color="#BDA154"/>
<stop offset="0.74" stop-color="#FAF6BD"/>
<stop offset="0.83" stop-color="#B28B3D"/>
<stop offset="0.92" stop-color="#553A14"/>
<stop offset="1" stop-color="#B28B3D"/>
</linearGradient>
<linearGradient id="paint1_linear_50_2968" x1="418.059" y1="-116.202" x2="31.9133" y2="175.495" gradientUnits="userSpaceOnUse">
<stop offset="0.01" stop-color="#BF8D3C"/>
<stop offset="0.06" stop-color="#B28B3D"/>
<stop offset="0.11" stop-color="#D6B469"/>
<stop offset="0.12" stop-color="#E1C984"/>
<stop offset="0.15" stop-color="#F3E9AD"/>
<stop offset="0.17" stop-color="#FAF6BD"/>
<stop offset="0.23" stop-color="#D0BB70"/>
<stop offset="0.26" stop-color="#C8AE63"/>
<stop offset="0.33" stop-color="#B28B3D"/>
<stop offset="0.41" stop-color="#976B28"/>
<stop offset="0.46" stop-color="#BDA162"/>
<stop offset="0.53" stop-color="#FAF6BD"/>
<stop offset="0.64" stop-color="#BDA154"/>
<stop offset="0.74" stop-color="#FAF6BD"/>
<stop offset="0.83" stop-color="#B28B3D"/>
<stop offset="0.92" stop-color="#553A14"/>
<stop offset="1" stop-color="#B28B3D"/>
</linearGradient>
<linearGradient id="paint2_linear_50_2968" x1="425.838" y1="-105.906" x2="39.692" y2="185.791" gradientUnits="userSpaceOnUse">
<stop offset="0.01" stop-color="#BF8D3C"/>
<stop offset="0.06" stop-color="#B28B3D"/>
<stop offset="0.11" stop-color="#D6B469"/>
<stop offset="0.12" stop-color="#E1C984"/>
<stop offset="0.15" stop-color="#F3E9AD"/>
<stop offset="0.17" stop-color="#FAF6BD"/>
<stop offset="0.23" stop-color="#D0BB70"/>
<stop offset="0.26" stop-color="#C8AE63"/>
<stop offset="0.33" stop-color="#B28B3D"/>
<stop offset="0.41" stop-color="#976B28"/>
<stop offset="0.46" stop-color="#BDA162"/>
<stop offset="0.53" stop-color="#FAF6BD"/>
<stop offset="0.64" stop-color="#BDA154"/>
<stop offset="0.74" stop-color="#FAF6BD"/>
<stop offset="0.83" stop-color="#B28B3D"/>
<stop offset="0.92" stop-color="#553A14"/>
<stop offset="1" stop-color="#B28B3D"/>
</linearGradient>
<linearGradient id="paint3_linear_50_2968" x1="439.41" y1="-87.9433" x2="53.2641" y2="203.754" gradientUnits="userSpaceOnUse">
<stop offset="0.01" stop-color="#BF8D3C"/>
<stop offset="0.06" stop-color="#B28B3D"/>
<stop offset="0.11" stop-color="#D6B469"/>
<stop offset="0.12" stop-color="#E1C984"/>
<stop offset="0.15" stop-color="#F3E9AD"/>
<stop offset="0.17" stop-color="#FAF6BD"/>
<stop offset="0.23" stop-color="#D0BB70"/>
<stop offset="0.26" stop-color="#C8AE63"/>
<stop offset="0.33" stop-color="#B28B3D"/>
<stop offset="0.41" stop-color="#976B28"/>
<stop offset="0.46" stop-color="#BDA162"/>
<stop offset="0.53" stop-color="#FAF6BD"/>
<stop offset="0.64" stop-color="#BDA154"/>
<stop offset="0.74" stop-color="#FAF6BD"/>
<stop offset="0.83" stop-color="#B28B3D"/>
<stop offset="0.92" stop-color="#553A14"/>
<stop offset="1" stop-color="#B28B3D"/>
</linearGradient>
<linearGradient id="paint4_linear_50_2968" x1="456.951" y1="-64.7144" x2="70.8047" y2="226.983" gradientUnits="userSpaceOnUse">
<stop offset="0.01" stop-color="#BF8D3C"/>
<stop offset="0.06" stop-color="#B28B3D"/>
<stop offset="0.11" stop-color="#D6B469"/>
<stop offset="0.12" stop-color="#E1C984"/>
<stop offset="0.15" stop-color="#F3E9AD"/>
<stop offset="0.17" stop-color="#FAF6BD"/>
<stop offset="0.23" stop-color="#D0BB70"/>
<stop offset="0.26" stop-color="#C8AE63"/>
<stop offset="0.33" stop-color="#B28B3D"/>
<stop offset="0.41" stop-color="#976B28"/>
<stop offset="0.46" stop-color="#BDA162"/>
<stop offset="0.53" stop-color="#FAF6BD"/>
<stop offset="0.64" stop-color="#BDA154"/>
<stop offset="0.74" stop-color="#FAF6BD"/>
<stop offset="0.83" stop-color="#B28B3D"/>
<stop offset="0.92" stop-color="#553A14"/>
<stop offset="1" stop-color="#B28B3D"/>
</linearGradient>
<linearGradient id="paint5_linear_50_2968" x1="466.643" y1="-51.8863" x2="80.4968" y2="239.811" gradientUnits="userSpaceOnUse">
<stop offset="0.01" stop-color="#BF8D3C"/>
<stop offset="0.06" stop-color="#B28B3D"/>
<stop offset="0.11" stop-color="#D6B469"/>
<stop offset="0.12" stop-color="#E1C984"/>
<stop offset="0.15" stop-color="#F3E9AD"/>
<stop offset="0.17" stop-color="#FAF6BD"/>
<stop offset="0.23" stop-color="#D0BB70"/>
<stop offset="0.26" stop-color="#C8AE63"/>
<stop offset="0.33" stop-color="#B28B3D"/>
<stop offset="0.41" stop-color="#976B28"/>
<stop offset="0.46" stop-color="#BDA162"/>
<stop offset="0.53" stop-color="#FAF6BD"/>
<stop offset="0.64" stop-color="#BDA154"/>
<stop offset="0.74" stop-color="#FAF6BD"/>
<stop offset="0.83" stop-color="#B28B3D"/>
<stop offset="0.92" stop-color="#553A14"/>
<stop offset="1" stop-color="#B28B3D"/>
</linearGradient>
<linearGradient id="paint6_linear_50_2968" x1="477.69" y1="-37.262" x2="91.5437" y2="254.435" gradientUnits="userSpaceOnUse">
<stop offset="0.01" stop-color="#BF8D3C"/>
<stop offset="0.06" stop-color="#B28B3D"/>
<stop offset="0.11" stop-color="#D6B469"/>
<stop offset="0.12" stop-color="#E1C984"/>
<stop offset="0.15" stop-color="#F3E9AD"/>
<stop offset="0.17" stop-color="#FAF6BD"/>
<stop offset="0.23" stop-color="#D0BB70"/>
<stop offset="0.26" stop-color="#C8AE63"/>
<stop offset="0.33" stop-color="#B28B3D"/>
<stop offset="0.41" stop-color="#976B28"/>
<stop offset="0.46" stop-color="#BDA162"/>
<stop offset="0.53" stop-color="#FAF6BD"/>
<stop offset="0.64" stop-color="#BDA154"/>
<stop offset="0.74" stop-color="#FAF6BD"/>
<stop offset="0.83" stop-color="#B28B3D"/>
<stop offset="0.92" stop-color="#553A14"/>
<stop offset="1" stop-color="#B28B3D"/>
</linearGradient>
<linearGradient id="paint7_linear_50_2968" x1="413.891" y1="-121.731" x2="27.745" y2="169.967" gradientUnits="userSpaceOnUse">
<stop offset="0.01" stop-color="#BF8D3C"/>
<stop offset="0.06" stop-color="#B28B3D"/>
<stop offset="0.11" stop-color="#D6B469"/>
<stop offset="0.12" stop-color="#E1C984"/>
<stop offset="0.15" stop-color="#F3E9AD"/>
<stop offset="0.17" stop-color="#FAF6BD"/>
<stop offset="0.23" stop-color="#D0BB70"/>
<stop offset="0.26" stop-color="#C8AE63"/>
<stop offset="0.33" stop-color="#B28B3D"/>
<stop offset="0.41" stop-color="#976B28"/>
<stop offset="0.46" stop-color="#BDA162"/>
<stop offset="0.53" stop-color="#FAF6BD"/>
<stop offset="0.64" stop-color="#BDA154"/>
<stop offset="0.74" stop-color="#FAF6BD"/>
<stop offset="0.83" stop-color="#B28B3D"/>
<stop offset="0.92" stop-color="#553A14"/>
<stop offset="1" stop-color="#B28B3D"/>
</linearGradient>
<linearGradient id="paint8_linear_50_2968" x1="419.144" y1="-114.765" x2="32.9978" y2="176.933" gradientUnits="userSpaceOnUse">
<stop offset="0.01" stop-color="#BF8D3C"/>
<stop offset="0.06" stop-color="#B28B3D"/>
<stop offset="0.11" stop-color="#D6B469"/>
<stop offset="0.12" stop-color="#E1C984"/>
<stop offset="0.15" stop-color="#F3E9AD"/>
<stop offset="0.17" stop-color="#FAF6BD"/>
<stop offset="0.23" stop-color="#D0BB70"/>
<stop offset="0.26" stop-color="#C8AE63"/>
<stop offset="0.33" stop-color="#B28B3D"/>
<stop offset="0.41" stop-color="#976B28"/>
<stop offset="0.46" stop-color="#BDA162"/>
<stop offset="0.53" stop-color="#FAF6BD"/>
<stop offset="0.64" stop-color="#BDA154"/>
<stop offset="0.74" stop-color="#FAF6BD"/>
<stop offset="0.83" stop-color="#B28B3D"/>
<stop offset="0.92" stop-color="#553A14"/>
<stop offset="1" stop-color="#B28B3D"/>
</linearGradient>
<linearGradient id="paint9_linear_50_2968" x1="422.403" y1="-110.463" x2="36.2572" y2="181.235" gradientUnits="userSpaceOnUse">
<stop offset="0.01" stop-color="#BF8D3C"/>
<stop offset="0.06" stop-color="#B28B3D"/>
<stop offset="0.11" stop-color="#D6B469"/>
<stop offset="0.12" stop-color="#E1C984"/>
<stop offset="0.15" stop-color="#F3E9AD"/>
<stop offset="0.17" stop-color="#FAF6BD"/>
<stop offset="0.23" stop-color="#D0BB70"/>
<stop offset="0.26" stop-color="#C8AE63"/>
<stop offset="0.33" stop-color="#B28B3D"/>
<stop offset="0.41" stop-color="#976B28"/>
<stop offset="0.46" stop-color="#BDA162"/>
<stop offset="0.53" stop-color="#FAF6BD"/>
<stop offset="0.64" stop-color="#BDA154"/>
<stop offset="0.74" stop-color="#FAF6BD"/>
<stop offset="0.83" stop-color="#B28B3D"/>
<stop offset="0.92" stop-color="#553A14"/>
<stop offset="1" stop-color="#B28B3D"/>
</linearGradient>
<linearGradient id="paint10_linear_50_2968" x1="429.045" y1="-101.665" x2="42.8989" y2="190.032" gradientUnits="userSpaceOnUse">
<stop offset="0.01" stop-color="#BF8D3C"/>
<stop offset="0.06" stop-color="#B28B3D"/>
<stop offset="0.11" stop-color="#D6B469"/>
<stop offset="0.12" stop-color="#E1C984"/>
<stop offset="0.15" stop-color="#F3E9AD"/>
<stop offset="0.17" stop-color="#FAF6BD"/>
<stop offset="0.23" stop-color="#D0BB70"/>
<stop offset="0.26" stop-color="#C8AE63"/>
<stop offset="0.33" stop-color="#B28B3D"/>
<stop offset="0.41" stop-color="#976B28"/>
<stop offset="0.46" stop-color="#BDA162"/>
<stop offset="0.53" stop-color="#FAF6BD"/>
<stop offset="0.64" stop-color="#BDA154"/>
<stop offset="0.74" stop-color="#FAF6BD"/>
<stop offset="0.83" stop-color="#B28B3D"/>
<stop offset="0.92" stop-color="#553A14"/>
<stop offset="1" stop-color="#B28B3D"/>
</linearGradient>
<linearGradient id="paint11_linear_50_2968" x1="433.634" y1="-95.5928" x2="47.4881" y2="196.105" gradientUnits="userSpaceOnUse">
<stop offset="0.01" stop-color="#BF8D3C"/>
<stop offset="0.06" stop-color="#B28B3D"/>
<stop offset="0.11" stop-color="#D6B469"/>
<stop offset="0.12" stop-color="#E1C984"/>
<stop offset="0.15" stop-color="#F3E9AD"/>
<stop offset="0.17" stop-color="#FAF6BD"/>
<stop offset="0.23" stop-color="#D0BB70"/>
<stop offset="0.26" stop-color="#C8AE63"/>
<stop offset="0.33" stop-color="#B28B3D"/>
<stop offset="0.41" stop-color="#976B28"/>
<stop offset="0.46" stop-color="#BDA162"/>
<stop offset="0.53" stop-color="#FAF6BD"/>
<stop offset="0.64" stop-color="#BDA154"/>
<stop offset="0.74" stop-color="#FAF6BD"/>
<stop offset="0.83" stop-color="#B28B3D"/>
<stop offset="0.92" stop-color="#553A14"/>
<stop offset="1" stop-color="#B28B3D"/>
</linearGradient>
<linearGradient id="paint12_linear_50_2968" x1="438.466" y1="-89.1875" x2="52.3204" y2="202.509" gradientUnits="userSpaceOnUse">
<stop offset="0.01" stop-color="#BF8D3C"/>
<stop offset="0.06" stop-color="#B28B3D"/>
<stop offset="0.11" stop-color="#D6B469"/>
<stop offset="0.12" stop-color="#E1C984"/>
<stop offset="0.15" stop-color="#F3E9AD"/>
<stop offset="0.17" stop-color="#FAF6BD"/>
<stop offset="0.23" stop-color="#D0BB70"/>
<stop offset="0.26" stop-color="#C8AE63"/>
<stop offset="0.33" stop-color="#B28B3D"/>
<stop offset="0.41" stop-color="#976B28"/>
<stop offset="0.46" stop-color="#BDA162"/>
<stop offset="0.53" stop-color="#FAF6BD"/>
<stop offset="0.64" stop-color="#BDA154"/>
<stop offset="0.74" stop-color="#FAF6BD"/>
<stop offset="0.83" stop-color="#B28B3D"/>
<stop offset="0.92" stop-color="#553A14"/>
<stop offset="1" stop-color="#B28B3D"/>
</linearGradient>
<linearGradient id="paint13_linear_50_2968" x1="442.879" y1="-83.343" x2="56.7337" y2="208.353" gradientUnits="userSpaceOnUse">
<stop offset="0.01" stop-color="#BF8D3C"/>
<stop offset="0.06" stop-color="#B28B3D"/>
<stop offset="0.11" stop-color="#D6B469"/>
<stop offset="0.12" stop-color="#E1C984"/>
<stop offset="0.15" stop-color="#F3E9AD"/>
<stop offset="0.17" stop-color="#FAF6BD"/>
<stop offset="0.23" stop-color="#D0BB70"/>
<stop offset="0.26" stop-color="#C8AE63"/>
<stop offset="0.33" stop-color="#B28B3D"/>
<stop offset="0.41" stop-color="#976B28"/>
<stop offset="0.46" stop-color="#BDA162"/>
<stop offset="0.53" stop-color="#FAF6BD"/>
<stop offset="0.64" stop-color="#BDA154"/>
<stop offset="0.74" stop-color="#FAF6BD"/>
<stop offset="0.83" stop-color="#B28B3D"/>
<stop offset="0.92" stop-color="#553A14"/>
<stop offset="1" stop-color="#B28B3D"/>
</linearGradient>
<linearGradient id="paint14_linear_50_2968" x1="447.408" y1="-77.3496" x2="61.2614" y2="214.348" gradientUnits="userSpaceOnUse">
<stop offset="0.01" stop-color="#BF8D3C"/>
<stop offset="0.06" stop-color="#B28B3D"/>
<stop offset="0.11" stop-color="#D6B469"/>
<stop offset="0.12" stop-color="#E1C984"/>
<stop offset="0.15" stop-color="#F3E9AD"/>
<stop offset="0.17" stop-color="#FAF6BD"/>
<stop offset="0.23" stop-color="#D0BB70"/>
<stop offset="0.26" stop-color="#C8AE63"/>
<stop offset="0.33" stop-color="#B28B3D"/>
<stop offset="0.41" stop-color="#976B28"/>
<stop offset="0.46" stop-color="#BDA162"/>
<stop offset="0.53" stop-color="#FAF6BD"/>
<stop offset="0.64" stop-color="#BDA154"/>
<stop offset="0.74" stop-color="#FAF6BD"/>
<stop offset="0.83" stop-color="#B28B3D"/>
<stop offset="0.92" stop-color="#553A14"/>
<stop offset="1" stop-color="#B28B3D"/>
</linearGradient>
<linearGradient id="paint15_linear_50_2968" x1="454.67" y1="-67.7462" x2="68.5238" y2="223.951" gradientUnits="userSpaceOnUse">
<stop offset="0.01" stop-color="#BF8D3C"/>
<stop offset="0.06" stop-color="#B28B3D"/>
<stop offset="0.11" stop-color="#D6B469"/>
<stop offset="0.12" stop-color="#E1C984"/>
<stop offset="0.15" stop-color="#F3E9AD"/>
<stop offset="0.17" stop-color="#FAF6BD"/>
<stop offset="0.23" stop-color="#D0BB70"/>
<stop offset="0.26" stop-color="#C8AE63"/>
<stop offset="0.33" stop-color="#B28B3D"/>
<stop offset="0.41" stop-color="#976B28"/>
<stop offset="0.46" stop-color="#BDA162"/>
<stop offset="0.53" stop-color="#FAF6BD"/>
<stop offset="0.64" stop-color="#BDA154"/>
<stop offset="0.74" stop-color="#FAF6BD"/>
<stop offset="0.83" stop-color="#B28B3D"/>
<stop offset="0.92" stop-color="#553A14"/>
<stop offset="1" stop-color="#B28B3D"/>
</linearGradient>
<linearGradient id="paint16_linear_50_2968" x1="459.197" y1="-61.7439" x2="73.0508" y2="229.953" gradientUnits="userSpaceOnUse">
<stop offset="0.01" stop-color="#BF8D3C"/>
<stop offset="0.06" stop-color="#B28B3D"/>
<stop offset="0.11" stop-color="#D6B469"/>
<stop offset="0.12" stop-color="#E1C984"/>
<stop offset="0.15" stop-color="#F3E9AD"/>
<stop offset="0.17" stop-color="#FAF6BD"/>
<stop offset="0.23" stop-color="#D0BB70"/>
<stop offset="0.26" stop-color="#C8AE63"/>
<stop offset="0.33" stop-color="#B28B3D"/>
<stop offset="0.41" stop-color="#976B28"/>
<stop offset="0.46" stop-color="#BDA162"/>
<stop offset="0.53" stop-color="#FAF6BD"/>
<stop offset="0.64" stop-color="#BDA154"/>
<stop offset="0.74" stop-color="#FAF6BD"/>
<stop offset="0.83" stop-color="#B28B3D"/>
<stop offset="0.92" stop-color="#553A14"/>
<stop offset="1" stop-color="#B28B3D"/>
</linearGradient>
<linearGradient id="paint17_linear_50_2968" x1="463.61" y1="-55.8994" x2="77.4645" y2="235.797" gradientUnits="userSpaceOnUse">
<stop offset="0.01" stop-color="#BF8D3C"/>
<stop offset="0.06" stop-color="#B28B3D"/>
<stop offset="0.11" stop-color="#D6B469"/>
<stop offset="0.12" stop-color="#E1C984"/>
<stop offset="0.15" stop-color="#F3E9AD"/>
<stop offset="0.17" stop-color="#FAF6BD"/>
<stop offset="0.23" stop-color="#D0BB70"/>
<stop offset="0.26" stop-color="#C8AE63"/>
<stop offset="0.33" stop-color="#B28B3D"/>
<stop offset="0.41" stop-color="#976B28"/>
<stop offset="0.46" stop-color="#BDA162"/>
<stop offset="0.53" stop-color="#FAF6BD"/>
<stop offset="0.64" stop-color="#BDA154"/>
<stop offset="0.74" stop-color="#FAF6BD"/>
<stop offset="0.83" stop-color="#B28B3D"/>
<stop offset="0.92" stop-color="#553A14"/>
<stop offset="1" stop-color="#B28B3D"/>
</linearGradient>
<linearGradient id="paint18_linear_50_2968" x1="467.683" y1="-50.5106" x2="81.537" y2="241.185" gradientUnits="userSpaceOnUse">
<stop offset="0.01" stop-color="#BF8D3C"/>
<stop offset="0.06" stop-color="#B28B3D"/>
<stop offset="0.11" stop-color="#D6B469"/>
<stop offset="0.12" stop-color="#E1C984"/>
<stop offset="0.15" stop-color="#F3E9AD"/>
<stop offset="0.17" stop-color="#FAF6BD"/>
<stop offset="0.23" stop-color="#D0BB70"/>
<stop offset="0.26" stop-color="#C8AE63"/>
<stop offset="0.33" stop-color="#B28B3D"/>
<stop offset="0.41" stop-color="#976B28"/>
<stop offset="0.46" stop-color="#BDA162"/>
<stop offset="0.53" stop-color="#FAF6BD"/>
<stop offset="0.64" stop-color="#BDA154"/>
<stop offset="0.74" stop-color="#FAF6BD"/>
<stop offset="0.83" stop-color="#B28B3D"/>
<stop offset="0.92" stop-color="#553A14"/>
<stop offset="1" stop-color="#B28B3D"/>
</linearGradient>
<linearGradient id="paint19_linear_50_2968" x1="473.818" y1="-42.3967" x2="87.6721" y2="249.301" gradientUnits="userSpaceOnUse">
<stop offset="0.01" stop-color="#BF8D3C"/>
<stop offset="0.06" stop-color="#B28B3D"/>
<stop offset="0.11" stop-color="#D6B469"/>
<stop offset="0.12" stop-color="#E1C984"/>
<stop offset="0.15" stop-color="#F3E9AD"/>
<stop offset="0.17" stop-color="#FAF6BD"/>
<stop offset="0.23" stop-color="#D0BB70"/>
<stop offset="0.26" stop-color="#C8AE63"/>
<stop offset="0.33" stop-color="#B28B3D"/>
<stop offset="0.41" stop-color="#976B28"/>
<stop offset="0.46" stop-color="#BDA162"/>
<stop offset="0.53" stop-color="#FAF6BD"/>
<stop offset="0.64" stop-color="#BDA154"/>
<stop offset="0.74" stop-color="#FAF6BD"/>
<stop offset="0.83" stop-color="#B28B3D"/>
<stop offset="0.92" stop-color="#553A14"/>
<stop offset="1" stop-color="#B28B3D"/>
</linearGradient>
<linearGradient id="paint20_linear_50_2968" x1="477.856" y1="-37.0429" x2="91.7102" y2="254.655" gradientUnits="userSpaceOnUse">
<stop offset="0.01" stop-color="#BF8D3C"/>
<stop offset="0.06" stop-color="#B28B3D"/>
<stop offset="0.11" stop-color="#D6B469"/>
<stop offset="0.12" stop-color="#E1C984"/>
<stop offset="0.15" stop-color="#F3E9AD"/>
<stop offset="0.17" stop-color="#FAF6BD"/>
<stop offset="0.23" stop-color="#D0BB70"/>
<stop offset="0.26" stop-color="#C8AE63"/>
<stop offset="0.33" stop-color="#B28B3D"/>
<stop offset="0.41" stop-color="#976B28"/>
<stop offset="0.46" stop-color="#BDA162"/>
<stop offset="0.53" stop-color="#FAF6BD"/>
<stop offset="0.64" stop-color="#BDA154"/>
<stop offset="0.74" stop-color="#FAF6BD"/>
<stop offset="0.83" stop-color="#B28B3D"/>
<stop offset="0.92" stop-color="#553A14"/>
<stop offset="1" stop-color="#B28B3D"/>
</linearGradient>
<linearGradient id="paint21_linear_50_2968" x1="483.397" y1="-29.7176" x2="97.251" y2="261.979" gradientUnits="userSpaceOnUse">
<stop offset="0.01" stop-color="#BF8D3C"/>
<stop offset="0.06" stop-color="#B28B3D"/>
<stop offset="0.11" stop-color="#D6B469"/>
<stop offset="0.12" stop-color="#E1C984"/>
<stop offset="0.15" stop-color="#F3E9AD"/>
<stop offset="0.17" stop-color="#FAF6BD"/>
<stop offset="0.23" stop-color="#D0BB70"/>
<stop offset="0.26" stop-color="#C8AE63"/>
<stop offset="0.33" stop-color="#B28B3D"/>
<stop offset="0.41" stop-color="#976B28"/>
<stop offset="0.46" stop-color="#BDA162"/>
<stop offset="0.53" stop-color="#FAF6BD"/>
<stop offset="0.64" stop-color="#BDA154"/>
<stop offset="0.74" stop-color="#FAF6BD"/>
<stop offset="0.83" stop-color="#B28B3D"/>
<stop offset="0.92" stop-color="#553A14"/>
<stop offset="1" stop-color="#B28B3D"/>
</linearGradient>
<linearGradient id="paint22_linear_50_2968" x1="489.13" y1="-22.1119" x2="102.984" y2="269.585" gradientUnits="userSpaceOnUse">
<stop offset="0.01" stop-color="#BF8D3C"/>
<stop offset="0.06" stop-color="#B28B3D"/>
<stop offset="0.11" stop-color="#D6B469"/>
<stop offset="0.12" stop-color="#E1C984"/>
<stop offset="0.15" stop-color="#F3E9AD"/>
<stop offset="0.17" stop-color="#FAF6BD"/>
<stop offset="0.23" stop-color="#D0BB70"/>
<stop offset="0.26" stop-color="#C8AE63"/>
<stop offset="0.33" stop-color="#B28B3D"/>
<stop offset="0.41" stop-color="#976B28"/>
<stop offset="0.46" stop-color="#BDA162"/>
<stop offset="0.53" stop-color="#FAF6BD"/>
<stop offset="0.64" stop-color="#BDA154"/>
<stop offset="0.74" stop-color="#FAF6BD"/>
<stop offset="0.83" stop-color="#B28B3D"/>
<stop offset="0.92" stop-color="#553A14"/>
<stop offset="1" stop-color="#B28B3D"/>
</linearGradient>
<linearGradient id="paint23_linear_50_2968" x1="493.719" y1="-16.0483" x2="107.573" y2="275.649" gradientUnits="userSpaceOnUse">
<stop offset="0.01" stop-color="#BF8D3C"/>
<stop offset="0.06" stop-color="#B28B3D"/>
<stop offset="0.11" stop-color="#D6B469"/>
<stop offset="0.12" stop-color="#E1C984"/>
<stop offset="0.15" stop-color="#F3E9AD"/>
<stop offset="0.17" stop-color="#FAF6BD"/>
<stop offset="0.23" stop-color="#D0BB70"/>
<stop offset="0.26" stop-color="#C8AE63"/>
<stop offset="0.33" stop-color="#B28B3D"/>
<stop offset="0.41" stop-color="#976B28"/>
<stop offset="0.46" stop-color="#BDA162"/>
<stop offset="0.53" stop-color="#FAF6BD"/>
<stop offset="0.64" stop-color="#BDA154"/>
<stop offset="0.74" stop-color="#FAF6BD"/>
<stop offset="0.83" stop-color="#B28B3D"/>
<stop offset="0.92" stop-color="#553A14"/>
<stop offset="1" stop-color="#B28B3D"/>
</linearGradient>
<linearGradient id="paint24_linear_50_2968" x1="498.106" y1="-10.2389" x2="111.96" y2="281.457" gradientUnits="userSpaceOnUse">
<stop offset="0.01" stop-color="#BF8D3C"/>
<stop offset="0.06" stop-color="#B28B3D"/>
<stop offset="0.11" stop-color="#D6B469"/>
<stop offset="0.12" stop-color="#E1C984"/>
<stop offset="0.15" stop-color="#F3E9AD"/>
<stop offset="0.17" stop-color="#FAF6BD"/>
<stop offset="0.23" stop-color="#D0BB70"/>
<stop offset="0.26" stop-color="#C8AE63"/>
<stop offset="0.33" stop-color="#B28B3D"/>
<stop offset="0.41" stop-color="#976B28"/>
<stop offset="0.46" stop-color="#BDA162"/>
<stop offset="0.53" stop-color="#FAF6BD"/>
<stop offset="0.64" stop-color="#BDA154"/>
<stop offset="0.74" stop-color="#FAF6BD"/>
<stop offset="0.83" stop-color="#B28B3D"/>
<stop offset="0.92" stop-color="#553A14"/>
<stop offset="1" stop-color="#B28B3D"/>
</linearGradient>
<linearGradient id="paint25_linear_50_2968" x1="386.177" y1="-158.401" x2="0.0312002" y2="133.296" gradientUnits="userSpaceOnUse">
<stop offset="0.01" stop-color="#BF8D3C"/>
<stop offset="0.06" stop-color="#B28B3D"/>
<stop offset="0.11" stop-color="#D6B469"/>
<stop offset="0.12" stop-color="#E1C984"/>
<stop offset="0.15" stop-color="#F3E9AD"/>
<stop offset="0.17" stop-color="#FAF6BD"/>
<stop offset="0.23" stop-color="#D0BB70"/>
<stop offset="0.26" stop-color="#C8AE63"/>
<stop offset="0.33" stop-color="#B28B3D"/>
<stop offset="0.41" stop-color="#976B28"/>
<stop offset="0.46" stop-color="#BDA162"/>
<stop offset="0.53" stop-color="#FAF6BD"/>
<stop offset="0.64" stop-color="#BDA154"/>
<stop offset="0.74" stop-color="#FAF6BD"/>
<stop offset="0.83" stop-color="#B28B3D"/>
<stop offset="0.92" stop-color="#553A14"/>
<stop offset="1" stop-color="#B28B3D"/>
</linearGradient>
<linearGradient id="paint26_linear_50_2968" x1="349.742" y1="-206.647" x2="-36.404" y2="85.0504" gradientUnits="userSpaceOnUse">
<stop offset="0.01" stop-color="#BF8D3C"/>
<stop offset="0.06" stop-color="#B28B3D"/>
<stop offset="0.11" stop-color="#D6B469"/>
<stop offset="0.12" stop-color="#E1C984"/>
<stop offset="0.15" stop-color="#F3E9AD"/>
<stop offset="0.17" stop-color="#FAF6BD"/>
<stop offset="0.23" stop-color="#D0BB70"/>
<stop offset="0.26" stop-color="#C8AE63"/>
<stop offset="0.33" stop-color="#B28B3D"/>
<stop offset="0.41" stop-color="#976B28"/>
<stop offset="0.46" stop-color="#BDA162"/>
<stop offset="0.53" stop-color="#FAF6BD"/>
<stop offset="0.64" stop-color="#BDA154"/>
<stop offset="0.74" stop-color="#FAF6BD"/>
<stop offset="0.83" stop-color="#B28B3D"/>
<stop offset="0.92" stop-color="#553A14"/>
<stop offset="1" stop-color="#B28B3D"/>
</linearGradient>
<linearGradient id="paint27_linear_50_2968" x1="372.64" y1="-176.329" x2="-13.506" y2="115.368" gradientUnits="userSpaceOnUse">
<stop offset="0.01" stop-color="#BF8D3C"/>
<stop offset="0.06" stop-color="#B28B3D"/>
<stop offset="0.11" stop-color="#D6B469"/>
<stop offset="0.12" stop-color="#E1C984"/>
<stop offset="0.15" stop-color="#F3E9AD"/>
<stop offset="0.17" stop-color="#FAF6BD"/>
<stop offset="0.23" stop-color="#D0BB70"/>
<stop offset="0.26" stop-color="#C8AE63"/>
<stop offset="0.33" stop-color="#B28B3D"/>
<stop offset="0.41" stop-color="#976B28"/>
<stop offset="0.46" stop-color="#BDA162"/>
<stop offset="0.53" stop-color="#FAF6BD"/>
<stop offset="0.64" stop-color="#BDA154"/>
<stop offset="0.74" stop-color="#FAF6BD"/>
<stop offset="0.83" stop-color="#B28B3D"/>
<stop offset="0.92" stop-color="#553A14"/>
<stop offset="1" stop-color="#B28B3D"/>
</linearGradient>
</defs>
</svg>
