<svg width="284" height="331" viewBox="0 0 284 331" fill="none" xmlns="http://www.w3.org/2000/svg">
<path d="M175.761 239.878C175.346 238.98 174.366 238.348 173.712 237.602C173.021 236.806 172.556 235.87 171.751 235.163C170.343 233.911 168.52 233.608 168.344 231.282C168.508 231.105 168.885 231.219 169.086 231.282C169.891 231.585 171.713 232.9 172.53 233.443C173.297 233.949 174.039 235.061 174.969 234.518C175.51 231.535 175.56 228.336 176.088 225.378C176.213 224.645 176.767 222.18 177.031 221.611C177.42 220.764 178.413 220.436 178.476 219.247C178.501 218.653 178.237 218.489 178.2 218.16C178.137 217.705 178.715 216.884 177.797 216.884C177.269 216.884 177.119 217.377 176.578 217.061C175.195 216.239 175.12 213.079 175.296 211.638C175.346 211.182 175.623 210.904 175.623 210.424C175.623 209.653 174.982 209.21 174.982 208.439C174.982 207.82 175.459 206.922 175.459 206.151C175.459 204.849 175.07 203.219 174.994 201.891C174.743 197.164 175.057 192.448 174.994 187.746C174.982 186.305 174.265 185.85 174.114 184.978C173.863 183.574 174.63 181.893 172.48 181.602C170.695 181.362 170.67 182.272 169.526 183.17C167.075 185.117 163.48 186.128 160.84 187.822C159.633 188.593 158.565 189.731 157.434 190.628C156.893 191.058 156.214 191.108 156.101 191.867C155.711 194.269 155.799 193.485 154.429 195.204C152.82 197.227 153.398 198.402 153.059 200.665C152.959 201.335 152.305 202.119 152.192 202.688C152.129 203.029 152.229 203.787 152.141 203.927C152.091 204.002 151.35 204.116 151.111 204.331C150.746 204.647 150.658 205.481 150.206 205.861C149.816 206.189 149.263 206.189 148.835 206.606C148.446 206.986 148.144 207.656 148.232 208.199C147.717 208.174 147.176 208.25 146.648 208.199C146.422 208.174 146.271 207.921 146.045 207.921C145.881 207.921 145.567 208.111 145.504 208.06C145.203 207.795 145.127 203.724 145.052 202.966C144.838 201.057 144.222 199.54 144.461 197.505C144.587 196.405 145.492 195.116 144.838 194.054C143.996 193.384 140.25 195.204 139.119 195.482C137.145 195.963 132.482 195.899 130.583 195.166C129.653 194.812 129.012 193.953 129.025 192.929L129.49 192.853L129.339 191.791L130.081 191.943C130.609 191.159 130.219 190.615 130.231 189.895C130.257 188.34 131.526 189.086 132.13 188.593C132.293 188.454 132.444 187.973 132.658 187.759C133.16 187.228 133.927 186.798 134.392 186.153C134.568 185.9 135.511 183.992 135.385 183.878C132.507 183.739 129.704 183.322 127.768 180.97C127.403 180.528 126.486 178.619 126.322 180.452C126.134 182.437 126.435 184.447 126.146 186.52C125.87 188.542 124.826 190.097 124.801 192.094L125.857 191.639V195.217C125.857 195.356 125.518 195.659 125.631 195.912L126.574 197.05L125.882 198.402C126.85 199.249 125.932 200.387 126.008 201.461C126.058 202.182 126.536 203.054 126.611 203.901C126.775 205.823 126.674 207.908 126.762 209.83C126.8 210.525 127.391 211.258 126.662 211.878C124.952 211.069 125.354 212.573 124.701 213.546C124.349 214.09 123.682 214.242 123.356 214.633C122.978 215.076 123.041 215.708 122.802 216.062C122.564 216.416 122.149 216.302 121.948 216.492C121.671 216.745 121.608 217.806 121.219 217.958C120.779 218.135 120.666 217.465 120.552 217.124C120.251 216.15 120.326 214.482 119.987 213.749C119.685 213.104 118.943 213.129 118.617 211.625C117.976 208.566 117.498 203.889 117.221 200.703C117.096 199.249 117.259 197.303 117.058 196.001C116.92 195.09 116.128 195.204 115.549 195.672C115.147 196.001 114.871 197.164 114.431 197.745C113.136 199.439 110.66 200.728 109.051 202.22C107.894 203.294 107.542 204.205 105.933 205.026C104.915 205.545 103.004 205.936 102.187 206.581C101.798 206.885 101.76 207.403 101.408 207.782C100.729 208.503 97.2095 210.664 96.1913 211.208C94.9091 211.89 93.4887 212.32 92.0431 212.497L86.9647 210.601C87.8321 209.135 89.0388 209.729 90.145 209.387C90.7609 209.198 91.578 208.237 92.2191 207.972C92.6465 207.795 93.3127 207.833 93.5515 207.643C93.6772 207.542 93.9538 206.897 94.2932 206.556C94.8588 205.987 95.789 205.532 96.3421 204.963C97.2095 204.053 97.6746 202.624 98.5294 201.689C98.8436 201.348 99.2458 201.171 99.5224 200.867C100.541 199.717 102.036 197.657 103.155 196.759C103.583 196.418 104.425 196.342 104.953 196.203C105.053 195.71 104.676 195.255 104.953 194.8C105.041 194.648 106.348 193.713 106.7 193.321C108.938 190.894 111.502 186.608 113.149 183.688C114.305 181.64 114.556 180.541 115.386 178.48C115.851 177.317 116.794 176.559 116.442 175.054C112.042 175.396 110.71 180.199 107.266 182.032C105.418 183.006 103.067 183.562 101.119 182.487C100.629 182.209 100.603 181.666 100.214 181.4C99.7361 181.084 99.1327 181.236 98.8813 180.932C98.6299 180.629 98.5922 179.618 98.4036 179.137C98.0768 178.328 96.8701 177.658 97.0712 176.849C97.1215 176.647 97.6117 176.748 97.5112 176.243C97.3729 175.497 96.4301 175.383 96.3421 175.13C96.2038 174.751 96.3798 173.891 96.2918 173.36C96.141 172.488 95.3742 171.945 95.1228 171.186C94.8085 170.238 95.0977 169.353 94.9594 168.468C94.9217 168.216 94.6703 168.039 94.6451 167.697C94.5697 166.623 95.9776 165.548 95.5628 164.575C96.2039 164.828 96.4175 164.006 96.581 163.968C97.2975 163.791 98.2528 164.221 98.9693 164.272C102.577 164.562 111.866 161.617 115.373 160.087C116.957 159.405 116.769 158.747 116.731 157.117H117.485C117.724 156.295 117.033 156.523 116.907 156.333C116.819 156.207 116.819 155.397 116.731 155.145C117.108 155.145 117.774 154.955 117.636 154.462C117.523 154.045 116.48 154.437 116.316 153.666C116.103 152.616 116.53 151.011 116.417 149.76C116.367 149.203 115.361 144.311 115.197 144.058C115.147 143.983 114.783 143.932 114.632 143.793C112.885 142.339 112.017 139.685 112.57 137.472C112.922 136.095 114.066 136.145 114.192 134.78L114.355 134.691C114.632 134.565 117.334 134.868 117.774 134.995C118.403 135.184 119.321 136.107 120.062 136.499C122.438 137.751 125.04 138.117 127.177 139.988C128.007 140.721 129.603 142.377 129.829 143.401C130.056 144.45 130.206 146.7 129.578 147.573C129.264 148.002 128.912 148.015 128.56 148.672C128.333 149.102 127.629 151.302 127.629 151.694V154.058C128.798 154.386 130.156 152.983 131.174 153.135C131.589 153.198 131.627 153.767 132.016 153.969C132.834 154.399 133.223 154.247 134.053 155.119C135.901 157.066 136.127 159.316 135.033 161.743L135.486 162.578C134.355 162.603 134.945 163.88 135.486 164.398C134.355 164.992 134.908 164.309 134.317 164.12C133.437 163.842 131.853 164.777 131.853 165.763H132.607C132.482 166.686 131.3 166.193 130.671 166.484C130.307 166.648 130.018 167.419 129.565 167.659C129.088 167.899 128.434 167.798 127.981 168.203C127.24 168.848 127.303 170.782 127.303 171.704C127.818 171.73 128.245 171.072 128.723 171.098C128.886 171.098 130.961 171.818 131.225 171.945C132.783 172.653 133.047 174.018 134.04 175.042C134.241 175.244 134.794 175.497 134.82 175.547C134.92 175.737 134.782 176.091 134.92 176.293C134.983 176.382 135.901 176.546 136.265 176.761C136.781 177.077 137.422 177.848 137.648 178.404C137.899 178.998 137.547 179.175 138.465 179.567L138.327 181.223C138.742 181.527 139.006 180.894 139.332 180.718C139.785 180.465 140.325 180.553 140.753 180.174C141.796 179.226 144.423 175.042 145.291 173.626C145.768 172.855 146.321 172.046 146.673 171.211C146.849 170.807 147.604 169.088 146.875 169.012L146.045 169.429C145.479 168.848 146.787 164.866 147.063 163.993C147.679 161.996 148.308 159.86 149.527 158.254C150.067 157.546 149.527 156.965 149.741 156.181C149.979 155.372 151.224 154.677 151.425 154.07C151.626 153.463 151.136 152.831 151.412 152.389C151.551 152.174 151.978 152.174 152.066 152.06C152.305 151.732 151.991 151.074 152.946 150.872C153.109 150.619 152.556 149.772 152.72 149.304C152.795 149.09 153.134 149.026 153.285 148.799C153.788 148.091 153.788 146.637 154.706 146.119C155.058 145.917 155.711 145.879 155.975 145.651C156.227 145.436 156.579 144.349 156.73 144.324C159.319 144.589 161.23 141.808 163.668 144.021C164.423 144.703 165.956 146.928 165.994 147.914C166.082 149.76 164.649 150.859 164.058 152.338C163.857 152.857 163.832 153.514 163.656 153.906C163.417 154.411 162.7 154.551 162.374 154.904C162.034 155.271 161.871 156.067 161.594 156.548C161.318 157.016 160.752 157.913 160.111 157.799C160.564 157.079 161.393 156.725 161.167 155.751C159.797 156.004 159.596 157.812 158.816 158.785C158.414 159.291 157.848 159.392 157.773 160.176H157.245V160.934C156.277 160.719 156.39 161.174 155.963 161.541C154.278 162.969 152.933 164.752 151.35 166.029C150.256 166.913 148.396 167.128 148.961 169.037C149.112 169.568 151.249 170.643 151.789 171.06C152.72 171.78 154.97 174.068 155.51 175.08C155.787 175.585 155.875 176.672 156.566 176.761C156.943 176.811 158.665 176.42 159.055 176.23C159.457 176.04 159.646 175.712 160.01 175.509C161.117 174.903 162.311 175.004 163.455 174.106C163.656 173.942 163.681 173.626 163.932 173.525C164.611 173.221 166.182 172.969 167.037 172.703C168.772 172.16 173.41 170.984 174.554 169.922C175.497 169.05 174.868 168.127 174.931 166.964C175.019 165.536 175.811 163.361 175.497 161.971C175.422 161.642 175.057 161.288 174.919 160.884C174.34 159.253 174.542 153.779 175.12 152.086C175.308 151.529 175.673 151.39 175.698 150.682C175.723 149.785 175.195 149.418 175.095 148.685C174.944 147.636 175.472 144.337 174.428 143.856C173.938 143.629 173.737 144.374 173.259 144.362C173.373 143.212 173.008 142.086 173.096 140.936C173.146 140.203 173.574 139.407 173.373 138.686C173.322 138.522 172.442 137.447 172.279 137.359C171.864 137.119 171.298 137.22 170.884 136.866C170.544 136.588 170.004 135.437 169.803 134.995C169.199 133.642 167.842 129.799 167.578 128.409C167.326 127.094 167.967 125.577 168.684 124.49C169.212 123.694 169.979 123.883 170.783 123.567C171.261 123.378 171.625 123.024 172.153 122.821C173.058 122.468 176.842 121.519 177.697 121.557C178.853 121.608 178.577 122.67 178.69 122.784C178.728 122.821 179.381 122.796 179.695 122.91C181.04 123.352 183.894 126.513 184.485 127.827C185.251 129.547 184.912 131.127 185.025 132.909C185.075 133.604 185.629 134.161 185.025 134.894C185.578 135.007 185.151 135.564 185.163 136.107C185.176 136.714 185.365 137.258 185.327 137.864C185.201 137.991 184.359 137.612 184.422 138.092C184.522 138.85 185.163 138.737 185.189 138.863C185.239 139.141 185.05 139.482 185.075 139.748C185.101 140.051 185.339 140.342 185.339 140.683C185.339 141.277 184.296 141.808 183.994 142.529C182.976 145.082 183.668 147.699 183.517 150.265C183.454 151.453 183.052 152.705 183.19 153.918C183.228 154.285 183.994 154.272 183.969 155.271C183.944 156.156 183.089 156.801 183.089 157.066C183.089 157.205 183.228 158.355 183.265 158.545C183.404 159.266 184.032 159.481 183.203 160.214L183.668 160.302C183.58 160.858 183.932 161.465 183.944 161.971C183.944 162.401 183.743 162.767 183.818 163.311C183.894 163.804 184.384 164.272 184.409 164.701C184.434 165.068 184.145 165.472 184.284 165.89C184.472 166.458 185.855 165.965 186.282 165.991C186.697 166.016 187.049 166.332 187.401 166.408C191.436 167.204 195.999 167.305 196.489 172.627C196.527 172.994 196.653 174.056 196.263 174.182C195.056 174.536 194.051 173.575 193.045 173.36C192.467 173.234 190.896 173.044 190.418 173.323C190.217 173.436 190.192 173.714 190.066 173.752C189.576 173.879 188.935 173.55 188.319 173.626C187.992 173.676 185.729 174.561 185.49 174.738C185.339 174.852 184.648 176.217 184.61 176.432L184.346 194.585L183.969 194.812C183.969 194.913 184.258 194.901 184.397 195.141C184.887 196.001 184.434 198.895 184.409 199.982C184.372 202.789 184.46 205.582 184.573 208.364C184.61 209.4 183.881 210.108 185.779 209.956C185.704 210.74 185.465 211.865 185.465 212.624C185.465 214.052 186.144 215.796 185.918 217.174C185.817 217.832 184.937 218.363 184.899 219.033C184.874 219.576 185.805 220.448 185.855 221.042C185.893 221.447 185.415 221.675 185.465 221.889C185.49 222.016 185.792 222.054 185.88 222.168C186.257 222.661 185.629 223.47 185.616 224.026C185.591 224.645 186.018 225.1 185.918 225.833C185.817 226.567 184.724 228.159 184.422 229.209C183.856 231.168 183.718 233.317 183.479 235.34L181.983 235.58C181.581 236.793 181.342 238.108 179.721 237.716C179.369 236.667 178.501 235.668 178.25 234.632C178.112 234.075 178.124 233.355 177.986 232.761C177.797 231.926 177.194 231.206 177.445 230.182C175.019 230.245 176.188 233.633 175.949 235.264L176.075 235.441C176.327 235.567 176.754 235.516 176.955 235.706C177.031 235.782 177.848 237.489 177.86 237.59C177.91 238.095 177.169 239.321 177.144 239.928H175.635L175.761 239.878ZM184.372 137.017C184.46 136.626 184.937 135.703 184.548 135.412C183.278 135.071 183.001 137.106 184.372 137.017ZM173.775 172.45L173.8 171.401L172.053 172.033L171.877 172.387C172.304 173.108 173.184 172.64 173.787 172.438L173.775 172.45ZM171.223 172.627C170.23 172.4 169.514 173.095 168.659 173.323C167.213 173.702 166.182 173.436 165.328 175.143C165.491 175.358 165.554 175.383 165.818 175.345C166.346 175.269 167.226 174.397 167.817 174.144C168.835 173.727 170.117 173.752 171.135 173.247L171.236 172.627H171.223ZM145.617 175.99C144.951 176.053 143.996 177.974 143.619 178.543C143.418 178.847 142.312 179.732 142.94 180.161C143.229 180.364 145.731 180.199 146.158 180.048C147.189 179.668 146.145 178.012 146.007 177.38C145.919 176.988 146.158 175.939 145.617 175.99ZM181.958 231.964L181.216 232.344L181.732 233.481C182.059 233.481 181.945 232.217 181.958 231.964Z" fill="url(#paint0_linear_54_2332)"/>
<path d="M147.553 7.95049C148.647 7.7368 148.408 8.42816 148.823 8.88069C149.426 9.54691 151.136 10.012 151.94 10.5777C154.643 12.5009 155.598 16.0583 156.818 18.8866C156.994 19.2889 157.484 19.5528 157.572 20.0305C157.635 20.3573 157.346 22.356 157.195 22.7205C156.893 23.4999 155.561 24.4929 155.121 25.2472C154.291 26.6676 153.524 32.7893 153.424 34.6371C153.135 39.9418 154.769 37.9934 158.339 37.6666C160.325 37.4906 162.562 37.6666 164.574 37.4151C165.818 36.3467 164.812 35.0268 164.297 33.8955C166.308 33.5938 167.641 35.3662 169.312 36.0827C170.783 36.7112 172.417 36.7866 173.913 37.3397C178.464 39.0241 182.7 44.6179 182.712 49.47C182.712 50.7899 181.958 50.815 181.217 51.5567C180.337 52.4366 180.249 53.5051 178.514 52.7131C178.187 53.5051 179.243 53.945 179.318 54.3096C179.507 55.3026 177.496 55.7803 177.672 54.385L175.371 55.2272L175.246 54.5735C173.762 54.2467 172.216 54.0582 170.695 54.1964C169.803 54.2844 168.91 54.7244 168.169 54.7998C167.088 54.9255 166.095 54.4353 165.039 54.5987C164.46 54.6867 163.794 55.1643 163.053 55.3277C160.011 55.9814 156.742 55.9688 153.914 57.4773C152.858 58.0429 152.406 59.0737 151.123 58.86C150.658 60.7078 149.137 62.4048 148.71 64.2023C148.471 65.2205 148.546 66.5278 148.32 67.5712C147.981 69.1173 147.553 68.5768 147.591 70.3995C147.616 71.5811 146.485 72.2976 146.208 73.2026C146.032 73.7934 146.158 74.2837 145.882 74.975C145.58 75.7418 144.725 76.4583 144.335 77.4011C143.908 78.4444 143.757 79.6637 143.506 80.7574L142.349 80.9585L142.563 82.3035C141.62 82.668 141.935 83.4851 141.658 84.1387C141.168 85.2826 140.124 87.1179 139.521 88.0732C139.383 88.2869 139.672 88.6515 139.433 88.8023C139.131 89.0034 138.503 88.9029 138.214 89.1668C138.013 89.3554 137.17 91.4798 137.321 91.6306L138.163 91.7312C137.837 92.5482 137.12 92.586 136.479 93.0259C136.316 95.1503 135.938 94.9492 134.179 95.6908C134.103 98.0289 130.848 100.467 128.811 101.197C128.007 101.486 124.336 102.391 123.695 102.265C123.079 102.139 122.865 101.461 122.074 101.549C120.98 101.662 115.839 104.176 115.185 103.56L115.6 102.303L113.827 101.888L113.614 102.315L114.117 102.542L113.928 103.359C113.211 103.17 112.269 102.969 111.54 102.931C109.327 102.818 106.989 103.371 104.84 103.384C103.784 103.384 102.564 102.931 101.496 102.931C99.6733 102.931 97.8129 103.547 95.8394 103.371C93.0111 103.12 89.2777 99.6756 88.2218 97.0861C91.2261 100.405 95.1858 101.41 99.5602 100.581C103.935 99.751 110.32 95.5274 114.129 92.9882C122.237 87.583 123.72 81.8887 127.491 73.5043C127.956 72.4736 129.012 71.6188 128.786 70.2989C123.695 71.9582 116.656 70.2863 113.978 65.3462C113.199 63.9007 113.576 63.2973 113.224 62.1282C113.073 61.6506 112.533 61.374 112.306 60.9592C109.101 55.202 111.69 47.597 109.994 41.4502C113.702 39.8161 115.449 43.1597 117.825 44.9824C118.265 45.3218 118.68 45.6864 119.283 45.6361C124.198 44.5425 129.628 43.9642 134.292 42.0033C136.026 41.2742 136.605 40.9725 137.258 39.1121C138.578 35.3536 137.045 32.7516 136.944 29.1942C136.856 26.0014 137.95 20.3573 136.441 17.5667C135.813 16.4103 134.568 15.9954 134.053 15.1407C133.362 13.9968 133.173 11.9981 132.595 10.7411C132.205 9.88631 131.086 8.94354 131.099 8.08876C131.112 7.57338 131.501 6.97001 131.501 6.39178C131.501 6.03981 131.288 5.68785 131.288 5.33588C131.288 2.48244 137.874 0.119229 140.187 0.00609658C142.312 -0.107036 142.475 1.37625 143.619 2.63328C143.983 3.03553 144.511 3.24922 144.889 3.66404C145.303 4.11657 145.278 4.88335 146.032 5.02162C146.648 5.13476 147.591 4.78279 148.044 5.32331C148.609 6.0021 147.39 7.13343 147.604 7.95049H147.553Z" fill="url(#paint1_linear_54_2332)"/>
<path d="M151.362 71.0912C151.475 71.2672 153.7 72.4613 154.103 72.6499C158.955 74.9251 164.46 76.4335 169.225 79.0607C170.595 79.8149 171.286 80.8457 172.141 81.3736C173.612 82.2661 176.226 82.8318 178.263 84.0385C182.197 86.3766 189.865 91.9955 191.499 96.3197C191.901 97.3881 191.512 98.6326 192.04 99.965C192.769 101.813 195.056 102.831 194.29 105.27C194.076 105.948 193.422 105.999 193.171 106.451C192.932 106.879 192.995 107.495 192.806 107.96C192.655 108.312 191.562 109.606 191.248 109.757C190.468 110.122 186.672 109.229 185.742 108.777C184.233 108.048 182.75 106.124 181.154 105.634C180.224 105.345 179.369 105.634 178.552 105.307C177.395 104.842 175.195 102.152 174.114 101.172C166.321 94.145 159.281 88.3501 153.072 79.7521C152.607 79.111 151.928 78.7088 151.513 77.9545C150.985 76.9992 151.01 75.9559 150.47 75.0131C150.47 74.548 151.186 74.3092 151.287 73.9321C151.387 73.555 150.872 72.9516 150.872 72.2979C150.872 71.7071 151.199 71.1289 151.098 70.513C151.475 70.4501 151.224 70.8775 151.362 71.0786V71.0912Z" fill="url(#paint2_linear_54_2332)"/>
<path d="M0.778775 279.136C0.778775 270.195 0.471254 265.637 0.163739 264.066C0.727516 264.118 2.20359 264.169 3.4849 264.169C4.86872 264.169 7.88235 264.015 11.757 263.964C19.4244 264.015 26.4152 265.113 31.274 270.133C33.8264 272.802 36.1225 277.145 36.1225 283.366C36.1225 289.905 33.5188 294.874 30.6077 297.913C27.9016 300.684 23.2478 304.031 14.1044 304.031C11.9621 304.031 9.86071 303.928 8.12837 303.774C5.37099 303.569 3.3824 303.251 0.358501 303.456C0.512259 301.156 0.768515 296.445 0.768515 288.601V279.136H0.778775ZM7.21608 286.199C7.21608 291.743 7.26732 294.73 7.31858 295.983C7.36983 297.553 7.42109 298.436 7.67735 298.703C8.34363 299.278 11.1523 299.955 14.6784 299.955C18.4609 299.955 22.0895 299.114 24.8982 296.445C27.6043 293.878 29.1931 289.587 29.1931 284.721C29.1931 280.697 28.4243 276.929 25.9745 273.634C22.8583 269.548 17.5486 267.824 11.7775 267.824C9.94271 267.824 8.25138 268.029 7.53384 268.244C7.38009 268.347 7.32884 268.45 7.32884 268.614C7.22633 269.661 7.22633 273.737 7.22633 278.716V286.199H7.21608Z" fill="url(#paint3_linear_54_2332)"/>
<path d="M55.6907 291.897C55.537 291.897 55.4857 291.948 55.4345 292.051C53.9994 296.024 52.2671 301.105 51.652 303.507C50.9857 303.456 50.2682 303.405 48.7409 303.405C47.1008 303.405 45.5222 303.507 44.9585 303.61C46.3423 300.838 48.4334 296.178 50.9858 290.162L61.2055 265.781C62.0768 263.841 62.333 263.266 62.6918 263.266C62.9993 263.266 63.3581 263.738 64.2294 265.781C64.8957 267.3 70.0516 278.962 74.5004 289.433C76.899 294.977 79.7589 301.311 81.2452 303.507C79.9229 303.456 78.5903 303.405 77.924 303.405C76.0892 303.405 73.9879 303.507 73.1781 303.61C72.3068 301.208 70.0107 295.449 68.5858 292.051C68.5346 291.948 68.5346 291.897 68.3808 291.897H55.7112H55.6907ZM66.7715 287.606C66.9253 287.606 66.9765 287.554 66.9253 287.4L61.8205 274.425L56.972 287.4C56.9208 287.554 56.9208 287.606 57.0745 287.606H66.7817H66.7715Z" fill="url(#paint4_linear_54_2332)"/>
<path d="M93.1768 279.188C93.1768 271.704 93.023 265.74 92.613 264.066C93.1768 264.169 94.6528 264.169 95.6779 264.169C97.9227 264.169 99.5628 264.066 100.075 263.964C99.8703 265.955 99.6141 271.755 99.6141 279.188V288.396C99.6141 294.679 99.8191 301.947 100.178 303.518C99.6141 303.466 98.343 303.415 97.0105 303.415C95.4729 303.415 93.3818 303.518 92.7155 303.62C92.9718 301.526 93.1768 295.089 93.1768 288.396V279.188Z" fill="url(#paint5_linear_54_2332)"/>
<path d="M120.043 272.176C120.351 269.25 120.658 266.581 121.017 264.117C121.12 263.44 121.222 263.275 121.427 263.275C121.632 263.275 121.837 263.645 122.145 264.169C123.221 265.791 125.363 269.866 126.942 272.535L138.023 292.677L147.269 275.625C150.59 270.133 151.963 267.567 153.398 264.795C154.167 263.542 154.423 263.275 154.68 263.275C154.936 263.275 155.038 263.481 155.192 264.846C155.5 267.413 155.756 270.236 156.064 273.007C157.345 285.203 158.975 300.212 159.846 303.507C159.333 303.456 158.36 303.404 156.679 303.404C154.895 303.404 153.152 303.456 152.281 303.61C152.281 299.637 151.154 286.394 150.651 277.925C146.459 286.137 141.098 295.767 137.52 303.404C137.213 304.133 137.008 304.082 136.7 303.456C132.662 294.719 127.557 285.408 124.082 277.976C123.518 286.661 122.503 299.688 122.503 303.507C121.735 303.404 120.361 303.404 119.746 303.404C117.962 303.404 116.63 303.507 115.912 303.61C116.681 300.263 118.618 284.413 120.054 272.166L120.043 272.176Z" fill="url(#paint6_linear_54_2332)"/>
<path d="M180.829 291.897C180.675 291.897 180.624 291.948 180.572 292.051C179.137 296.024 177.405 301.105 176.79 303.507C176.124 303.456 175.406 303.405 173.879 303.405C172.239 303.405 170.66 303.507 170.096 303.61C171.48 300.838 173.571 296.178 176.124 290.162L186.344 265.781C187.215 263.841 187.471 263.266 187.83 263.266C188.137 263.266 188.496 263.738 189.367 265.781C190.034 267.3 195.19 278.962 199.638 289.433C202.037 294.977 204.897 301.311 206.383 303.507C205.061 303.456 203.728 303.405 203.062 303.405C201.227 303.405 199.126 303.507 198.316 303.61C197.445 301.208 195.149 295.449 193.724 292.051C193.673 291.948 193.673 291.897 193.519 291.897H180.849H180.829ZM191.91 287.606C192.063 287.606 192.115 287.554 192.063 287.4L186.959 274.425L182.11 287.4C182.059 287.554 182.059 287.606 182.213 287.606H191.92H191.91Z" fill="url(#paint7_linear_54_2332)"/>
<path d="M216.634 295.09C218.264 297.286 221.79 299.802 225.931 299.802C230.072 299.802 232.061 297.286 232.061 294.104C232.061 291.486 231.138 289.71 227.059 286.939L224.506 285.214C218.838 281.446 217.505 277.833 217.505 274.014C217.505 268.152 221.903 263.286 229.406 263.286C231.497 263.286 233.24 263.543 234.562 263.758C236.294 264.077 237.371 264.231 237.781 264.231C237.627 264.806 237.319 268.255 237.319 271.027C236.294 269.826 233.845 267.577 229.304 267.577C225.777 267.577 223.635 269.826 223.635 272.597C223.635 274.999 224.199 276.673 228.238 279.393L230.739 281.067C237.022 285.306 238.601 288.335 238.601 292.626C238.601 295.449 237.319 299.586 233.65 302.039C231.097 303.713 227.879 304.288 225.429 304.288C222.056 304.288 218.018 303.395 216.132 302.039C216.337 301.146 216.695 297.327 216.644 295.079L216.634 295.09Z" fill="url(#paint8_linear_54_2332)"/>
<path d="M254.376 264.169C256.467 264.169 258.158 264.118 259.071 263.964C258.814 265.791 258.558 271.755 258.558 279.188V286.148C258.558 292.636 259.839 295.305 262.084 297.235C264.278 299.175 266.984 299.432 268.932 299.432C270.879 299.432 273.585 298.908 275.318 297.081C277.921 294.515 278.383 291.271 278.383 284.783V279.188C278.383 271.704 278.024 266.058 277.716 264.066C278.382 264.118 279.705 264.169 280.474 264.169C282.103 264.169 283.59 264.066 284 263.964C283.692 265.791 283.385 271.755 283.385 279.188V284.834C283.385 290.952 282.975 296.968 278.331 300.951C275.266 303.672 271.279 304.298 267.855 304.298C263.817 304.298 259.429 303.456 256.569 300.797C253.966 298.446 252.131 295.038 252.131 287.503V279.188C252.131 271.704 251.823 265.688 251.465 264.066C252.131 264.118 253.3 264.169 254.376 264.169Z" fill="url(#paint9_linear_54_2332)"/>
<path d="M7.72888 316.832V326.493C7.72888 327.683 7.3701 328.628 6.66282 329.326C5.95553 330.024 5.02274 330.363 3.86444 330.363C2.70613 330.363 1.77334 330.014 1.06606 329.326C0.358776 328.628 0 327.683 0 326.493H2.16285C2.1731 327.088 2.32687 327.55 2.60363 327.899C2.8804 328.248 3.30067 328.422 3.85419 328.422C4.40772 328.422 4.82799 328.248 5.115 327.889C5.40201 327.54 5.54552 327.067 5.54552 326.493V316.832H7.70837H7.72888Z" fill="url(#paint10_linear_54_2332)"/>
<path d="M22.8689 327.498H17.3951L16.4521 330.239H14.2072L18.8917 316.822H21.3723L26.0568 330.239H23.8017L22.8586 327.498H22.8689ZM22.2641 325.702L20.132 319.47L17.9896 325.702H22.2641Z" fill="url(#paint11_linear_54_2332)"/>
<path d="M40.5405 322.755C40.2227 323.361 39.7205 323.854 39.0337 324.234C38.3469 324.613 37.4551 324.798 36.3788 324.798H34.0109V330.239H31.8686V316.842H36.389C37.3936 316.842 38.2444 317.017 38.9414 317.376C39.6385 317.725 40.1612 318.208 40.4995 318.813C40.848 319.419 41.012 320.096 41.012 320.836C41.012 321.513 40.8583 322.16 40.5405 322.766V322.755ZM38.2034 322.437C38.6032 322.057 38.8082 321.523 38.8082 320.825C38.8082 319.357 37.9984 318.628 36.3788 318.628H34.0109V323.002H36.3788C37.1886 323.002 37.8036 322.817 38.2034 322.437Z" fill="url(#paint12_linear_54_2332)"/>
<path d="M54.7067 327.498H49.2329L48.2898 330.239H46.045L50.7295 316.822H53.2101L57.8946 330.239H55.6394L54.6964 327.498H54.7067ZM54.1121 325.702L51.98 319.47L49.8377 325.702H54.1121Z" fill="url(#paint13_linear_54_2332)"/>
<path d="M74.4597 330.239H72.3173L65.8595 320.23V330.239H63.7171V316.822H65.8595L72.3173 326.81V316.822H74.4597V330.239Z" fill="url(#paint14_linear_54_2332)"/>
<path d="M83.1929 318.608V322.54H87.7134V324.336H83.1929V328.443H88.2771V330.239H81.0505V316.822H88.2771V318.618H83.1929V318.608Z" fill="url(#paint15_linear_54_2332)"/>
<path d="M96.6106 329.9C95.9033 329.582 95.36 329.141 94.95 328.566C94.54 327.991 94.3452 327.313 94.3452 326.543H96.6413C96.6926 327.118 96.9181 327.601 97.3076 327.97C97.6971 328.34 98.2609 328.525 98.9682 328.525C99.6755 328.525 100.291 328.34 100.701 327.97C101.111 327.601 101.326 327.129 101.326 326.554C101.326 326.102 101.193 325.743 100.936 325.455C100.68 325.168 100.362 324.952 99.9727 324.798C99.5935 324.644 99.0604 324.48 98.3839 324.295C97.5331 324.059 96.8361 323.833 96.3031 323.587C95.77 323.34 95.319 322.981 94.9397 322.478C94.5605 321.975 94.376 321.308 94.376 320.476C94.376 319.706 94.5605 319.029 94.9397 318.454C95.319 317.879 95.8418 317.427 96.5183 317.119C97.1948 316.811 97.9841 316.657 98.8657 316.657C100.137 316.657 101.172 316.986 101.982 317.633C102.792 318.279 103.243 319.173 103.325 320.302H100.957C100.916 319.809 100.69 319.398 100.28 319.049C99.8702 318.7 99.3167 318.526 98.6402 318.526C98.0251 318.526 97.5229 318.69 97.1334 319.008C96.7438 319.327 96.5491 319.789 96.5491 320.394C96.5491 320.805 96.6721 321.144 96.9181 321.411C97.1641 321.677 97.4716 321.883 97.8509 322.037C98.2301 322.191 98.7427 322.355 99.3987 322.54C100.26 322.786 100.967 323.033 101.521 323.269C102.064 323.515 102.535 323.885 102.915 324.398C103.294 324.901 103.489 325.578 103.489 326.43C103.489 327.108 103.314 327.755 102.956 328.36C102.597 328.966 102.074 329.449 101.398 329.818C100.711 330.188 99.9112 330.373 98.9784 330.373C98.0969 330.373 97.3076 330.219 96.6106 329.9Z" fill="url(#paint16_linear_54_2332)"/>
<path d="M111.946 318.608V322.54H116.466V324.336H111.946V328.443H117.03V330.239H109.803V316.822H117.03V318.618H111.946V318.608Z" fill="url(#paint17_linear_54_2332)"/>
<path d="M138.884 330.239L135.87 324.88H134.23V330.239H132.088V316.842H136.608C137.613 316.842 138.464 317.027 139.161 317.386C139.858 317.746 140.381 318.228 140.719 318.834C141.067 319.439 141.231 320.117 141.231 320.856C141.231 321.729 140.985 322.519 140.483 323.238C139.991 323.946 139.222 324.439 138.197 324.696L141.436 330.249H138.874L138.884 330.239ZM134.23 323.125H136.598C137.398 323.125 138.002 322.92 138.412 322.509C138.822 322.098 139.027 321.544 139.027 320.846C139.027 320.148 138.822 319.604 138.423 319.214C138.023 318.824 137.408 318.628 136.598 318.628H134.23V323.125Z" fill="url(#paint18_linear_54_2332)"/>
<path d="M149.893 318.608V322.54H154.413V324.336H149.893V328.443H154.977V330.239H147.751V316.822H154.977V318.618H149.893V318.608Z" fill="url(#paint19_linear_54_2332)"/>
<path d="M163.311 329.9C162.603 329.582 162.06 329.141 161.65 328.566C161.24 327.991 161.045 327.313 161.045 326.543H163.341C163.393 327.118 163.618 327.601 164.008 327.97C164.397 328.34 164.961 328.525 165.668 328.525C166.376 328.525 166.991 328.34 167.401 327.97C167.811 327.601 168.026 327.129 168.026 326.554C168.026 326.102 167.893 325.743 167.636 325.455C167.38 325.168 167.062 324.952 166.673 324.798C166.294 324.644 165.761 324.48 165.084 324.295C164.233 324.059 163.536 323.833 163.003 323.587C162.47 323.34 162.019 322.981 161.64 322.478C161.261 321.975 161.076 321.308 161.076 320.476C161.076 319.706 161.261 319.029 161.64 318.454C162.019 317.879 162.542 317.427 163.218 317.119C163.895 316.811 164.684 316.657 165.566 316.657C166.837 316.657 167.872 316.986 168.682 317.633C169.492 318.279 169.943 319.173 170.025 320.302H167.657C167.616 319.809 167.39 319.398 166.98 319.049C166.57 318.7 166.017 318.526 165.34 318.526C164.725 318.526 164.223 318.69 163.833 319.008C163.444 319.327 163.249 319.789 163.249 320.394C163.249 320.805 163.372 321.144 163.618 321.411C163.864 321.677 164.172 321.883 164.551 322.037C164.93 322.191 165.443 322.355 166.099 322.54C166.96 322.786 167.667 323.033 168.221 323.269C168.764 323.515 169.235 323.885 169.615 324.398C169.994 324.901 170.189 325.578 170.189 326.43C170.189 327.108 170.015 327.755 169.656 328.36C169.297 328.966 168.774 329.449 168.098 329.818C167.411 330.188 166.611 330.373 165.679 330.373C164.797 330.373 164.008 330.219 163.311 329.9Z" fill="url(#paint20_linear_54_2332)"/>
<path d="M184.949 316.832V318.629H181.464V330.24H179.322V318.629H175.816V316.832H184.949Z" fill="url(#paint21_linear_54_2332)"/>
<path d="M198.767 327.498H193.293L192.35 330.239H190.105L194.79 316.822H197.271L201.955 330.239H199.7L198.757 327.498H198.767ZM198.162 325.702L196.03 319.47L193.888 325.702H198.162Z" fill="url(#paint22_linear_54_2332)"/>
<path d="M209.889 316.832V325.374C209.889 326.39 210.145 327.15 210.668 327.663C211.191 328.176 211.908 328.433 212.841 328.433C213.774 328.433 214.512 328.176 215.035 327.663C215.558 327.15 215.814 326.38 215.814 325.374V316.832H217.956V325.332C217.956 326.421 217.72 327.355 217.259 328.104C216.798 328.864 216.173 329.429 215.394 329.798C214.615 330.168 213.754 330.352 212.811 330.352C211.867 330.352 211.017 330.168 210.238 329.798C209.469 329.429 208.854 328.864 208.403 328.104C207.952 327.345 207.726 326.421 207.726 325.332V316.832H209.869H209.889Z" fill="url(#paint23_linear_54_2332)"/>
<path d="M231.312 330.239L228.299 324.88H226.658V330.239H224.516V316.842H229.037C230.041 316.842 230.892 317.027 231.589 317.386C232.286 317.746 232.809 318.228 233.147 318.834C233.496 319.439 233.66 320.117 233.66 320.856C233.66 321.729 233.414 322.519 232.911 323.238C232.419 323.946 231.651 324.439 230.625 324.696L233.865 330.249H231.302L231.312 330.239ZM226.658 323.125H229.026C229.826 323.125 230.431 322.92 230.841 322.509C231.251 322.098 231.456 321.544 231.456 320.846C231.456 320.148 231.251 319.604 230.851 319.214C230.451 318.824 229.836 318.628 229.026 318.628H226.658V323.125Z" fill="url(#paint24_linear_54_2332)"/>
<path d="M248.062 327.498H242.588L241.645 330.239H239.4L244.085 316.822H246.565L251.25 330.239H248.995L248.052 327.498H248.062ZM247.457 325.702L245.325 319.47L243.183 325.702H247.457Z" fill="url(#paint25_linear_54_2332)"/>
<path d="M267.804 330.239H265.662L259.204 320.23V330.239H257.062V316.822H259.204L265.662 326.81V316.822H267.804V330.239Z" fill="url(#paint26_linear_54_2332)"/>
<path d="M282.842 316.832V318.629H279.356V330.24H277.214V318.629H273.708V316.832H282.842Z" fill="url(#paint27_linear_54_2332)"/>
<defs>
<linearGradient id="paint0_linear_54_2332" x1="536.213" y1="-109.774" x2="-20.4019" y2="309.428" gradientUnits="userSpaceOnUse">
<stop offset="0.01" stop-color="#BF8D3C"/>
<stop offset="0.06" stop-color="#B28B3D"/>
<stop offset="0.11" stop-color="#D6B469"/>
<stop offset="0.12" stop-color="#E1C984"/>
<stop offset="0.15" stop-color="#F3E9AD"/>
<stop offset="0.17" stop-color="#FAF6BD"/>
<stop offset="0.23" stop-color="#D0BB70"/>
<stop offset="0.26" stop-color="#C8AE63"/>
<stop offset="0.33" stop-color="#B28B3D"/>
<stop offset="0.41" stop-color="#976B28"/>
<stop offset="0.46" stop-color="#BDA162"/>
<stop offset="0.53" stop-color="#FAF6BD"/>
<stop offset="0.64" stop-color="#BDA154"/>
<stop offset="0.74" stop-color="#FAF6BD"/>
<stop offset="0.83" stop-color="#B28B3D"/>
<stop offset="0.92" stop-color="#553A14"/>
<stop offset="1" stop-color="#B28B3D"/>
</linearGradient>
<linearGradient id="paint1_linear_54_2332" x1="591.258" y1="-296.451" x2="36.9101" y2="123.396" gradientUnits="userSpaceOnUse">
<stop offset="0.01" stop-color="#BF8D3C"/>
<stop offset="0.06" stop-color="#B28B3D"/>
<stop offset="0.11" stop-color="#D6B469"/>
<stop offset="0.12" stop-color="#E1C984"/>
<stop offset="0.15" stop-color="#F3E9AD"/>
<stop offset="0.17" stop-color="#FAF6BD"/>
<stop offset="0.23" stop-color="#D0BB70"/>
<stop offset="0.26" stop-color="#C8AE63"/>
<stop offset="0.33" stop-color="#B28B3D"/>
<stop offset="0.41" stop-color="#976B28"/>
<stop offset="0.46" stop-color="#BDA162"/>
<stop offset="0.53" stop-color="#FAF6BD"/>
<stop offset="0.64" stop-color="#BDA154"/>
<stop offset="0.74" stop-color="#FAF6BD"/>
<stop offset="0.83" stop-color="#B28B3D"/>
<stop offset="0.92" stop-color="#553A14"/>
<stop offset="1" stop-color="#B28B3D"/>
</linearGradient>
<linearGradient id="paint2_linear_54_2332" x1="624.192" y1="-252.957" x2="69.8441" y2="166.889" gradientUnits="userSpaceOnUse">
<stop offset="0.01" stop-color="#BF8D3C"/>
<stop offset="0.06" stop-color="#B28B3D"/>
<stop offset="0.11" stop-color="#D6B469"/>
<stop offset="0.12" stop-color="#E1C984"/>
<stop offset="0.15" stop-color="#F3E9AD"/>
<stop offset="0.17" stop-color="#FAF6BD"/>
<stop offset="0.23" stop-color="#D0BB70"/>
<stop offset="0.26" stop-color="#C8AE63"/>
<stop offset="0.33" stop-color="#B28B3D"/>
<stop offset="0.41" stop-color="#976B28"/>
<stop offset="0.46" stop-color="#BDA162"/>
<stop offset="0.53" stop-color="#FAF6BD"/>
<stop offset="0.64" stop-color="#BDA154"/>
<stop offset="0.74" stop-color="#FAF6BD"/>
<stop offset="0.83" stop-color="#B28B3D"/>
<stop offset="0.92" stop-color="#553A14"/>
<stop offset="1" stop-color="#B28B3D"/>
</linearGradient>
<linearGradient id="paint3_linear_54_2332" x1="271.217" y1="87.0745" x2="-181.319" y2="429.302" gradientUnits="userSpaceOnUse">
<stop offset="0.01" stop-color="#BF8D3C"/>
<stop offset="0.06" stop-color="#B28B3D"/>
<stop offset="0.11" stop-color="#D6B469"/>
<stop offset="0.12" stop-color="#E1C984"/>
<stop offset="0.15" stop-color="#F3E9AD"/>
<stop offset="0.17" stop-color="#FAF6BD"/>
<stop offset="0.23" stop-color="#D0BB70"/>
<stop offset="0.26" stop-color="#C8AE63"/>
<stop offset="0.33" stop-color="#B28B3D"/>
<stop offset="0.41" stop-color="#976B28"/>
<stop offset="0.46" stop-color="#BDA162"/>
<stop offset="0.53" stop-color="#FAF6BD"/>
<stop offset="0.64" stop-color="#BDA154"/>
<stop offset="0.74" stop-color="#FAF6BD"/>
<stop offset="0.83" stop-color="#B28B3D"/>
<stop offset="0.92" stop-color="#553A14"/>
<stop offset="1" stop-color="#B28B3D"/>
</linearGradient>
<linearGradient id="paint4_linear_54_2332" x1="292.908" y1="115.757" x2="-159.629" y2="457.985" gradientUnits="userSpaceOnUse">
<stop offset="0.01" stop-color="#BF8D3C"/>
<stop offset="0.06" stop-color="#B28B3D"/>
<stop offset="0.11" stop-color="#D6B469"/>
<stop offset="0.12" stop-color="#E1C984"/>
<stop offset="0.15" stop-color="#F3E9AD"/>
<stop offset="0.17" stop-color="#FAF6BD"/>
<stop offset="0.23" stop-color="#D0BB70"/>
<stop offset="0.26" stop-color="#C8AE63"/>
<stop offset="0.33" stop-color="#B28B3D"/>
<stop offset="0.41" stop-color="#976B28"/>
<stop offset="0.46" stop-color="#BDA162"/>
<stop offset="0.53" stop-color="#FAF6BD"/>
<stop offset="0.64" stop-color="#BDA154"/>
<stop offset="0.74" stop-color="#FAF6BD"/>
<stop offset="0.83" stop-color="#B28B3D"/>
<stop offset="0.92" stop-color="#553A14"/>
<stop offset="1" stop-color="#B28B3D"/>
</linearGradient>
<linearGradient id="paint5_linear_54_2332" x1="302.031" y1="127.819" x2="-150.506" y2="470.048" gradientUnits="userSpaceOnUse">
<stop offset="0.01" stop-color="#BF8D3C"/>
<stop offset="0.06" stop-color="#B28B3D"/>
<stop offset="0.11" stop-color="#D6B469"/>
<stop offset="0.12" stop-color="#E1C984"/>
<stop offset="0.15" stop-color="#F3E9AD"/>
<stop offset="0.17" stop-color="#FAF6BD"/>
<stop offset="0.23" stop-color="#D0BB70"/>
<stop offset="0.26" stop-color="#C8AE63"/>
<stop offset="0.33" stop-color="#B28B3D"/>
<stop offset="0.41" stop-color="#976B28"/>
<stop offset="0.46" stop-color="#BDA162"/>
<stop offset="0.53" stop-color="#FAF6BD"/>
<stop offset="0.64" stop-color="#BDA154"/>
<stop offset="0.74" stop-color="#FAF6BD"/>
<stop offset="0.83" stop-color="#B28B3D"/>
<stop offset="0.92" stop-color="#553A14"/>
<stop offset="1" stop-color="#B28B3D"/>
</linearGradient>
<linearGradient id="paint6_linear_54_2332" x1="317.949" y1="148.864" x2="-134.587" y2="491.091" gradientUnits="userSpaceOnUse">
<stop offset="0.01" stop-color="#BF8D3C"/>
<stop offset="0.06" stop-color="#B28B3D"/>
<stop offset="0.11" stop-color="#D6B469"/>
<stop offset="0.12" stop-color="#E1C984"/>
<stop offset="0.15" stop-color="#F3E9AD"/>
<stop offset="0.17" stop-color="#FAF6BD"/>
<stop offset="0.23" stop-color="#D0BB70"/>
<stop offset="0.26" stop-color="#C8AE63"/>
<stop offset="0.33" stop-color="#B28B3D"/>
<stop offset="0.41" stop-color="#976B28"/>
<stop offset="0.46" stop-color="#BDA162"/>
<stop offset="0.53" stop-color="#FAF6BD"/>
<stop offset="0.64" stop-color="#BDA154"/>
<stop offset="0.74" stop-color="#FAF6BD"/>
<stop offset="0.83" stop-color="#B28B3D"/>
<stop offset="0.92" stop-color="#553A14"/>
<stop offset="1" stop-color="#B28B3D"/>
</linearGradient>
<linearGradient id="paint7_linear_54_2332" x1="338.522" y1="176.079" x2="-114.014" y2="518.307" gradientUnits="userSpaceOnUse">
<stop offset="0.01" stop-color="#BF8D3C"/>
<stop offset="0.06" stop-color="#B28B3D"/>
<stop offset="0.11" stop-color="#D6B469"/>
<stop offset="0.12" stop-color="#E1C984"/>
<stop offset="0.15" stop-color="#F3E9AD"/>
<stop offset="0.17" stop-color="#FAF6BD"/>
<stop offset="0.23" stop-color="#D0BB70"/>
<stop offset="0.26" stop-color="#C8AE63"/>
<stop offset="0.33" stop-color="#B28B3D"/>
<stop offset="0.41" stop-color="#976B28"/>
<stop offset="0.46" stop-color="#BDA162"/>
<stop offset="0.53" stop-color="#FAF6BD"/>
<stop offset="0.64" stop-color="#BDA154"/>
<stop offset="0.74" stop-color="#FAF6BD"/>
<stop offset="0.83" stop-color="#B28B3D"/>
<stop offset="0.92" stop-color="#553A14"/>
<stop offset="1" stop-color="#B28B3D"/>
</linearGradient>
<linearGradient id="paint8_linear_54_2332" x1="349.89" y1="191.108" x2="-102.646" y2="533.336" gradientUnits="userSpaceOnUse">
<stop offset="0.01" stop-color="#BF8D3C"/>
<stop offset="0.06" stop-color="#B28B3D"/>
<stop offset="0.11" stop-color="#D6B469"/>
<stop offset="0.12" stop-color="#E1C984"/>
<stop offset="0.15" stop-color="#F3E9AD"/>
<stop offset="0.17" stop-color="#FAF6BD"/>
<stop offset="0.23" stop-color="#D0BB70"/>
<stop offset="0.26" stop-color="#C8AE63"/>
<stop offset="0.33" stop-color="#B28B3D"/>
<stop offset="0.41" stop-color="#976B28"/>
<stop offset="0.46" stop-color="#BDA162"/>
<stop offset="0.53" stop-color="#FAF6BD"/>
<stop offset="0.64" stop-color="#BDA154"/>
<stop offset="0.74" stop-color="#FAF6BD"/>
<stop offset="0.83" stop-color="#B28B3D"/>
<stop offset="0.92" stop-color="#553A14"/>
<stop offset="1" stop-color="#B28B3D"/>
</linearGradient>
<linearGradient id="paint9_linear_54_2332" x1="362.846" y1="208.241" x2="-89.6901" y2="550.469" gradientUnits="userSpaceOnUse">
<stop offset="0.01" stop-color="#BF8D3C"/>
<stop offset="0.06" stop-color="#B28B3D"/>
<stop offset="0.11" stop-color="#D6B469"/>
<stop offset="0.12" stop-color="#E1C984"/>
<stop offset="0.15" stop-color="#F3E9AD"/>
<stop offset="0.17" stop-color="#FAF6BD"/>
<stop offset="0.23" stop-color="#D0BB70"/>
<stop offset="0.26" stop-color="#C8AE63"/>
<stop offset="0.33" stop-color="#B28B3D"/>
<stop offset="0.41" stop-color="#976B28"/>
<stop offset="0.46" stop-color="#BDA162"/>
<stop offset="0.53" stop-color="#FAF6BD"/>
<stop offset="0.64" stop-color="#BDA154"/>
<stop offset="0.74" stop-color="#FAF6BD"/>
<stop offset="0.83" stop-color="#B28B3D"/>
<stop offset="0.92" stop-color="#553A14"/>
<stop offset="1" stop-color="#B28B3D"/>
</linearGradient>
<linearGradient id="paint10_linear_54_2332" x1="288.019" y1="109.279" x2="-164.518" y2="451.508" gradientUnits="userSpaceOnUse">
<stop offset="0.01" stop-color="#BF8D3C"/>
<stop offset="0.06" stop-color="#B28B3D"/>
<stop offset="0.11" stop-color="#D6B469"/>
<stop offset="0.12" stop-color="#E1C984"/>
<stop offset="0.15" stop-color="#F3E9AD"/>
<stop offset="0.17" stop-color="#FAF6BD"/>
<stop offset="0.23" stop-color="#D0BB70"/>
<stop offset="0.26" stop-color="#C8AE63"/>
<stop offset="0.33" stop-color="#B28B3D"/>
<stop offset="0.41" stop-color="#976B28"/>
<stop offset="0.46" stop-color="#BDA162"/>
<stop offset="0.53" stop-color="#FAF6BD"/>
<stop offset="0.64" stop-color="#BDA154"/>
<stop offset="0.74" stop-color="#FAF6BD"/>
<stop offset="0.83" stop-color="#B28B3D"/>
<stop offset="0.92" stop-color="#553A14"/>
<stop offset="1" stop-color="#B28B3D"/>
</linearGradient>
<linearGradient id="paint11_linear_54_2332" x1="294.179" y1="117.44" x2="-158.358" y2="459.669" gradientUnits="userSpaceOnUse">
<stop offset="0.01" stop-color="#BF8D3C"/>
<stop offset="0.06" stop-color="#B28B3D"/>
<stop offset="0.11" stop-color="#D6B469"/>
<stop offset="0.12" stop-color="#E1C984"/>
<stop offset="0.15" stop-color="#F3E9AD"/>
<stop offset="0.17" stop-color="#FAF6BD"/>
<stop offset="0.23" stop-color="#D0BB70"/>
<stop offset="0.26" stop-color="#C8AE63"/>
<stop offset="0.33" stop-color="#B28B3D"/>
<stop offset="0.41" stop-color="#976B28"/>
<stop offset="0.46" stop-color="#BDA162"/>
<stop offset="0.53" stop-color="#FAF6BD"/>
<stop offset="0.64" stop-color="#BDA154"/>
<stop offset="0.74" stop-color="#FAF6BD"/>
<stop offset="0.83" stop-color="#B28B3D"/>
<stop offset="0.92" stop-color="#553A14"/>
<stop offset="1" stop-color="#B28B3D"/>
</linearGradient>
<linearGradient id="paint12_linear_54_2332" x1="298.002" y1="122.481" x2="-154.535" y2="464.709" gradientUnits="userSpaceOnUse">
<stop offset="0.01" stop-color="#BF8D3C"/>
<stop offset="0.06" stop-color="#B28B3D"/>
<stop offset="0.11" stop-color="#D6B469"/>
<stop offset="0.12" stop-color="#E1C984"/>
<stop offset="0.15" stop-color="#F3E9AD"/>
<stop offset="0.17" stop-color="#FAF6BD"/>
<stop offset="0.23" stop-color="#D0BB70"/>
<stop offset="0.26" stop-color="#C8AE63"/>
<stop offset="0.33" stop-color="#B28B3D"/>
<stop offset="0.41" stop-color="#976B28"/>
<stop offset="0.46" stop-color="#BDA162"/>
<stop offset="0.53" stop-color="#FAF6BD"/>
<stop offset="0.64" stop-color="#BDA154"/>
<stop offset="0.74" stop-color="#FAF6BD"/>
<stop offset="0.83" stop-color="#B28B3D"/>
<stop offset="0.92" stop-color="#553A14"/>
<stop offset="1" stop-color="#B28B3D"/>
</linearGradient>
<linearGradient id="paint13_linear_54_2332" x1="305.792" y1="132.788" x2="-146.744" y2="475.015" gradientUnits="userSpaceOnUse">
<stop offset="0.01" stop-color="#BF8D3C"/>
<stop offset="0.06" stop-color="#B28B3D"/>
<stop offset="0.11" stop-color="#D6B469"/>
<stop offset="0.12" stop-color="#E1C984"/>
<stop offset="0.15" stop-color="#F3E9AD"/>
<stop offset="0.17" stop-color="#FAF6BD"/>
<stop offset="0.23" stop-color="#D0BB70"/>
<stop offset="0.26" stop-color="#C8AE63"/>
<stop offset="0.33" stop-color="#B28B3D"/>
<stop offset="0.41" stop-color="#976B28"/>
<stop offset="0.46" stop-color="#BDA162"/>
<stop offset="0.53" stop-color="#FAF6BD"/>
<stop offset="0.64" stop-color="#BDA154"/>
<stop offset="0.74" stop-color="#FAF6BD"/>
<stop offset="0.83" stop-color="#B28B3D"/>
<stop offset="0.92" stop-color="#553A14"/>
<stop offset="1" stop-color="#B28B3D"/>
</linearGradient>
<linearGradient id="paint14_linear_54_2332" x1="311.174" y1="139.902" x2="-141.362" y2="482.13" gradientUnits="userSpaceOnUse">
<stop offset="0.01" stop-color="#BF8D3C"/>
<stop offset="0.06" stop-color="#B28B3D"/>
<stop offset="0.11" stop-color="#D6B469"/>
<stop offset="0.12" stop-color="#E1C984"/>
<stop offset="0.15" stop-color="#F3E9AD"/>
<stop offset="0.17" stop-color="#FAF6BD"/>
<stop offset="0.23" stop-color="#D0BB70"/>
<stop offset="0.26" stop-color="#C8AE63"/>
<stop offset="0.33" stop-color="#B28B3D"/>
<stop offset="0.41" stop-color="#976B28"/>
<stop offset="0.46" stop-color="#BDA162"/>
<stop offset="0.53" stop-color="#FAF6BD"/>
<stop offset="0.64" stop-color="#BDA154"/>
<stop offset="0.74" stop-color="#FAF6BD"/>
<stop offset="0.83" stop-color="#B28B3D"/>
<stop offset="0.92" stop-color="#553A14"/>
<stop offset="1" stop-color="#B28B3D"/>
</linearGradient>
<linearGradient id="paint15_linear_54_2332" x1="316.842" y1="147.406" x2="-135.694" y2="489.633" gradientUnits="userSpaceOnUse">
<stop offset="0.01" stop-color="#BF8D3C"/>
<stop offset="0.06" stop-color="#B28B3D"/>
<stop offset="0.11" stop-color="#D6B469"/>
<stop offset="0.12" stop-color="#E1C984"/>
<stop offset="0.15" stop-color="#F3E9AD"/>
<stop offset="0.17" stop-color="#FAF6BD"/>
<stop offset="0.23" stop-color="#D0BB70"/>
<stop offset="0.26" stop-color="#C8AE63"/>
<stop offset="0.33" stop-color="#B28B3D"/>
<stop offset="0.41" stop-color="#976B28"/>
<stop offset="0.46" stop-color="#BDA162"/>
<stop offset="0.53" stop-color="#FAF6BD"/>
<stop offset="0.64" stop-color="#BDA154"/>
<stop offset="0.74" stop-color="#FAF6BD"/>
<stop offset="0.83" stop-color="#B28B3D"/>
<stop offset="0.92" stop-color="#553A14"/>
<stop offset="1" stop-color="#B28B3D"/>
</linearGradient>
<linearGradient id="paint16_linear_54_2332" x1="322.018" y1="154.253" x2="-130.518" y2="496.48" gradientUnits="userSpaceOnUse">
<stop offset="0.01" stop-color="#BF8D3C"/>
<stop offset="0.06" stop-color="#B28B3D"/>
<stop offset="0.11" stop-color="#D6B469"/>
<stop offset="0.12" stop-color="#E1C984"/>
<stop offset="0.15" stop-color="#F3E9AD"/>
<stop offset="0.17" stop-color="#FAF6BD"/>
<stop offset="0.23" stop-color="#D0BB70"/>
<stop offset="0.26" stop-color="#C8AE63"/>
<stop offset="0.33" stop-color="#B28B3D"/>
<stop offset="0.41" stop-color="#976B28"/>
<stop offset="0.46" stop-color="#BDA162"/>
<stop offset="0.53" stop-color="#FAF6BD"/>
<stop offset="0.64" stop-color="#BDA154"/>
<stop offset="0.74" stop-color="#FAF6BD"/>
<stop offset="0.83" stop-color="#B28B3D"/>
<stop offset="0.92" stop-color="#553A14"/>
<stop offset="1" stop-color="#B28B3D"/>
</linearGradient>
<linearGradient id="paint17_linear_54_2332" x1="327.329" y1="161.275" x2="-125.208" y2="503.504" gradientUnits="userSpaceOnUse">
<stop offset="0.01" stop-color="#BF8D3C"/>
<stop offset="0.06" stop-color="#B28B3D"/>
<stop offset="0.11" stop-color="#D6B469"/>
<stop offset="0.12" stop-color="#E1C984"/>
<stop offset="0.15" stop-color="#F3E9AD"/>
<stop offset="0.17" stop-color="#FAF6BD"/>
<stop offset="0.23" stop-color="#D0BB70"/>
<stop offset="0.26" stop-color="#C8AE63"/>
<stop offset="0.33" stop-color="#B28B3D"/>
<stop offset="0.41" stop-color="#976B28"/>
<stop offset="0.46" stop-color="#BDA162"/>
<stop offset="0.53" stop-color="#FAF6BD"/>
<stop offset="0.64" stop-color="#BDA154"/>
<stop offset="0.74" stop-color="#FAF6BD"/>
<stop offset="0.83" stop-color="#B28B3D"/>
<stop offset="0.92" stop-color="#553A14"/>
<stop offset="1" stop-color="#B28B3D"/>
</linearGradient>
<linearGradient id="paint18_linear_54_2332" x1="335.847" y1="172.526" x2="-116.69" y2="514.754" gradientUnits="userSpaceOnUse">
<stop offset="0.01" stop-color="#BF8D3C"/>
<stop offset="0.06" stop-color="#B28B3D"/>
<stop offset="0.11" stop-color="#D6B469"/>
<stop offset="0.12" stop-color="#E1C984"/>
<stop offset="0.15" stop-color="#F3E9AD"/>
<stop offset="0.17" stop-color="#FAF6BD"/>
<stop offset="0.23" stop-color="#D0BB70"/>
<stop offset="0.26" stop-color="#C8AE63"/>
<stop offset="0.33" stop-color="#B28B3D"/>
<stop offset="0.41" stop-color="#976B28"/>
<stop offset="0.46" stop-color="#BDA162"/>
<stop offset="0.53" stop-color="#FAF6BD"/>
<stop offset="0.64" stop-color="#BDA154"/>
<stop offset="0.74" stop-color="#FAF6BD"/>
<stop offset="0.83" stop-color="#B28B3D"/>
<stop offset="0.92" stop-color="#553A14"/>
<stop offset="1" stop-color="#B28B3D"/>
</linearGradient>
<linearGradient id="paint19_linear_54_2332" x1="341.157" y1="179.558" x2="-111.38" y2="521.786" gradientUnits="userSpaceOnUse">
<stop offset="0.01" stop-color="#BF8D3C"/>
<stop offset="0.06" stop-color="#B28B3D"/>
<stop offset="0.11" stop-color="#D6B469"/>
<stop offset="0.12" stop-color="#E1C984"/>
<stop offset="0.15" stop-color="#F3E9AD"/>
<stop offset="0.17" stop-color="#FAF6BD"/>
<stop offset="0.23" stop-color="#D0BB70"/>
<stop offset="0.26" stop-color="#C8AE63"/>
<stop offset="0.33" stop-color="#B28B3D"/>
<stop offset="0.41" stop-color="#976B28"/>
<stop offset="0.46" stop-color="#BDA162"/>
<stop offset="0.53" stop-color="#FAF6BD"/>
<stop offset="0.64" stop-color="#BDA154"/>
<stop offset="0.74" stop-color="#FAF6BD"/>
<stop offset="0.83" stop-color="#B28B3D"/>
<stop offset="0.92" stop-color="#553A14"/>
<stop offset="1" stop-color="#B28B3D"/>
</linearGradient>
<linearGradient id="paint20_linear_54_2332" x1="346.333" y1="186.406" x2="-106.204" y2="528.633" gradientUnits="userSpaceOnUse">
<stop offset="0.01" stop-color="#BF8D3C"/>
<stop offset="0.06" stop-color="#B28B3D"/>
<stop offset="0.11" stop-color="#D6B469"/>
<stop offset="0.12" stop-color="#E1C984"/>
<stop offset="0.15" stop-color="#F3E9AD"/>
<stop offset="0.17" stop-color="#FAF6BD"/>
<stop offset="0.23" stop-color="#D0BB70"/>
<stop offset="0.26" stop-color="#C8AE63"/>
<stop offset="0.33" stop-color="#B28B3D"/>
<stop offset="0.41" stop-color="#976B28"/>
<stop offset="0.46" stop-color="#BDA162"/>
<stop offset="0.53" stop-color="#FAF6BD"/>
<stop offset="0.64" stop-color="#BDA154"/>
<stop offset="0.74" stop-color="#FAF6BD"/>
<stop offset="0.83" stop-color="#B28B3D"/>
<stop offset="0.92" stop-color="#553A14"/>
<stop offset="1" stop-color="#B28B3D"/>
</linearGradient>
<linearGradient id="paint21_linear_54_2332" x1="351.109" y1="192.719" x2="-101.427" y2="534.946" gradientUnits="userSpaceOnUse">
<stop offset="0.01" stop-color="#BF8D3C"/>
<stop offset="0.06" stop-color="#B28B3D"/>
<stop offset="0.11" stop-color="#D6B469"/>
<stop offset="0.12" stop-color="#E1C984"/>
<stop offset="0.15" stop-color="#F3E9AD"/>
<stop offset="0.17" stop-color="#FAF6BD"/>
<stop offset="0.23" stop-color="#D0BB70"/>
<stop offset="0.26" stop-color="#C8AE63"/>
<stop offset="0.33" stop-color="#B28B3D"/>
<stop offset="0.41" stop-color="#976B28"/>
<stop offset="0.46" stop-color="#BDA162"/>
<stop offset="0.53" stop-color="#FAF6BD"/>
<stop offset="0.64" stop-color="#BDA154"/>
<stop offset="0.74" stop-color="#FAF6BD"/>
<stop offset="0.83" stop-color="#B28B3D"/>
<stop offset="0.92" stop-color="#553A14"/>
<stop offset="1" stop-color="#B28B3D"/>
</linearGradient>
<linearGradient id="paint22_linear_54_2332" x1="358.306" y1="202.225" x2="-94.2309" y2="544.454" gradientUnits="userSpaceOnUse">
<stop offset="0.01" stop-color="#BF8D3C"/>
<stop offset="0.06" stop-color="#B28B3D"/>
<stop offset="0.11" stop-color="#D6B469"/>
<stop offset="0.12" stop-color="#E1C984"/>
<stop offset="0.15" stop-color="#F3E9AD"/>
<stop offset="0.17" stop-color="#FAF6BD"/>
<stop offset="0.23" stop-color="#D0BB70"/>
<stop offset="0.26" stop-color="#C8AE63"/>
<stop offset="0.33" stop-color="#B28B3D"/>
<stop offset="0.41" stop-color="#976B28"/>
<stop offset="0.46" stop-color="#BDA162"/>
<stop offset="0.53" stop-color="#FAF6BD"/>
<stop offset="0.64" stop-color="#BDA154"/>
<stop offset="0.74" stop-color="#FAF6BD"/>
<stop offset="0.83" stop-color="#B28B3D"/>
<stop offset="0.92" stop-color="#553A14"/>
<stop offset="1" stop-color="#B28B3D"/>
</linearGradient>
<linearGradient id="paint23_linear_54_2332" x1="363.042" y1="208.498" x2="-89.4951" y2="550.726" gradientUnits="userSpaceOnUse">
<stop offset="0.01" stop-color="#BF8D3C"/>
<stop offset="0.06" stop-color="#B28B3D"/>
<stop offset="0.11" stop-color="#D6B469"/>
<stop offset="0.12" stop-color="#E1C984"/>
<stop offset="0.15" stop-color="#F3E9AD"/>
<stop offset="0.17" stop-color="#FAF6BD"/>
<stop offset="0.23" stop-color="#D0BB70"/>
<stop offset="0.26" stop-color="#C8AE63"/>
<stop offset="0.33" stop-color="#B28B3D"/>
<stop offset="0.41" stop-color="#976B28"/>
<stop offset="0.46" stop-color="#BDA162"/>
<stop offset="0.53" stop-color="#FAF6BD"/>
<stop offset="0.64" stop-color="#BDA154"/>
<stop offset="0.74" stop-color="#FAF6BD"/>
<stop offset="0.83" stop-color="#B28B3D"/>
<stop offset="0.92" stop-color="#553A14"/>
<stop offset="1" stop-color="#B28B3D"/>
</linearGradient>
<linearGradient id="paint24_linear_54_2332" x1="369.54" y1="217.08" x2="-82.9967" y2="559.307" gradientUnits="userSpaceOnUse">
<stop offset="0.01" stop-color="#BF8D3C"/>
<stop offset="0.06" stop-color="#B28B3D"/>
<stop offset="0.11" stop-color="#D6B469"/>
<stop offset="0.12" stop-color="#E1C984"/>
<stop offset="0.15" stop-color="#F3E9AD"/>
<stop offset="0.17" stop-color="#FAF6BD"/>
<stop offset="0.23" stop-color="#D0BB70"/>
<stop offset="0.26" stop-color="#C8AE63"/>
<stop offset="0.33" stop-color="#B28B3D"/>
<stop offset="0.41" stop-color="#976B28"/>
<stop offset="0.46" stop-color="#BDA162"/>
<stop offset="0.53" stop-color="#FAF6BD"/>
<stop offset="0.64" stop-color="#BDA154"/>
<stop offset="0.74" stop-color="#FAF6BD"/>
<stop offset="0.83" stop-color="#B28B3D"/>
<stop offset="0.92" stop-color="#553A14"/>
<stop offset="1" stop-color="#B28B3D"/>
</linearGradient>
<linearGradient id="paint25_linear_54_2332" x1="376.265" y1="225.99" x2="-76.2719" y2="568.218" gradientUnits="userSpaceOnUse">
<stop offset="0.01" stop-color="#BF8D3C"/>
<stop offset="0.06" stop-color="#B28B3D"/>
<stop offset="0.11" stop-color="#D6B469"/>
<stop offset="0.12" stop-color="#E1C984"/>
<stop offset="0.15" stop-color="#F3E9AD"/>
<stop offset="0.17" stop-color="#FAF6BD"/>
<stop offset="0.23" stop-color="#D0BB70"/>
<stop offset="0.26" stop-color="#C8AE63"/>
<stop offset="0.33" stop-color="#B28B3D"/>
<stop offset="0.41" stop-color="#976B28"/>
<stop offset="0.46" stop-color="#BDA162"/>
<stop offset="0.53" stop-color="#FAF6BD"/>
<stop offset="0.64" stop-color="#BDA154"/>
<stop offset="0.74" stop-color="#FAF6BD"/>
<stop offset="0.83" stop-color="#B28B3D"/>
<stop offset="0.92" stop-color="#553A14"/>
<stop offset="1" stop-color="#B28B3D"/>
</linearGradient>
<linearGradient id="paint26_linear_54_2332" x1="381.646" y1="233.094" x2="-70.8906" y2="575.323" gradientUnits="userSpaceOnUse">
<stop offset="0.01" stop-color="#BF8D3C"/>
<stop offset="0.06" stop-color="#B28B3D"/>
<stop offset="0.11" stop-color="#D6B469"/>
<stop offset="0.12" stop-color="#E1C984"/>
<stop offset="0.15" stop-color="#F3E9AD"/>
<stop offset="0.17" stop-color="#FAF6BD"/>
<stop offset="0.23" stop-color="#D0BB70"/>
<stop offset="0.26" stop-color="#C8AE63"/>
<stop offset="0.33" stop-color="#B28B3D"/>
<stop offset="0.41" stop-color="#976B28"/>
<stop offset="0.46" stop-color="#BDA162"/>
<stop offset="0.53" stop-color="#FAF6BD"/>
<stop offset="0.64" stop-color="#BDA154"/>
<stop offset="0.74" stop-color="#FAF6BD"/>
<stop offset="0.83" stop-color="#B28B3D"/>
<stop offset="0.92" stop-color="#553A14"/>
<stop offset="1" stop-color="#B28B3D"/>
</linearGradient>
<linearGradient id="paint27_linear_54_2332" x1="386.791" y1="239.901" x2="-65.7449" y2="582.128" gradientUnits="userSpaceOnUse">
<stop offset="0.01" stop-color="#BF8D3C"/>
<stop offset="0.06" stop-color="#B28B3D"/>
<stop offset="0.11" stop-color="#D6B469"/>
<stop offset="0.12" stop-color="#E1C984"/>
<stop offset="0.15" stop-color="#F3E9AD"/>
<stop offset="0.17" stop-color="#FAF6BD"/>
<stop offset="0.23" stop-color="#D0BB70"/>
<stop offset="0.26" stop-color="#C8AE63"/>
<stop offset="0.33" stop-color="#B28B3D"/>
<stop offset="0.41" stop-color="#976B28"/>
<stop offset="0.46" stop-color="#BDA162"/>
<stop offset="0.53" stop-color="#FAF6BD"/>
<stop offset="0.64" stop-color="#BDA154"/>
<stop offset="0.74" stop-color="#FAF6BD"/>
<stop offset="0.83" stop-color="#B28B3D"/>
<stop offset="0.92" stop-color="#553A14"/>
<stop offset="1" stop-color="#B28B3D"/>
</linearGradient>
</defs>
</svg>
