<svg width="1351" height="884" viewBox="0 0 1351 884" fill="none" xmlns="http://www.w3.org/2000/svg">
<g opacity="0.2">
<path d="M677.2 1.71646C684.885 8.29157 690.676 17.8942 693.156 29.8929C695.431 40.9442 694.914 52.7571 692.856 63.7899C690.799 74.8042 687.229 85.3169 682.5 94.678C679.952 99.7301 676.818 104.039 674.08 108.868C670.782 114.701 668.057 121.071 665.223 127.331C662.184 134.054 659.023 140.815 654.867 146.369C651.12 151.384 646.501 155.024 641.718 157.847C631.267 164.014 619.658 166.781 608.335 167.524C595.39 168.397 582.568 167.543 569.882 171.833C563.805 173.895 557.851 176.551 551.801 178.724C545.206 181.083 538.529 182.439 531.73 183.145C504.887 185.912 478.248 178.984 451.76 174.025C428.201 169.623 404.314 168.211 380.673 172.298C360.78 175.734 341.131 183.238 323.145 195.459C315.91 200.381 308.497 206.436 303.442 215.24C299.599 221.927 297.106 231.121 299.668 239.349C302.325 247.837 308.075 253.762 312.258 260.764C314.356 264.293 316.427 268.491 316.455 273.19C316.482 277.778 314.493 282.421 311.767 285.04C306.276 290.334 298.332 291.077 291.86 291.671C283.889 292.414 275.877 292.154 267.892 291.671C229.631 289.442 189.734 287.566 153.503 306.957C128.649 320.275 92.377 349.12 106.316 392.879C116.25 424.083 147.14 429.618 168.873 432.014C182.989 433.575 197.174 433.63 211.331 433.723C222.64 433.797 234.25 433.37 245.45 435.803C255.942 438.088 267.074 438.738 277.13 443.697C281.709 445.963 287.254 450.031 287.159 457.665C286.996 469.793 277.962 477.594 271.067 482.498C266.843 485.507 263.041 488.664 259.621 493.215C255.615 498.545 252.168 504.526 249.252 511.027C248.829 511.974 249.919 512.829 250.342 511.881C253.544 504.712 257.427 498.174 261.978 492.509C266.039 487.457 271.08 484.615 275.809 480.956C281.641 476.443 287.677 468.382 288.358 458.723C289.435 443.716 273.492 439.89 265.671 438.088C260.357 436.862 254.975 436.268 249.661 435.079C245.178 434.076 240.777 433.166 236.225 432.776C223.417 431.661 210.554 432.07 197.732 431.866C183.275 431.624 168.723 431.03 154.402 428.04C142.003 425.458 128.935 421.186 118.661 410.877C108.905 401.089 103.4 384.911 104.722 368.344C106.589 344.922 123.403 329.06 137.356 318.882C153.707 306.976 171.734 298.952 190.102 295.516C202.488 293.194 215.024 292.544 227.519 292.358C237.043 292.228 246.636 291.987 256.147 292.563C271.121 293.491 286.559 295.497 301.412 291.783C306.685 290.464 312.558 288.272 315.651 281.808C319.139 274.546 317.463 267.098 313.825 260.672C309.546 253.112 302.965 246.853 300.526 237.622C297.651 226.793 303.714 215.835 309.437 209.204C316.155 201.421 324.33 196.091 332.424 191.503C341.717 186.247 351.214 181.826 361.025 178.706C385.034 171.072 410.051 170.013 434.537 172.929C460.589 176.031 486.206 184.036 512.408 185.244C525.162 185.819 538.175 185.058 550.602 180.823C556.842 178.687 562.96 175.938 569.201 173.746C576.041 171.35 582.922 170.143 589.967 169.772C611.196 168.639 635.804 169.772 653.382 150.381C661.816 141.075 666.381 127.015 672.335 115.016C677.295 105.024 683.536 96.8512 687.76 86.1155C695.091 67.4675 699.124 43.6745 692.856 23.4292C689.804 13.5665 684.449 5.78413 677.84 0.137711C677.159 -0.456648 676.519 1.02926 677.213 1.62362L677.2 1.71646Z" fill="url(#paint0_linear_62_12225)"/>
<path d="M1350.78 816.491C1327.18 801.223 1305.8 780.068 1281.63 766.36C1254.95 751.241 1225.3 748.028 1196.69 748.474C1182.03 748.697 1167.39 749.997 1152.79 751.464C1138.72 752.876 1124.58 754.547 1110.5 752.411C1081.94 748.084 1056.97 726.037 1028.57 720.873C1001.85 716.025 974.491 723.176 949.351 735.509C926.732 746.598 904.426 766.509 879.682 766.416C868.222 766.379 855.714 759.897 848.955 746.635C845.372 739.614 846.012 732.277 850.263 726.167C859.856 712.329 876.629 706.924 889.642 702.337C914.196 693.663 939.268 691.935 964.176 686.159C982.434 681.924 1023.33 672.841 1020.65 636.901C1018.9 613.201 1002.4 601.258 987.367 595.017C975.894 590.244 964.244 587.792 952.239 587.569C937.033 587.291 921.84 588.647 907.615 579.954C896.755 573.323 887.067 563.795 875.608 558.91C864.639 554.23 853.084 552.521 841.625 552.372C816.757 552.038 792.163 558.724 767.813 564.835C746.434 570.184 725.014 576.927 703.417 580.363C683.224 583.576 654.964 585.173 639.416 563.349C636.133 558.743 636.119 552.094 633.23 547.246C630.873 543.29 627.112 540.764 623.679 539.055C614.645 534.541 604.507 534.82 595.037 535.507C584.967 536.25 574.898 538.405 564.801 538.312C552.034 538.2 539.321 536.25 526.526 536.696C513.786 537.123 500.8 539.352 488.946 546.02C477.977 552.186 470.687 565.337 460.195 572.432C432.78 590.968 400.16 580.047 371.913 571.837C355.957 567.194 340.069 566.804 323.936 564.036C310.324 561.715 287.146 556.626 286.751 532.368C286.492 516.822 296.875 506.811 305.228 498.861C312.777 491.673 320.462 484.485 325.231 473.415C333.229 454.86 324.413 438.571 312.45 428.857C299.546 418.363 283.985 412.586 269.051 411.249C253.668 409.893 238.162 409.577 223.037 405.064C210.133 401.219 190.771 390.873 197.856 367.879C204.042 347.782 224.277 338.867 238.175 333.072C252.864 326.943 268.016 323.061 283.168 319.866C303.32 315.631 324.005 315.761 343.803 308.555C352.619 305.341 361.421 300.624 368.384 292.358C373.385 286.415 379.38 277.406 376.75 267.637C374.42 258.963 367.457 253.353 362.811 247.224C358.86 242.005 355.262 235.968 354.567 228.26C353.682 218.286 358.233 209.761 363.656 203.724C386.316 178.538 421.361 189.72 447.414 195.441C459.814 198.171 472.254 199.36 484.708 201.384C497.462 203.446 510.175 206.083 522.983 207.309C534.838 208.442 546.965 208.535 558.615 204.913C563.684 203.334 568.548 201.217 572.84 197.112C578.4 191.8 582.692 185.689 589.3 182.643C604.371 175.697 619.277 181.306 634.375 184.519C645.971 186.989 657.648 184.965 668.48 178.854C677.583 173.728 687.311 166.781 691.399 153.91C695.569 140.815 698.744 129.652 708.881 123.449C722.412 115.183 741.352 115.499 746.652 92.6349C752.961 65.4057 736.187 37.0808 726.227 15.7024C725.791 14.7737 724.714 15.6281 725.137 16.5568C735.452 38.6967 759.338 80.8219 739.444 105.042C727.208 119.938 706.946 114.738 696.795 134.203C694.247 139.088 692.735 144.641 691.14 150.176C688.647 158.85 685.172 164.367 679.286 169.344C667.022 179.709 652.906 185.392 638.435 183.516C624.837 181.752 611.933 175.604 598.089 178.13C592.557 179.133 586.807 181.176 582.051 185.281C576.669 189.943 572.445 196.685 566.423 199.991C542.673 213.048 513.622 204.634 489.164 200.455C476.015 198.208 462.811 197.094 449.703 194.252C436.282 191.354 422.888 187.844 409.289 186.971C397.121 186.191 384.245 187.454 372.935 194.14C364.828 198.932 355.971 207.718 353.654 220.014C351.474 231.585 356.448 241.411 362.321 249.007C367.485 255.675 377.527 263.699 375.946 275.103C373.834 290.278 358.969 300.066 349.403 304.468C338.462 309.502 326.907 311.675 315.475 313.347C299.287 315.724 283.209 317.711 267.198 321.816C250.915 325.995 234.387 331.289 219.317 340.873C208.77 347.597 195.335 358.889 195.104 376.869C194.886 394.142 208.457 401.739 218.758 405.435C233.692 410.803 249.348 411.509 264.691 412.623C280.62 413.775 296.685 418.585 310.665 429.451C317.9 435.06 325.899 443.474 327.07 455.529C328.501 470.146 319.29 482.851 311.387 490.819C299.941 502.353 280.415 516.543 286.424 540.299C290.921 558.093 308.212 562.662 320.053 565.039C335.532 568.16 351.229 567.695 366.572 572.06C392.243 579.36 419.045 589.092 445.275 581.069C457.702 577.28 466.463 569.293 476.192 558.669C487.774 546.02 501.809 540.968 516.402 539.166C530.437 537.42 544.539 538.702 558.56 539.686C568.685 540.392 578.618 538.869 588.701 537.792C599.029 536.696 609.957 535.656 620.095 539.315C625.968 541.451 631.813 545.314 634.184 553.412C635.887 559.244 637.018 563.145 640.725 567.101C656.381 583.873 677.801 585.118 696.809 582.944C717.493 580.586 737.727 573.732 758.125 568.903C783.374 562.922 808.541 555.251 834.253 554.174C846.898 553.654 859.692 554.712 871.942 559.244C884.628 563.944 895.065 574.159 906.92 581.421C918.897 588.758 931.446 589.26 944.405 589.241C957.976 589.222 971.002 590.56 984.11 595.519C1000.24 601.63 1024.12 617.807 1018.9 646.17C1015.64 663.889 999.985 671.987 988.58 676.779C962.609 687.682 935.357 687.608 908.896 694.647C895.706 698.157 882.475 702.337 869.898 708.856C861.409 713.258 846.87 720.687 845.249 735.045C843.11 753.972 864.175 766.212 874.613 767.753C897.763 771.134 919.687 753.433 940.344 741.973C966.192 727.653 994.48 718.496 1022.52 721.69C1052.2 725.071 1077.91 748.046 1107.22 753.563C1135.19 758.838 1164.12 751.093 1192.19 750.275C1221.8 749.402 1252.62 752.04 1280.31 767.493C1304.74 781.126 1326.26 802.56 1350.05 817.958C1350.77 818.422 1351.41 816.955 1350.67 816.472L1350.78 816.491Z" fill="url(#paint1_linear_62_12225)"/>
<path d="M582.977 70.0678C599.805 71.8323 617.641 89.8303 614.439 115.388C610.964 143.081 586.138 150.975 568.861 152.145C547.672 153.575 526.647 147.929 505.786 143.806C480.687 138.846 455.234 135.577 429.917 133.311C404.573 131.045 378.439 129.559 353.204 134.259C335.994 137.453 311.904 143.546 303.347 167.023C299.967 176.31 298.646 186.748 294.762 195.756C289.407 208.219 280.142 215.76 270.154 219.605C251.391 226.812 231.416 223.245 212.244 222.614C202.515 222.298 193.29 223.84 184.243 228.966C175.658 233.814 167.742 240.593 159.103 245.33C138.514 256.585 116.604 255.489 94.8842 257.458C75.0858 259.26 56.3639 265.872 41.0211 283.87C26.5233 300.884 15.3637 324.324 7.99202 348.21C1.30174 369.885 -3.12665 395.721 2.71887 418.678C7.76041 438.478 20.8277 452.26 33.7177 462.29C68.3274 489.184 108.769 498.044 148.052 499.4C162.918 499.92 177.58 499.14 192.296 502.372C203.619 504.842 218.485 508.055 227.083 519.385C238.692 534.709 219.82 551.462 212.258 560.619C207.23 566.711 201.261 574.103 199.899 583.558C198.741 591.637 201.984 599.345 206.548 604.23C212.775 610.898 221.06 613.87 228.622 616.284C237.752 619.201 247.017 621.392 256.242 623.621C261.951 624.996 267.96 626.556 273.002 630.623C277.784 634.487 280.21 640.319 283.371 646.225C288.385 655.568 295.157 661.604 303.496 663.833C313.294 666.471 323.554 665.263 333.473 666.174C346.609 667.362 359.758 668.328 372.92 668.848C392.923 669.647 413.28 670.353 433.174 666.842C448.34 664.168 466.38 658.967 476.831 642.288C483.753 631.236 483.235 617.083 485.879 603.803C488.904 588.554 497.366 577.465 507.653 570.965C516.619 565.3 526.416 562.996 536.172 561.473C544.307 560.21 552.4 558.632 560.576 558C569.433 557.313 579.57 556.774 587.814 561.975C597.611 568.141 595.458 582.536 601.099 592.77C624.045 634.431 669.992 609.431 700.446 604.583C717.001 601.946 734.102 605.289 749.608 613.628C757.579 617.919 766.259 624.215 770.605 634.784C775.688 647.117 772.472 660.379 765.4 669.703C752.81 686.326 734.878 691.452 718.473 696.913C703.362 701.928 687.147 708.317 677.636 726.445C668.929 743.05 665.849 767.363 674.066 785.324C681.546 801.669 695.581 810.51 708.635 815.859C728.733 824.088 750.33 825.313 771.164 825.202C796.958 825.072 822.67 821.821 848.409 819.778C861.544 818.738 874.666 818.571 887.801 817.94C900.269 817.327 912.696 815.766 925.164 815.228C951.475 814.095 976.52 820.707 1000.49 835.585C1020.35 847.918 1038.23 865.098 1055.25 883.579C1055.88 884.266 1056.76 883.059 1056.14 882.372C1020.93 844.091 981.071 813.816 934.893 813.333C921.839 813.203 908.826 814.763 895.8 815.729C882.637 816.695 869.461 816.584 856.285 817.475C830.532 819.221 804.847 822.62 779.053 823.344C756.543 823.976 733.148 823.382 711.305 815.116C696.617 809.563 679.721 799.459 673.126 779.269C665.018 754.473 675.701 723.956 692.134 711.271C707.15 699.662 724.918 698.139 740.996 690.524C753.723 684.487 771.191 673.157 774.094 653.042C776.969 633.094 763.574 619.758 751.788 612.997C737.167 604.602 720.353 600.497 704.52 602.317C685.975 604.453 667.989 611.938 649.43 613.907C631.049 615.876 604.588 610.155 598.797 581.533C596.794 571.615 594.763 563.906 587.337 559.82C580.306 555.957 572.212 555.734 564.745 556.031C556.161 556.366 547.659 557.87 539.142 559.282C530.599 560.693 522.124 562.068 513.921 565.801C505.705 569.534 497.815 575.329 492.092 584.356C485.525 594.72 484.162 606.719 482.459 619.758C480.456 635.081 474.529 645.854 464.527 653.116C456.12 659.208 446.623 662.347 437.262 664.335C417.422 668.551 396.997 667.957 376.994 667.269C363.805 666.824 350.628 665.969 337.466 664.799C326.415 663.833 314.711 665.115 303.837 662.162C298.414 660.694 293.413 657.722 289.257 652.652C285.401 647.953 283.099 641.842 279.896 636.456C273.983 626.519 264.499 623.788 255.683 621.727C246.758 619.628 237.779 617.417 228.949 614.594C220.174 611.79 208.987 608.168 203.537 597.451C192.418 575.645 219.316 557.443 227.587 543.791C245.219 514.742 205.376 503.375 191.71 500.477C177.811 497.542 164.022 498.137 149.987 497.71C126.605 497.004 103.387 494.236 80.7678 485.785C49.401 474.047 3.03215 451.851 1.38342 399.102C0.497769 370.777 9.65442 342.452 20.7459 319.16C32.6276 294.179 48.5018 272.782 69.9898 264.423C90.3741 256.492 111.917 259.557 132.751 255.991C142.752 254.282 152.535 251.013 161.801 245.608C170.603 240.463 178.752 233.294 187.772 228.892C206.535 219.735 227.587 226.31 247.072 225.511C263.777 224.824 283.003 220.571 293.686 201.068C298.114 192.97 299.926 183.386 302.502 174.099C306.671 158.999 314.261 151.198 325.162 145.514C348.843 133.163 374.828 132.754 399.859 133.293C427.206 133.887 454.471 137.416 481.641 141.521C502.979 144.734 524.14 150.251 545.519 152.907C563.942 155.191 585.171 155.841 601.535 142.134C612.967 132.55 619.208 114.738 614.248 97.0183C609.302 79.3547 596.276 69.752 582.991 68.359C582.187 68.2661 582.187 69.9935 582.991 70.0678H582.977Z" fill="url(#paint2_linear_62_12225)"/>
<path d="M586.684 42.2631C596.617 43.879 605.324 53.203 612.028 62.7685C618.65 72.204 624.4 83.5711 626.267 96.5727C630.355 125.046 613.636 144.753 595.663 154.021C576.86 163.717 555.767 164.608 535.9 163.512C514.603 162.342 493.456 157.792 472.39 153.65C427.166 144.753 380.075 135.113 334.878 149.396C325.571 152.331 314.82 155.507 307.108 163.68C302.489 168.583 299.982 175.27 298.251 182.736C295.799 193.305 294.055 204.3 289.122 213.42C282.95 224.843 272.744 228.483 262.892 229.932C253.122 231.362 243.189 231.808 233.379 231.53C222.587 231.232 211.536 230.266 200.908 233.424C191.983 236.08 184.271 242.451 176.545 248.822C167.048 256.678 157.987 262.195 146.773 263.365C135.109 264.591 123.35 264.349 111.768 266.857C100.022 269.401 89.135 275.568 78.5886 282.849C61.5154 294.643 41.349 306.827 30.2848 329.19C21.4552 347.04 20.4879 368.827 24.0851 389.332C27.5869 409.262 34.0728 431.792 45.941 445.22C69.0641 471.372 104.859 468.363 132.942 467.045C159.472 465.8 187.228 463.813 213.376 471.614C224.89 475.05 239.074 481.848 242.535 499.121C244.443 508.631 242.78 520.518 239.115 528.877C234.796 538.721 227.083 545.017 220.761 552.187C212.517 561.548 202.829 580.734 212.885 593.959C220.911 604.509 235.095 603.617 245.383 604.936C254.73 606.125 262.892 610.434 270.618 617.659C278.398 624.921 285.661 632.258 294.422 637.291C313.553 648.287 334.537 654.769 355.167 657.574C375.892 660.379 397.066 660.007 417.696 655.939C431.322 653.246 451.338 650.256 459.541 632.797C463.029 625.386 464.61 616.452 467.212 608.465C471.627 594.869 478.372 583.149 486.915 573.918C497.135 562.848 508.758 557.61 521.716 556.514C533.189 555.548 544.73 556.997 556.176 555.326C564.896 554.044 573.535 551.425 582.365 551.741C587.447 551.927 592.666 553.06 597.203 556.347C603.675 561.028 606.183 568.569 609.017 577.224C616.756 600.906 643.136 604.416 659.555 602.354C680.921 599.68 701.714 593.067 723.311 593.42C744.908 593.773 766.995 600.46 782.829 621.782C790.336 631.905 796.931 645.78 795.95 660.787C794.833 677.894 783.959 690.32 773.29 697.248C763.63 703.525 753.042 706.46 743.027 711.438C734.606 715.617 726.567 721.412 719.686 729.287C713.868 735.937 708.418 744.722 707.314 755.309C706.115 766.899 710.87 777.505 716.92 785.101C729.306 800.61 747.415 804.195 763.589 804.307C784.259 804.455 805.011 799.292 825.369 794.964C849.922 789.726 874.463 784.098 899.275 781.665C923.597 779.288 948.315 780.049 972.092 788.017C995.242 795.763 1018.07 807.297 1039.66 820.967C1060.27 834.025 1079.89 849.775 1098.05 868.423C1098.69 869.092 1099.32 867.606 1098.68 866.937C1061.79 829.084 1018.08 802.003 973.346 786.68C927.14 770.837 878.864 781.739 832.658 791.676C811.048 796.32 789.124 802.003 767.186 802.561C748.26 803.044 724.85 799.217 712.914 776.446C696.781 745.669 727.589 720.39 745.657 711.977C762.948 703.916 784.368 698.845 794.015 674.848C803.172 652.076 791.099 627.782 777.991 613.721C763.412 598.082 744.758 592.64 726.567 591.823C704.807 590.839 683.837 596.912 662.362 600.274C650.371 602.15 638.326 600.85 626.921 595.278C620.899 592.343 614.999 588.071 611.565 580.4C609.03 574.717 608.172 568.234 605.052 562.959C593.824 544.014 573.467 550.682 558.301 553.301C536.922 556.997 514.317 549.642 494.641 564.798C478.535 577.187 469.025 596.801 462.593 619.776C460.004 629.026 457.075 636.92 450.534 642.009C442.127 648.547 431.69 651.11 422.233 653.302C379.748 663.128 331.321 658.633 291.793 633.911C283.004 628.413 275.864 619.869 267.702 613.053C260.971 607.425 253.681 604.379 245.846 603.339C235.45 601.946 215.093 603.432 210.787 586.529C204.519 561.919 229.604 548.713 238.379 533.409C245.083 521.726 247.127 502.446 240.737 489.779C234.564 477.557 222.846 472.58 212.722 469.719C200.786 466.339 188.577 465.633 176.436 464.779C145.396 462.605 114.111 469.571 83.2078 463.33C68.3692 460.339 52.9038 453.783 42.439 438.348C36.2938 429.266 32.465 417.36 29.2492 405.956C25.9382 394.198 23.5537 381.772 23.3357 369.124C22.8588 341.839 34.0047 319.996 50.5875 305.899C71.5441 288.105 94.6944 270.516 119.616 267.284C131.035 265.798 142.821 266.764 154.131 263.996C163.314 261.768 171.258 255.23 179.107 248.729C188.795 240.705 198.251 234.78 209.697 233.443C220.829 232.142 232.002 233.684 243.148 233.313C258.218 232.811 278.617 233.591 289.204 216.15C298.769 200.4 296.507 174.991 309.738 163.252C318.827 155.191 331.063 152.015 341.554 149.229C353.709 146.016 366.081 144.474 378.453 144.084C402.857 143.304 427.207 146.889 451.352 151.328C491.671 158.758 533.23 171.183 574.026 163.048C591.167 159.631 609.044 151.551 620.762 133.163C630.805 117.431 629.892 95.6998 622.397 78.389C615.039 61.3941 601.754 42.9875 586.684 40.5357C585.88 40.4057 585.894 42.1145 586.684 42.2445V42.2631Z" fill="url(#paint3_linear_62_12225)"/>
<path d="M691.903 6.63862C706.728 25.361 729.947 54.466 712.383 83.1439C706.347 92.988 698.09 99.7116 691.236 108.386C684.259 117.208 680.717 128.371 676.097 139.478C670.701 152.443 664.107 164.683 654.023 171.313C641.556 179.523 627.33 178.446 613.95 176.57C601.836 174.88 589.995 172.985 578.1 177.591C567.281 181.77 557.239 189.144 546.147 192.135C531.091 196.202 515.707 193.286 500.746 189.887C487.76 186.953 474.761 184.148 461.708 181.696C436.745 177.016 411.292 173.672 386.152 177.814C366.994 180.972 343.094 187.881 330.327 209.65C325.435 217.989 323.282 228.242 325.026 238.755C325.926 244.16 327.629 249.36 330.109 253.762C332.657 258.294 336.186 261.898 338.407 266.764C346.01 283.425 329.237 292.024 320.176 293.956C309.929 296.148 299.383 296.296 289.054 297.448C265.672 300.067 242.167 304.19 219.916 314.796C208.784 320.108 198.047 326.961 187.977 335.32C180.551 341.467 173.575 348.804 168.806 358.871C165.004 366.914 162.769 376.813 165.154 386.175C168.002 397.374 176.068 404.191 183.617 408.779C204.233 421.279 227.492 419.106 249.485 421.019C266.571 422.505 287.283 424.864 302.23 437.289C309.943 443.697 315.311 456.197 308.88 467.045C304.179 474.994 296.835 479.935 290.498 484.987C276.341 496.298 262.402 514.055 261.898 538.033C261.38 562.328 275.742 581.552 290.267 592.492C299.26 599.253 309.261 603.859 319.44 605.79C331.281 608.038 343.163 605.493 354.84 602.819C368.452 599.698 381.588 597.414 395.404 598.9C407.204 600.163 419.168 602.596 430.981 600.218C454.213 595.575 469.093 568.383 489.218 554.75C502.095 546.02 516.007 544.961 530.123 545.036C541.051 545.11 551.748 544.274 562.621 542.788C583.251 539.965 607.055 536.9 622.289 560.173C629.197 570.723 636.064 579.899 645.575 586.009C653.506 591.099 662.131 593.755 670.851 594.758C691.222 597.098 711.688 591.21 731.582 586.065C751.435 580.92 770.511 571.429 790.282 565.745C811.307 559.709 833.926 557.09 852.593 574.085C860.442 581.217 868.263 588.628 877.025 593.569C885.745 598.472 895.038 600.367 904.426 600.646C920.873 601.147 938.137 598.305 953.875 606.496C962.282 610.88 970.144 619.776 971.888 632.425C973.291 642.548 968.018 649.42 961.914 653.692C948.86 662.812 932.945 664.205 918.597 666.174C897.613 669.053 876.357 671.969 855.795 678.488C837.414 684.32 813.092 694.183 802.069 717.066C791.386 739.28 806.402 761.717 821.526 769.537C831.105 774.496 841.42 776.223 851.517 778.099C864.025 780.402 876.616 780.384 889.152 778.248C914.06 774.013 937.81 762.348 961.887 753.229C975.104 748.214 988.607 744.295 1002.3 742.79C1011.24 741.825 1021.84 740.599 1030.74 742.883C1041.18 745.558 1037.56 764.707 1042.88 774.236C1047.35 782.26 1054.16 787.367 1060.89 791.082C1076.62 799.775 1094.34 802.598 1111.21 802.895C1166.44 803.879 1223.5 782 1277.41 807.687C1298.46 817.717 1314.06 841.844 1335.44 850.815C1336.22 851.131 1336.54 849.497 1335.77 849.162C1313.73 839.912 1297.68 814.838 1275.73 805.124C1250.61 793.998 1223.5 792.345 1197.3 793.998C1169.31 795.744 1141.49 801.391 1113.43 801.223C1095.16 801.112 1075.59 798.419 1058.79 788.036C1050.01 782.613 1041.99 774.681 1040.4 760.937C1039.27 751.279 1038.44 742.846 1030.44 741.119C1022.4 739.391 1013.46 740.153 1005.37 740.803C992.858 741.787 980.459 744.945 968.332 749.124C943.165 757.798 918.747 770.614 892.98 775.833C878.769 778.712 864.557 778.842 850.331 776.186C840.235 774.292 829.92 772.471 820.436 767.122C809.508 760.956 797.49 746.505 799.875 728.563C801.932 713.091 813.637 702.838 823.052 696.096C845.985 679.677 872.623 675.108 897.995 671.077C912.724 668.737 927.713 667.437 942.293 663.666C952.158 661.122 967.936 657.035 972.406 642.622C977.556 626.054 964.176 610.062 954.188 604.862C939.526 597.265 923.257 598.955 907.887 598.992C897.014 599.011 886.222 597.247 876.18 591.266C866.901 585.731 858.943 577.354 850.4 570.092C834.444 556.533 814.386 558.056 796.605 562.328C776.765 567.101 757.771 576.425 738.163 582.499C717.697 588.833 695.882 594.702 674.803 593.42C663.916 592.77 653.015 589.687 643.354 582.629C638.572 579.137 634.171 574.754 630.246 569.665C626.131 564.334 622.929 557.833 618.542 552.874C604.343 536.826 584.763 538.238 567.513 540.448C557.116 541.767 546.788 543.457 536.337 543.42C524.182 543.383 511.865 542.751 500.037 547.246C476.642 556.124 461.939 585.749 439.198 595.909C426.648 601.518 413.172 599.382 400.296 597.804C388.305 596.336 376.791 596.392 364.882 598.862C351.256 601.686 337.521 606.218 323.65 604.75C311.7 603.487 299.764 598.101 289.422 589.928C270.809 575.218 255.861 547.079 267.253 517.769C272.226 504.991 280.034 495.444 289.013 488.163C295.063 483.259 301.495 478.802 306.781 472.375C310.556 467.787 313.799 461.788 313.118 454.544C312.314 446.001 307.054 439.017 301.794 435.005C287.664 424.232 269.624 421.595 253.736 419.756C230.613 417.081 205.964 420.48 184.217 407.311C173.629 400.903 163.028 389.518 165.89 371.928C168.124 358.165 176.777 347.188 185.075 339.777C205.8 321.278 229.618 310.542 253.886 304.877C275.483 299.825 297.393 300.029 319.017 295.906C325.721 294.625 334.129 292.581 338.448 284.613C342.781 276.608 341.677 268.974 337.14 261.879C329.877 250.549 322.969 238.792 326.566 222.577C329.809 207.922 340.274 198.208 350.016 192.209C373.685 177.61 401.359 176.31 426.88 178.446C453.791 180.712 480.307 187.473 506.918 192.989C518.909 195.478 531.091 197.038 543.15 194.549C554.922 192.135 565.401 184.687 576.669 179.95C601.209 169.642 626.99 187.38 651.353 174.731C659.569 170.459 666.15 162.621 671.287 153.018C677.365 141.651 680.689 127.665 687.107 116.744C697.095 99.7859 716.621 90.4248 719.359 66.799C722.425 40.3685 705.42 21.4047 692.762 5.43131C692.176 4.68836 691.277 5.89567 691.876 6.63862H691.903Z" fill="url(#paint4_linear_62_12225)"/>
<path d="M482.719 576.555C477.01 581.83 471.846 588.071 467.295 595.148C463.071 601.741 460.278 608.929 457.253 616.582C454.16 624.42 450.481 630.159 444.281 633.502C438.313 636.716 431.8 637.663 425.45 638.369C396.182 641.693 366.913 649.197 337.454 645.575C325.845 644.145 313.677 641.508 303.239 634.004C298.634 630.698 294.396 626.537 290.308 622.172C286.82 618.476 283.564 614.167 279.748 611.084C267.253 601.036 251.856 599.995 238.448 593.049C232.998 590.226 226.498 585.898 224.782 577.595C222.629 567.157 228.324 556.57 232.371 548.509C241.473 530.381 251.625 508.148 251.325 485.358C250.957 457.052 229.537 445.982 211.673 445.128C204.288 444.775 196.889 445.518 189.504 445.035C181.329 444.515 173.18 443.14 165.073 441.747C152.019 439.481 138.993 437.679 125.899 435.878C95.69 431.736 41.3772 415.502 53.9811 357.961C60.1946 329.617 80.9876 312.362 99.9412 301.924C109.411 296.705 119.276 292.73 129.278 289.888C136.213 287.919 143.285 287.344 150.275 285.821C157.333 284.26 163.847 281.047 170.264 276.812C176.628 272.615 182.773 267.748 189.341 264.126C196.031 260.43 202.98 258.461 210.175 257.83C225.626 256.456 241.678 258.517 256.884 262.158C261.844 263.346 266.845 263.904 271.832 264.721C276.587 265.501 281.37 266.281 286.166 266.374C289.586 266.448 294.056 266.578 296.999 263.774C300.065 260.857 300.351 254.877 299.356 250.419C297.83 243.565 294.056 238.16 292.298 231.455C290.268 223.691 293.156 214.906 295.99 208.219C302.49 192.84 312.532 181.863 324.523 175.251C336.745 168.49 350.003 165.76 363.084 164.293C378.591 162.547 394.206 162.324 409.753 162.955C442.687 164.274 475.416 169.698 508.077 175.233C515.599 176.514 523.039 177.703 530.628 177.461C537.509 177.238 544.363 176.087 551.121 174.397C565.224 170.849 578.959 164.887 593.13 161.878C607.069 158.906 621.295 157.476 633.299 146.35C641.434 138.809 648.301 128.408 651.026 115.295C656.3 89.9419 645.44 63.8644 632.781 46.275C625.955 36.7839 617.997 28.7786 609.236 22.9279C608.514 22.4449 607.873 23.9122 608.609 24.4137C626.881 36.5981 643.941 59.4067 649.514 86.6729C652.157 99.6188 651.571 113.456 646.598 125.251C640.003 140.908 627.713 151.05 615.109 155.229C608.418 157.457 601.551 158.46 594.752 159.835C587.339 161.321 580.063 163.661 572.773 166.039C558.561 170.682 544.309 175.53 529.62 175.79C521.812 175.938 514.127 174.564 506.401 173.245C498.348 171.889 490.309 170.533 482.256 169.252C465.701 166.614 449.104 164.293 432.467 162.77C416.225 161.284 399.942 160.578 383.659 161.135C370.047 161.599 356.299 162.64 342.904 166.224C330.873 169.438 318.773 174.917 308.935 185.207C300.514 194.029 291.957 208.405 290.526 223.19C289.913 229.524 291.753 234.631 294.069 239.981C296.576 245.776 301.495 255.545 296.808 261.768C294.056 265.427 288.278 264.758 284.817 264.591C279.994 264.368 275.197 263.513 270.415 262.752C264.228 261.749 258.124 260.635 251.979 259.204C244.744 257.514 237.372 256.994 230.055 256.381C215.788 255.193 201.522 255.323 188.142 262.938C182.078 266.392 176.355 270.813 170.469 274.751C163.547 279.394 156.543 282.793 148.899 284.353C141.827 285.802 134.714 286.508 127.711 288.569C123.105 289.925 118.541 291.523 114.017 293.38C94.5726 301.33 73.8613 313.886 61.012 336.193C50.3567 354.692 46.6777 381.94 57.7827 401.609C68.1929 420.034 86.4788 427.965 102.476 432.665C110.542 435.042 118.718 436.621 126.934 437.698C140.792 439.518 154.567 441.673 168.384 443.995C176.382 445.332 184.449 446.651 192.515 446.855C199.751 447.041 207 446.353 214.221 446.985C225.313 447.951 238.53 452.966 245.466 465.782C256.067 485.358 246.569 512.959 238.898 531.18C234.483 541.655 228.297 551.221 224.891 562.384C222.751 569.423 222.138 577.41 225.694 583.799C229.292 590.263 235.383 593.513 240.833 596.002C247.986 599.271 255.399 601.388 262.675 604.1C269.447 606.626 276.587 609.449 282.201 615.449C290.186 623.993 297.83 633.094 307.314 638.48C318.31 644.721 330.75 646.838 342.564 647.767C358.165 648.993 373.821 647.433 389.341 645.26C396.658 644.219 403.976 643.031 411.279 641.842C417.397 640.858 423.542 640.412 429.674 639.52C435.315 638.685 441.038 637.403 446.243 634.19C451.38 630.995 454.759 626.092 457.512 619.461C460.7 611.79 463.262 604.175 467.499 597.395C472.132 589.984 477.433 583.465 483.346 577.986C484.014 577.373 483.387 575.887 482.719 576.5V576.555Z" fill="url(#paint5_linear_62_12225)"/>
<path d="M1096.18 831.572C1081.79 842.104 1065.46 827.431 1054.84 814.503C1049.53 808.04 1044.61 800.796 1040.53 792.828C1036.72 785.38 1033.05 777.969 1027.9 772.062C1018.57 761.382 1006.96 759.599 995.188 760.138C975.389 761.048 955.7 765.376 936.201 769.926C914.904 774.886 893.634 780.365 872.091 782.891C851.285 785.324 830.655 780.012 809.807 780.755C799.343 781.126 788.742 781.609 778.427 778.637C770.388 776.334 760.618 771.988 755.536 762.497C747.673 747.824 758.465 729.826 765.864 719.48C775.252 706.348 786.507 694.74 798.28 685.88C815.53 672.879 834.879 667.083 854.214 663.146C867.663 660.397 880.471 657.778 893.184 650.813C899.806 647.172 911.497 641.303 913.936 630.828C916.825 618.42 900.488 613.665 894.928 611.957C876.574 606.31 859.242 616.6 841.12 618.68C822.629 620.798 807.368 609.226 790.813 600.032C773.413 590.374 755.713 589.631 737.141 591.005C716.729 592.51 696.44 596.522 676.001 597.302C665.251 597.711 654.432 597.228 643.817 594.813C636.2 593.086 629.864 589.371 624.468 581.7C616.32 570.11 611.156 554.805 599.179 549.549C580.348 541.284 558.723 548.379 539.525 549.772C530.954 550.385 522.438 549.957 513.935 551.833C506.55 553.449 499.342 556.384 492.57 560.693C477.84 570.073 467.471 585.749 455.807 600.589C443.149 616.674 427.547 622.265 410.76 625.776C389.722 630.159 368.016 631.162 346.773 629.565C335.818 628.747 324.781 627.187 314.044 624.011C305.228 621.411 297.638 615.746 290.062 609.301C283.263 603.524 276.518 597.952 268.683 595.222C259.908 592.176 250.302 591.247 243.325 582.443C220.12 553.115 250.942 501.48 271.967 487.866C281.178 481.903 292.801 477.316 299.409 466.041C305.895 454.99 300.69 441.617 292.937 434.819C280.497 423.897 263.505 423.359 249.252 421.984C229.209 420.053 207.258 419.533 189.053 406.42C175.536 396.668 170.154 377.036 178.793 358.945C188.645 338.328 208.988 331.14 225.53 326.181C245.219 320.275 265.399 318.584 285.279 314.368C296.739 311.935 308.253 309.799 319.698 307.236C336.213 303.54 366.299 293.714 357.66 261.935C355.63 254.468 351.855 248.301 348.435 241.968C344.974 235.56 341.363 228.112 343.462 219.846C346.31 208.702 355.739 200.604 363.097 195.571C371.272 189.961 380.32 186.989 389.408 185.894C407.258 183.72 425.231 188.16 442.44 194.345C443.217 194.623 443.557 192.97 442.767 192.692C412.259 181.733 370.7 174.081 346.786 209.724C343.366 214.813 340.818 221.091 341.759 228.167C342.685 235.151 346.323 240.965 349.362 246.481C356.57 259.576 362.565 277.202 351.651 289.999C342.808 300.364 329.577 303.354 318.431 305.787C306.754 308.332 295.022 310.635 283.331 313.049C262.892 317.266 242.153 318.993 222.001 325.531C206.767 330.472 189.122 337.437 179.175 355.23C172.58 367.025 170.699 382.942 177.376 395.443C186.764 413.05 206.413 417.75 221.115 420.406C239.837 423.786 259.186 422.56 277.649 428.504C285.129 430.918 293.482 434.837 298.183 443.679C302.148 451.127 302.148 459.652 297.502 466.45C289.762 477.78 277.649 481.439 267.988 488.701C256.924 497.041 247.467 511.956 241.159 526.647C234.945 541.098 230.885 559.709 237.493 575.236C246.364 596.057 264.704 592.343 278.589 602.15C286.138 607.48 292.964 614.557 300.649 619.59C309.193 625.181 318.54 627.243 327.86 628.914C348.503 632.648 369.528 632.611 390.28 630.549C407.749 628.822 427.275 626.463 443.081 615.356C456.379 606.013 465.168 588.535 476.75 576.109C490.676 561.176 507.136 553.226 524.795 552.019C534.81 551.332 544.757 551.091 554.772 549.846C565.523 548.509 576.369 547.134 587.161 548.453C596.154 549.549 604.029 552.409 610.502 561.362C614.862 567.38 618.146 574.642 622.247 580.957C632.848 597.265 648.654 598.454 663.752 599.048C684.436 599.865 705.011 596.076 725.6 593.81C745.684 591.6 766.668 589.687 785.921 599.271C801.632 607.109 816.362 619.943 833.53 620.705C852.879 621.559 871.383 608.558 890.786 612.607C897.163 613.944 907.055 616.321 911.538 623.454C914.931 628.859 911.511 634.319 908.214 637.904C898.866 648.12 885.894 653.487 874.394 657.109C857.593 662.403 840.343 663.462 823.679 670C807.804 676.24 793.484 686.53 780.348 700.108C767.704 713.184 738.054 747.062 758.588 769.035C773.14 784.618 794.11 783.002 811.483 782.389C832.685 781.646 853.506 786.958 874.694 784.265C916.157 778.99 956.981 762.032 998.771 761.735C1005.65 761.68 1012.71 762.497 1019.06 766.36C1025.79 770.465 1031.09 777.709 1035.45 785.677C1043.56 800.48 1051.3 814.355 1062.65 825.016C1072.56 834.321 1085.39 841.417 1096.86 833.021C1097.57 832.501 1096.95 831.015 1096.24 831.535L1096.18 831.572Z" fill="url(#paint6_linear_62_12225)"/>
<path d="M788.77 793.571C783.429 793.143 778.074 793.626 772.733 793.979C767.255 794.332 761.737 794.629 756.273 793.756C751.19 792.958 746.135 790.989 741.925 786.903C737.169 782.315 733.953 775.275 732.1 767.846C730.588 761.735 730.206 755.142 731.882 749.012C733.408 743.422 736.447 738.852 739.772 735.101C743.519 730.884 747.784 727.541 752.062 724.458C756.409 721.319 760.865 718.477 765.225 715.357C770.539 711.568 775.553 707.091 780.418 702.299C785.773 697.024 790.896 691.378 796.156 685.936C801.293 680.642 806.579 675.59 812.275 671.448C818.461 666.954 825.083 663.592 831.924 661.493C836.393 660.118 840.93 659.245 845.4 657.871C850.387 656.329 855.605 654.491 860.006 650.776C861.764 649.29 863.427 647.433 864.489 644.981C865.566 642.492 866.138 639.26 866.206 636.363C866.261 634.078 865.879 631.775 864.83 629.955C863.863 628.283 862.486 627.224 861.015 626.574C857.472 624.977 853.466 625.348 849.828 625.924C846.353 626.481 842.933 627.466 839.513 628.432C833.368 630.196 827.086 630.828 820.818 630.865C813.079 630.92 805.312 630.047 797.682 628.264C793.962 627.391 790.283 626.296 786.631 624.94C785.854 624.643 785.514 626.296 786.304 626.593C793.826 629.397 801.565 631.106 809.332 631.961C816.663 632.778 824.075 632.852 831.392 631.831C835.725 631.236 839.922 629.955 844.187 628.84C847.975 627.837 851.831 627.039 855.701 627.169C858.617 627.261 862.5 627.874 864.162 631.626C865.034 633.576 865.075 636.01 864.803 638.201C864.449 641.043 863.767 643.885 862.323 646.039C860.824 648.25 858.876 649.81 856.886 651.091C854.556 652.596 852.09 653.692 849.61 654.639C844.705 656.515 839.69 657.685 834.69 658.967C828.612 660.527 822.699 662.979 817.044 666.378C811.076 669.962 805.503 674.606 800.189 679.751C794.888 684.896 789.847 690.486 784.669 695.854C779.396 701.334 773.986 706.664 768.223 711.159C764.053 714.409 759.706 717.195 755.428 720.149C750.986 723.195 746.544 726.371 742.442 730.234C738.736 733.726 735.207 737.812 732.727 742.994C730.302 748.084 729.184 754.083 729.607 760.119C730.125 767.772 732.591 775.443 736.038 781.479C739.308 787.181 743.791 791.156 748.833 793.329C753.915 795.521 759.339 795.985 764.653 795.967C770.157 795.948 775.649 795.335 781.14 795.131C783.688 795.038 786.236 795.019 788.784 795.224C789.588 795.28 789.588 793.571 788.784 793.515L788.77 793.571Z" fill="url(#paint7_linear_62_12225)"/>
</g>
<defs>
<linearGradient id="paint0_linear_62_12225" x1="173.288" y1="256.325" x2="1209.6" y2="256.325" gradientUnits="userSpaceOnUse">
<stop stop-color="#FBDE96"/>
<stop offset="0.03" stop-color="#EAC57B"/>
<stop offset="0.08" stop-color="#D9AC62"/>
<stop offset="0.12" stop-color="#CF9E52"/>
<stop offset="0.15" stop-color="#CC994D"/>
<stop offset="0.36" stop-color="#F0CC83"/>
<stop offset="0.47" stop-color="#FFE098"/>
<stop offset="0.52" stop-color="#E5C073"/>
<stop offset="0.56" stop-color="#D0A654"/>
<stop offset="0.61" stop-color="#C1933D"/>
<stop offset="0.66" stop-color="#B88730"/>
<stop offset="0.7" stop-color="#B5842C"/>
<stop offset="0.73" stop-color="#B98830"/>
<stop offset="0.78" stop-color="#C6953D"/>
<stop offset="0.82" stop-color="#DFAE55"/>
</linearGradient>
<linearGradient id="paint1_linear_62_12225" x1="173.289" y1="416.802" x2="1209.61" y2="416.802" gradientUnits="userSpaceOnUse">
<stop stop-color="#FBDE96"/>
<stop offset="0.03" stop-color="#EAC57B"/>
<stop offset="0.08" stop-color="#D9AC62"/>
<stop offset="0.12" stop-color="#CF9E52"/>
<stop offset="0.15" stop-color="#CC994D"/>
<stop offset="0.36" stop-color="#F0CC83"/>
<stop offset="0.47" stop-color="#FFE098"/>
<stop offset="0.52" stop-color="#E5C073"/>
<stop offset="0.56" stop-color="#D0A654"/>
<stop offset="0.61" stop-color="#C1933D"/>
<stop offset="0.66" stop-color="#B88730"/>
<stop offset="0.7" stop-color="#B5842C"/>
<stop offset="0.73" stop-color="#B98830"/>
<stop offset="0.78" stop-color="#C6953D"/>
<stop offset="0.82" stop-color="#DFAE55"/>
</linearGradient>
<linearGradient id="paint2_linear_62_12225" x1="173.288" y1="476.164" x2="1209.6" y2="476.164" gradientUnits="userSpaceOnUse">
<stop stop-color="#FBDE96"/>
<stop offset="0.03" stop-color="#EAC57B"/>
<stop offset="0.08" stop-color="#D9AC62"/>
<stop offset="0.12" stop-color="#CF9E52"/>
<stop offset="0.15" stop-color="#CC994D"/>
<stop offset="0.36" stop-color="#F0CC83"/>
<stop offset="0.47" stop-color="#FFE098"/>
<stop offset="0.52" stop-color="#E5C073"/>
<stop offset="0.56" stop-color="#D0A654"/>
<stop offset="0.61" stop-color="#C1933D"/>
<stop offset="0.66" stop-color="#B88730"/>
<stop offset="0.7" stop-color="#B5842C"/>
<stop offset="0.73" stop-color="#B98830"/>
<stop offset="0.78" stop-color="#C6953D"/>
<stop offset="0.82" stop-color="#DFAE55"/>
</linearGradient>
<linearGradient id="paint3_linear_62_12225" x1="173.288" y1="454.674" x2="1209.6" y2="454.674" gradientUnits="userSpaceOnUse">
<stop stop-color="#FBDE96"/>
<stop offset="0.03" stop-color="#EAC57B"/>
<stop offset="0.08" stop-color="#D9AC62"/>
<stop offset="0.12" stop-color="#CF9E52"/>
<stop offset="0.15" stop-color="#CC994D"/>
<stop offset="0.36" stop-color="#F0CC83"/>
<stop offset="0.47" stop-color="#FFE098"/>
<stop offset="0.52" stop-color="#E5C073"/>
<stop offset="0.56" stop-color="#D0A654"/>
<stop offset="0.61" stop-color="#C1933D"/>
<stop offset="0.66" stop-color="#B88730"/>
<stop offset="0.7" stop-color="#B5842C"/>
<stop offset="0.73" stop-color="#B98830"/>
<stop offset="0.78" stop-color="#C6953D"/>
<stop offset="0.82" stop-color="#DFAE55"/>
</linearGradient>
<linearGradient id="paint4_linear_62_12225" x1="173.289" y1="428.133" x2="1209.61" y2="428.133" gradientUnits="userSpaceOnUse">
<stop stop-color="#FBDE96"/>
<stop offset="0.03" stop-color="#EAC57B"/>
<stop offset="0.08" stop-color="#D9AC62"/>
<stop offset="0.12" stop-color="#CF9E52"/>
<stop offset="0.15" stop-color="#CC994D"/>
<stop offset="0.36" stop-color="#F0CC83"/>
<stop offset="0.47" stop-color="#FFE098"/>
<stop offset="0.52" stop-color="#E5C073"/>
<stop offset="0.56" stop-color="#D0A654"/>
<stop offset="0.61" stop-color="#C1933D"/>
<stop offset="0.66" stop-color="#B88730"/>
<stop offset="0.7" stop-color="#B5842C"/>
<stop offset="0.73" stop-color="#B98830"/>
<stop offset="0.78" stop-color="#C6953D"/>
<stop offset="0.82" stop-color="#DFAE55"/>
</linearGradient>
<linearGradient id="paint5_linear_62_12225" x1="173.289" y1="335.672" x2="1209.61" y2="335.672" gradientUnits="userSpaceOnUse">
<stop stop-color="#FBDE96"/>
<stop offset="0.03" stop-color="#EAC57B"/>
<stop offset="0.08" stop-color="#D9AC62"/>
<stop offset="0.12" stop-color="#CF9E52"/>
<stop offset="0.15" stop-color="#CC994D"/>
<stop offset="0.36" stop-color="#F0CC83"/>
<stop offset="0.47" stop-color="#FFE098"/>
<stop offset="0.52" stop-color="#E5C073"/>
<stop offset="0.56" stop-color="#D0A654"/>
<stop offset="0.61" stop-color="#C1933D"/>
<stop offset="0.66" stop-color="#B88730"/>
<stop offset="0.7" stop-color="#B5842C"/>
<stop offset="0.73" stop-color="#B98830"/>
<stop offset="0.78" stop-color="#C6953D"/>
<stop offset="0.82" stop-color="#DFAE55"/>
</linearGradient>
<linearGradient id="paint6_linear_62_12225" x1="173.138" y1="510.265" x2="1209.45" y2="510.265" gradientUnits="userSpaceOnUse">
<stop stop-color="#FBDE96"/>
<stop offset="0.03" stop-color="#EAC57B"/>
<stop offset="0.08" stop-color="#D9AC62"/>
<stop offset="0.12" stop-color="#CF9E52"/>
<stop offset="0.15" stop-color="#CC994D"/>
<stop offset="0.36" stop-color="#F0CC83"/>
<stop offset="0.47" stop-color="#FFE098"/>
<stop offset="0.52" stop-color="#E5C073"/>
<stop offset="0.56" stop-color="#D0A654"/>
<stop offset="0.61" stop-color="#C1933D"/>
<stop offset="0.66" stop-color="#B88730"/>
<stop offset="0.7" stop-color="#B5842C"/>
<stop offset="0.73" stop-color="#B98830"/>
<stop offset="0.78" stop-color="#C6953D"/>
<stop offset="0.82" stop-color="#DFAE55"/>
</linearGradient>
<linearGradient id="paint7_linear_62_12225" x1="173.289" y1="710.62" x2="1209.61" y2="710.62" gradientUnits="userSpaceOnUse">
<stop stop-color="#FBDE96"/>
<stop offset="0.03" stop-color="#EAC57B"/>
<stop offset="0.08" stop-color="#D9AC62"/>
<stop offset="0.12" stop-color="#CF9E52"/>
<stop offset="0.15" stop-color="#CC994D"/>
<stop offset="0.36" stop-color="#F0CC83"/>
<stop offset="0.47" stop-color="#FFE098"/>
<stop offset="0.52" stop-color="#E5C073"/>
<stop offset="0.56" stop-color="#D0A654"/>
<stop offset="0.61" stop-color="#C1933D"/>
<stop offset="0.66" stop-color="#B88730"/>
<stop offset="0.7" stop-color="#B5842C"/>
<stop offset="0.73" stop-color="#B98830"/>
<stop offset="0.78" stop-color="#C6953D"/>
<stop offset="0.82" stop-color="#DFAE55"/>
</linearGradient>
</defs>
</svg>
