<svg width="1613" height="884" viewBox="0 0 1613 884" fill="none" xmlns="http://www.w3.org/2000/svg">
<g opacity="0.2">
<path d="M804.47 1.71634C795.294 8.29098 788.38 17.893 785.419 29.8907C782.703 40.9413 783.321 52.7534 785.777 63.7854C788.234 74.7989 792.496 85.3109 798.141 94.6714C801.183 99.7231 804.925 104.032 808.195 108.861C812.132 114.692 815.386 121.063 818.77 127.322C822.397 134.045 826.172 140.805 831.133 146.358C835.607 151.373 841.122 155.013 846.832 157.836C859.31 164.002 873.171 166.77 886.69 167.512C902.145 168.385 917.453 167.531 932.599 171.821C939.855 173.883 946.964 176.539 954.187 178.712C962.061 181.07 970.033 182.426 978.151 183.132C1010.2 185.899 1042 178.972 1073.63 174.013C1101.76 169.611 1130.28 168.2 1158.5 172.286C1182.25 175.721 1205.71 183.225 1227.19 195.445C1235.83 200.367 1244.68 206.422 1250.71 215.225C1255.3 221.911 1258.28 231.104 1255.22 239.332C1252.04 247.82 1245.18 253.744 1240.19 260.746C1237.68 264.275 1235.21 268.472 1235.17 273.171C1235.14 277.758 1237.52 282.401 1240.77 285.02C1247.33 290.313 1256.81 291.056 1264.54 291.651C1274.06 292.393 1283.62 292.133 1293.16 291.651C1338.84 289.422 1386.47 287.546 1429.73 306.936C1459.4 320.252 1502.71 349.095 1486.07 392.852C1474.21 424.053 1437.33 429.588 1411.38 431.984C1394.52 433.544 1377.59 433.6 1360.69 433.692C1347.18 433.767 1333.32 433.34 1319.95 435.773C1307.42 438.057 1294.13 438.707 1282.13 443.666C1276.66 445.932 1270.04 449.999 1270.15 457.632C1270.35 469.76 1281.13 477.561 1289.36 482.464C1294.41 485.472 1298.95 488.63 1303.03 493.18C1307.81 498.51 1311.93 504.491 1315.41 510.991C1315.91 511.938 1314.61 512.792 1314.11 511.845C1310.29 504.676 1305.65 498.139 1300.22 492.474C1295.37 487.423 1289.35 484.581 1283.7 480.922C1276.74 476.409 1269.53 468.349 1268.72 458.691C1267.43 443.684 1286.47 439.859 1295.81 438.057C1302.15 436.831 1308.58 436.237 1314.92 435.048C1320.27 434.045 1325.53 433.135 1330.96 432.745C1346.26 431.631 1361.61 432.04 1376.92 431.835C1394.18 431.594 1411.56 430.999 1428.65 428.009C1443.46 425.428 1459.06 421.156 1471.33 410.848C1482.97 401.061 1489.55 384.884 1487.97 368.318C1485.74 344.898 1465.66 329.037 1449.01 318.859C1429.48 306.954 1407.96 298.931 1386.03 295.495C1371.24 293.173 1356.28 292.523 1341.36 292.338C1329.99 292.208 1318.53 291.966 1307.18 292.542C1289.3 293.471 1270.87 295.476 1253.13 291.762C1246.84 290.443 1239.83 288.252 1236.13 281.789C1231.97 274.527 1233.97 267.079 1238.31 260.653C1243.42 253.094 1251.28 246.835 1254.19 237.605C1257.62 226.777 1250.39 215.819 1243.55 209.189C1235.53 201.407 1225.77 196.077 1216.11 191.489C1205.01 186.233 1193.67 181.813 1181.96 178.693C1153.3 171.06 1123.43 170.001 1094.19 172.917C1063.09 176.019 1032.5 184.023 1001.22 185.231C985.992 185.806 970.456 185.045 955.619 180.81C948.168 178.674 940.864 175.926 933.413 173.734C925.246 171.338 917.03 170.131 908.62 169.76C883.274 168.627 853.893 169.76 832.907 150.37C822.837 141.065 817.387 127.006 810.277 115.008C804.356 105.016 796.905 96.8443 791.862 86.1095C783.109 67.4627 778.294 43.6715 785.777 23.4275C789.421 13.5656 795.815 5.78372 803.705 0.137702C804.518 -0.456616 805.283 1.02918 804.453 1.6235L804.47 1.71634Z" fill="url(#paint0_linear_62_12216)"/>
<path d="M0.25923 816.433C28.436 801.166 53.9611 780.013 82.8212 766.306C114.675 751.188 150.075 747.975 184.238 748.421C201.743 748.644 219.215 749.944 236.655 751.411C253.444 752.823 270.33 754.494 287.136 752.358C321.234 748.031 351.054 725.985 384.957 720.822C416.86 715.975 449.526 723.125 479.542 735.457C506.547 746.545 533.178 766.455 562.722 766.362C576.403 766.325 591.338 759.843 599.407 746.582C603.685 739.562 602.921 732.226 597.845 726.115C586.392 712.279 566.366 706.874 550.83 702.287C521.514 693.614 491.58 691.886 461.842 686.11C440.042 681.876 391.221 672.794 394.409 636.856C396.508 613.158 416.209 601.216 434.153 594.975C447.851 590.202 461.76 587.751 476.093 587.528C494.248 587.249 512.387 588.605 529.372 579.913C542.337 573.283 553.904 563.755 567.586 558.871C580.682 554.19 594.478 552.482 608.159 552.333C637.849 551.999 667.213 558.685 696.285 564.795C721.81 570.144 747.384 576.886 773.169 580.322C797.279 583.535 831.02 585.132 849.582 563.309C853.503 558.703 853.519 552.055 856.968 547.207C859.782 543.251 864.272 540.725 868.372 539.017C879.158 534.504 891.261 534.782 902.568 535.469C914.59 536.212 926.613 538.367 938.667 538.274C953.911 538.162 969.089 536.212 984.365 536.658C999.576 537.085 1015.08 539.314 1029.23 545.981C1042.33 552.147 1051.03 565.297 1063.56 572.391C1096.29 590.927 1135.24 580.006 1168.96 571.797C1188.01 567.154 1206.98 566.764 1226.24 563.997C1242.5 561.675 1270.17 556.586 1270.64 532.331C1270.95 516.785 1258.55 506.775 1248.58 498.826C1239.57 491.638 1230.39 484.451 1224.7 473.382C1215.15 454.828 1225.67 438.54 1239.96 428.826C1255.36 418.333 1273.94 412.557 1291.77 411.22C1310.14 409.864 1328.65 409.548 1346.71 405.035C1362.12 401.191 1385.23 390.846 1376.77 367.853C1369.39 347.758 1345.23 338.843 1328.64 333.048C1311.1 326.92 1293.01 323.038 1274.92 319.843C1250.86 315.609 1226.16 315.739 1202.52 308.533C1192 305.32 1181.49 300.602 1173.18 292.338C1167.21 286.394 1160.05 277.387 1163.19 267.618C1165.97 258.944 1174.28 253.336 1179.83 247.207C1184.55 241.988 1188.84 235.952 1189.67 228.244C1190.73 218.271 1185.3 209.746 1178.82 203.71C1151.77 178.526 1109.92 189.706 1078.82 195.427C1064.02 198.157 1049.16 199.345 1034.29 201.37C1019.07 203.431 1003.89 206.069 988.595 207.294C974.441 208.427 959.963 208.52 946.053 204.899C940.001 203.32 934.194 201.203 929.069 197.098C922.432 191.787 917.307 185.676 909.417 182.63C891.424 175.684 873.626 181.293 855.601 184.506C841.757 186.976 827.815 184.952 814.881 178.841C804.014 173.716 792.399 166.769 787.518 153.899C782.54 140.805 778.749 129.643 766.646 123.44C750.491 115.175 727.878 115.491 721.55 92.6283C714.018 65.4011 734.044 37.0782 745.936 15.7013C746.457 14.7727 747.742 15.627 747.238 16.5556C734.922 38.694 706.404 80.8162 730.156 105.035C744.765 119.93 768.956 114.729 781.076 134.193C784.118 139.078 785.924 144.631 787.827 150.166C790.804 158.839 794.953 164.355 801.981 169.332C816.622 179.696 833.476 185.379 850.753 183.503C866.989 181.739 882.395 175.591 898.924 178.117C905.529 179.12 912.394 181.163 918.072 185.268C924.498 189.929 929.541 196.671 936.732 199.977C965.087 213.033 999.771 204.62 1028.97 200.441C1044.67 198.194 1060.44 197.08 1076.09 194.238C1092.11 191.341 1108.1 187.831 1124.34 186.958C1138.87 186.178 1154.24 187.441 1167.74 194.127C1177.42 198.918 1188 207.703 1190.76 219.998C1193.36 231.569 1187.43 241.393 1180.42 248.99C1174.25 255.657 1162.26 263.68 1164.15 275.084C1166.67 290.258 1184.42 300.045 1195.84 304.447C1208.9 309.48 1222.7 311.653 1236.35 313.324C1255.67 315.702 1274.87 317.689 1293.98 321.794C1313.43 325.972 1333.16 331.265 1351.15 340.849C1363.74 347.572 1379.78 358.864 1380.06 376.842C1380.32 394.115 1364.12 401.711 1351.82 405.407C1333.99 410.774 1315.3 411.48 1296.98 412.594C1277.96 413.746 1258.78 418.556 1242.09 429.421C1233.45 435.03 1223.9 443.443 1222.5 455.496C1220.79 470.113 1231.79 482.817 1241.23 490.784C1254.89 502.318 1278.2 516.507 1271.03 540.261C1265.66 558.053 1245.02 562.622 1230.88 565C1212.4 568.12 1193.66 567.655 1175.34 572.02C1144.69 579.319 1112.69 589.051 1081.37 581.028C1066.54 577.239 1056.08 569.253 1044.46 558.629C1030.63 545.981 1013.88 540.93 996.453 539.128C979.696 537.382 962.858 538.664 946.118 539.648C934.031 540.354 922.171 538.831 910.133 537.754C897.801 536.658 884.754 535.618 872.65 539.277C865.639 541.413 858.66 545.276 855.829 553.373C853.795 559.205 852.445 563.105 848.02 567.061C829.328 583.832 803.754 585.076 781.059 582.903C756.364 580.545 732.206 573.691 707.852 568.863C677.707 562.882 647.659 555.212 616.96 554.135C601.863 553.615 586.587 554.673 571.962 559.205C556.816 563.904 544.355 574.119 530.201 581.38C515.901 588.717 500.918 589.218 485.447 589.199C469.244 589.181 453.691 590.518 438.041 595.477C418.779 601.587 390.277 617.764 396.508 646.124C400.396 663.842 419.088 671.94 432.705 676.731C463.712 687.633 496.249 687.559 527.842 694.598C543.59 698.108 559.387 702.287 574.402 708.806C584.538 713.208 601.896 720.636 603.832 734.993C606.386 753.918 581.235 766.157 568.774 767.699C541.134 771.079 514.958 753.38 490.295 741.92C459.434 727.601 425.661 718.445 392.18 721.639C356.748 725.02 326.05 747.994 291.056 753.51C257.657 758.784 223.12 751.04 189.607 750.222C154.256 749.349 117.457 751.987 84.3992 767.439C55.23 781.071 29.5423 802.504 1.13772 817.9C0.275497 818.365 -0.489115 816.897 0.389377 816.415L0.25923 816.433Z" fill="url(#paint1_linear_62_12216)"/>
<path d="M916.966 70.0631C896.874 71.8275 875.579 89.8242 879.402 115.38C883.55 143.071 913.191 150.965 933.82 152.135C959.117 153.565 984.219 147.919 1009.13 143.796C1039.09 138.837 1069.48 135.568 1099.71 133.302C1129.97 131.036 1161.17 129.551 1191.3 134.249C1211.85 137.444 1240.61 143.536 1250.82 167.011C1254.86 176.297 1256.44 186.735 1261.07 195.743C1267.47 208.205 1278.53 215.745 1290.45 219.59C1312.86 226.796 1336.71 223.23 1359.6 222.598C1371.21 222.283 1382.22 223.824 1393.03 228.95C1403.28 233.798 1412.73 240.577 1423.04 245.313C1447.62 256.567 1473.78 255.472 1499.71 257.44C1523.35 259.242 1545.71 265.854 1564.02 283.85C1581.33 300.863 1594.66 324.301 1603.46 348.185C1611.45 369.859 1616.73 395.694 1609.75 418.649C1603.73 438.447 1588.13 452.228 1572.74 462.257C1531.42 489.15 1483.14 498.009 1436.24 499.365C1418.49 499.885 1400.98 499.105 1383.41 502.336C1369.89 504.807 1352.14 508.02 1341.88 519.349C1328.02 534.671 1350.55 551.423 1359.58 560.58C1365.58 566.671 1372.71 574.063 1374.33 583.517C1375.72 591.596 1371.85 599.303 1366.4 604.188C1358.96 610.855 1349.07 613.827 1340.04 616.241C1329.14 619.157 1318.08 621.349 1307.06 623.577C1300.25 624.952 1293.07 626.512 1287.05 630.579C1281.34 634.442 1278.45 640.274 1274.67 646.18C1268.69 655.522 1260.6 661.558 1250.65 663.787C1238.95 666.424 1226.7 665.217 1214.86 666.127C1199.17 667.315 1183.47 668.281 1167.76 668.801C1143.88 669.6 1119.57 670.306 1095.82 666.795C1077.71 664.121 1056.17 658.921 1043.7 642.243C1035.43 631.192 1036.05 617.04 1032.89 603.761C1029.28 588.513 1019.18 577.425 1006.9 570.924C996.193 565.26 984.496 562.957 972.847 561.434C963.135 560.171 953.472 558.592 943.711 557.961C933.136 557.274 921.033 556.735 911.19 561.935C899.493 568.101 902.064 582.495 895.329 592.728C867.933 634.386 813.076 609.388 776.716 604.541C756.95 601.903 736.533 605.246 718.02 613.585C708.503 617.876 698.14 624.172 692.95 634.739C686.882 647.071 690.721 660.332 699.165 669.655C714.197 686.278 735.606 691.404 755.193 696.864C773.235 701.879 792.594 708.268 803.949 726.394C814.345 742.998 818.021 767.309 808.212 785.269C799.28 801.613 782.524 810.453 766.939 815.802C742.943 824.03 717.157 825.255 692.283 825.144C661.487 825.014 630.789 821.764 600.058 819.721C584.375 818.681 568.709 818.514 553.026 817.882C538.14 817.269 523.304 815.709 508.418 815.17C477.004 814.038 447.103 820.649 418.487 835.526C394.767 847.858 373.423 865.037 353.104 883.517C352.356 884.204 351.298 882.997 352.047 882.31C394.084 844.032 441.669 813.759 496.802 813.276C512.388 813.146 527.924 814.706 543.476 815.672C559.192 816.638 574.923 816.526 590.655 817.418C621.402 819.164 652.068 822.562 682.864 823.287C709.739 823.918 737.672 823.324 763.75 815.059C781.287 809.506 801.46 799.403 809.334 779.214C819.014 754.42 806.259 723.906 786.64 711.221C768.712 699.613 747.498 698.09 728.301 690.475C713.107 684.439 692.251 673.11 688.785 652.996C685.353 633.049 701.345 619.714 715.417 612.954C732.873 604.559 752.948 600.455 771.852 602.275C793.993 604.411 815.467 611.895 837.625 613.864C859.571 615.833 891.164 610.112 898.078 581.492C900.47 571.574 902.893 563.867 911.76 559.781C920.154 555.918 929.818 555.695 938.733 555.992C948.982 556.327 959.133 557.831 969.301 559.242C979.501 560.654 989.62 562.028 999.414 565.761C1009.22 569.494 1018.64 575.289 1025.48 584.315C1033.32 594.679 1034.94 606.676 1036.98 619.714C1039.37 635.036 1046.45 645.809 1058.39 653.07C1068.42 659.162 1079.76 662.301 1090.94 664.288C1114.63 668.504 1139.01 667.91 1162.89 667.223C1178.64 666.777 1194.37 665.922 1210.09 664.752C1223.28 663.787 1237.26 665.068 1250.24 662.115C1256.71 660.648 1262.68 657.676 1267.65 652.606C1272.25 647.907 1275 641.797 1278.82 636.411C1285.88 626.475 1297.21 623.744 1307.73 621.683C1318.39 619.584 1329.11 617.374 1339.65 614.551C1350.13 611.747 1363.48 608.125 1369.99 597.409C1383.27 575.605 1351.15 557.404 1341.28 543.753C1320.23 514.706 1367.79 503.339 1384.11 500.442C1400.71 497.508 1417.17 498.102 1433.93 497.675C1461.84 496.969 1489.56 494.202 1516.57 485.751C1554.02 474.013 1609.38 451.819 1611.35 399.074C1612.41 370.751 1601.47 342.428 1588.23 319.138C1574.04 294.158 1555.09 272.763 1529.44 264.405C1505.1 256.475 1479.38 259.539 1454.5 255.973C1442.56 254.264 1430.88 250.996 1419.82 245.591C1409.31 240.447 1399.58 233.278 1388.81 228.876C1366.41 219.72 1341.28 226.294 1318.01 225.496C1298.07 224.809 1275.11 220.556 1262.36 201.054C1257.07 192.957 1254.91 183.373 1251.83 174.087C1246.86 158.988 1237.79 151.187 1224.78 145.504C1196.5 133.154 1165.48 132.745 1135.6 133.284C1102.95 133.878 1070.39 137.407 1037.95 141.511C1012.48 144.724 987.212 150.24 961.687 152.896C939.692 155.181 914.346 155.831 894.808 142.124C881.159 132.541 873.708 114.73 879.63 97.0117C885.535 79.3493 901.088 69.7474 916.949 68.3544C917.909 68.2616 917.909 69.9888 916.949 70.0631H916.966Z" fill="url(#paint2_linear_62_12216)"/>
<path d="M912.54 42.2601C900.681 43.8759 890.285 53.1993 882.281 62.7641C874.375 72.1989 867.51 83.5652 865.281 96.5659C860.4 125.037 880.362 144.743 901.82 154.01C924.27 163.705 949.453 164.597 973.173 163.501C998.6 162.331 1023.85 157.781 1049 153.639C1102.99 144.743 1159.22 135.104 1213.18 149.386C1224.29 152.32 1237.13 155.496 1246.33 163.668C1251.85 168.571 1254.84 175.257 1256.91 182.723C1259.84 193.291 1261.92 204.286 1267.81 213.405C1275.18 224.827 1287.36 228.467 1299.13 229.916C1310.79 231.346 1322.65 231.792 1334.36 231.513C1347.25 231.216 1360.44 230.25 1373.13 233.408C1383.79 236.063 1392.99 242.434 1402.22 248.804C1413.56 256.66 1424.38 262.176 1437.76 263.346C1451.69 264.572 1465.73 264.331 1479.56 266.838C1493.58 269.382 1506.58 275.548 1519.17 282.829C1539.56 294.622 1563.63 306.806 1576.84 329.167C1587.38 347.015 1588.54 368.801 1584.24 389.305C1580.06 409.233 1572.32 431.761 1558.15 445.189C1530.54 471.339 1487.81 468.33 1454.28 467.012C1422.6 465.767 1389.46 463.78 1358.24 471.58C1344.5 475.016 1327.56 481.814 1323.43 499.086C1321.15 508.595 1323.14 520.482 1327.51 528.839C1332.67 538.683 1341.88 544.979 1349.43 552.148C1359.27 561.508 1370.84 580.693 1358.83 593.917C1349.25 604.466 1332.31 603.575 1320.03 604.893C1308.87 606.082 1299.13 610.391 1289.9 617.615C1280.61 624.877 1271.94 632.213 1261.48 637.247C1238.64 648.241 1213.59 654.723 1188.96 657.528C1164.21 660.332 1138.93 659.961 1114.3 655.893C1098.03 653.2 1074.13 650.21 1064.34 632.752C1060.18 625.342 1058.29 616.408 1055.18 608.422C1049.91 594.827 1041.86 583.108 1031.66 573.877C1019.46 562.808 1005.58 557.571 990.108 556.475C976.41 555.509 962.631 556.958 948.965 555.286C938.554 554.005 928.239 551.386 917.697 551.702C911.629 551.888 905.399 553.021 899.981 556.308C892.254 560.988 889.26 568.528 885.877 577.183C876.636 600.863 845.141 604.373 825.537 602.312C800.028 599.637 775.203 593.026 749.418 593.378C723.632 593.731 697.261 600.417 678.357 621.738C669.393 631.86 661.52 645.734 662.691 660.741C664.025 677.846 677.007 690.271 689.745 697.198C701.279 703.476 713.92 706.41 725.877 711.388C735.931 715.566 745.529 721.361 753.745 729.236C760.691 735.885 767.199 744.669 768.517 755.256C769.948 766.845 764.271 777.45 757.047 785.046C742.259 800.554 720.639 804.138 701.328 804.25C676.649 804.398 651.872 799.235 627.567 794.908C598.252 789.67 568.953 784.043 539.328 781.61C510.289 779.233 480.778 779.994 452.39 787.962C424.75 795.706 397.5 807.24 371.715 820.909C347.117 833.966 323.691 849.715 302.005 868.362C301.24 869.03 300.492 867.545 301.257 866.876C345.295 829.025 397.484 801.947 450.893 786.625C506.059 770.782 563.698 781.684 618.864 791.62C644.666 796.264 670.841 801.947 697.033 802.504C719.63 802.987 747.579 799.161 761.83 776.391C781.092 745.617 744.309 720.34 722.737 711.926C702.093 703.866 676.519 698.796 665.001 674.8C654.069 652.03 668.482 627.737 684.133 613.678C701.54 598.04 723.811 592.598 745.529 591.781C771.51 590.797 796.547 596.87 822.186 600.232C836.502 602.107 850.883 600.807 864.5 595.236C871.691 592.301 878.735 588.03 882.834 580.359C885.86 574.676 886.885 568.194 890.611 562.92C904.016 543.976 928.321 550.643 946.427 553.262C971.952 556.958 998.942 549.603 1022.43 564.758C1041.66 577.146 1053.02 596.759 1060.7 619.733C1063.79 628.982 1067.29 636.875 1075.09 641.964C1085.13 648.501 1097.59 651.064 1108.88 653.256C1159.61 663.081 1217.43 658.586 1264.62 633.866C1275.11 628.369 1283.64 619.826 1293.38 613.009C1301.42 607.382 1310.12 604.336 1319.48 603.296C1331.89 601.903 1356.19 603.389 1361.34 586.488C1368.82 561.88 1338.87 548.675 1328.39 533.371C1320.39 521.689 1317.95 502.411 1325.58 489.744C1332.95 477.524 1346.94 472.546 1359.03 469.686C1373.28 466.306 1387.85 465.6 1402.35 464.746C1439.41 462.573 1476.76 469.537 1513.66 463.297C1531.37 460.307 1549.84 453.751 1562.33 438.317C1569.67 429.235 1574.24 417.33 1578.08 405.927C1582.03 394.171 1584.88 381.746 1585.14 369.098C1585.71 341.815 1572.4 319.974 1552.6 305.877C1527.58 288.085 1499.94 270.497 1470.19 267.265C1456.55 265.779 1442.48 266.745 1428.98 263.978C1418.01 261.749 1408.53 255.212 1399.16 248.711C1387.59 240.688 1376.3 234.763 1362.64 233.426C1349.35 232.126 1336.01 233.668 1322.7 233.296C1304.71 232.795 1280.35 233.575 1267.71 216.135C1256.29 200.386 1258.99 174.979 1243.19 163.241C1232.34 155.18 1217.73 152.005 1205.21 149.219C1190.7 146.006 1175.93 144.464 1161.15 144.074C1132.02 143.294 1102.95 146.879 1074.12 151.317C1025.98 158.746 976.361 171.171 927.654 163.037C907.188 159.619 885.844 151.54 871.853 133.154C859.863 117.423 860.953 95.693 869.901 78.3835C878.686 61.3897 894.548 42.9844 912.54 40.5329C913.5 40.4029 913.484 42.1115 912.54 42.2415V42.2601Z" fill="url(#paint3_linear_62_12216)"/>
<path d="M786.916 6.63791C769.216 25.3589 741.495 54.4619 762.465 83.1378C769.672 92.9812 779.53 99.7044 787.713 108.378C796.043 117.2 800.272 128.362 805.787 139.468C812.23 152.432 820.104 164.671 832.142 171.301C847.028 179.51 864.012 178.433 879.987 176.557C894.45 174.867 908.587 172.973 922.789 177.579C935.706 181.757 947.696 189.131 960.939 192.121C978.915 196.188 997.282 193.272 1015.14 189.874C1030.65 186.939 1046.17 184.135 1061.75 181.683C1091.56 177.003 1121.95 173.66 1151.96 177.801C1174.84 180.959 1203.37 187.868 1218.61 209.635C1224.45 217.974 1227.02 228.226 1224.94 238.738C1223.87 244.142 1221.83 249.342 1218.87 253.744C1215.83 258.276 1211.62 261.879 1208.97 266.745C1199.89 283.404 1219.91 292.003 1230.73 293.935C1242.97 296.126 1255.56 296.275 1267.89 297.426C1295.81 300.045 1323.87 304.168 1350.44 314.773C1363.73 320.085 1376.55 326.938 1388.57 335.296C1397.44 341.443 1405.76 348.779 1411.46 358.846C1416 366.887 1418.67 376.786 1415.82 386.147C1412.42 397.346 1402.79 404.162 1393.77 408.75C1369.16 421.249 1341.39 419.076 1315.13 420.989C1294.73 422.475 1270.01 424.833 1252.16 437.258C1242.95 443.666 1236.54 456.165 1244.22 467.011C1249.83 474.96 1258.6 479.901 1266.17 484.952C1283.07 496.263 1299.71 514.018 1300.31 537.995C1300.93 562.288 1283.78 581.51 1266.44 592.45C1255.71 599.21 1243.76 603.816 1231.61 605.747C1217.47 607.995 1203.29 605.45 1189.35 602.776C1173.09 599.656 1157.41 597.371 1140.92 598.857C1126.83 600.12 1112.54 602.553 1098.44 600.176C1070.7 595.533 1052.94 568.343 1028.91 554.71C1013.53 545.981 996.924 544.923 980.07 544.997C967.023 545.071 954.252 544.236 941.27 542.75C916.64 539.927 888.219 536.862 870.031 560.134C861.783 570.683 853.584 579.857 842.228 585.968C832.76 591.057 822.462 593.712 812.051 594.715C787.73 597.056 763.294 591.168 739.543 586.023C715.84 580.879 693.064 571.388 669.458 565.705C644.356 559.669 617.351 557.05 595.063 574.044C585.693 581.176 576.355 588.586 565.894 593.527C555.482 598.43 544.387 600.324 533.178 600.603C513.542 601.104 492.93 598.263 474.14 606.453C464.103 610.836 454.716 619.732 452.634 632.38C450.958 642.502 457.254 649.374 464.542 653.646C480.127 662.765 499.129 664.158 516.259 666.126C541.313 669.005 566.691 671.921 591.24 678.44C613.186 684.272 642.225 694.134 655.386 717.015C668.141 739.227 650.213 761.663 632.155 769.482C620.718 774.441 608.403 776.168 596.348 778.044C581.414 780.347 566.382 780.328 551.415 778.192C521.677 773.958 493.321 762.294 464.575 753.175C448.794 748.161 432.672 744.242 416.323 742.738C405.651 741.772 392.994 740.546 382.371 742.83C369.909 745.505 374.22 764.653 367.875 774.181C362.539 782.204 354.405 787.311 346.369 791.026C327.595 799.718 306.43 802.541 286.29 802.838C220.354 803.822 152.222 781.944 87.8643 807.63C62.7297 817.659 44.1024 841.784 18.5773 850.755C17.65 851.071 17.2596 849.436 18.1869 849.102C44.4928 839.853 63.657 814.78 89.8653 805.067C119.864 793.942 152.222 792.289 183.506 793.942C216.921 795.688 250.141 801.334 283.638 801.167C305.454 801.055 328.815 798.362 348.874 787.98C359.367 782.557 368.933 774.627 370.836 760.883C372.187 751.225 373.179 742.793 382.728 741.066C392.327 739.339 402.999 740.1 412.662 740.75C427.597 741.735 442.401 744.892 456.88 749.071C486.927 757.744 516.08 770.559 546.844 775.778C563.812 778.657 580.78 778.787 597.764 776.131C609.819 774.237 622.134 772.416 633.457 767.068C646.504 760.902 660.852 746.452 658.005 728.511C655.549 713.04 641.574 702.788 630.333 696.047C602.953 679.629 571.149 675.06 540.857 671.03C523.271 668.689 505.376 667.389 487.969 663.619C476.19 661.075 457.351 656.989 452.015 642.577C445.866 626.01 461.842 610.019 473.766 604.819C491.271 597.223 510.695 598.913 529.046 598.95C542.028 598.968 554.913 597.204 566.903 591.224C577.981 585.689 587.482 577.313 597.682 570.051C616.733 556.493 640.68 558.016 661.91 562.288C685.597 567.061 708.275 576.384 731.685 582.458C756.12 588.791 782.166 594.66 807.333 593.378C820.331 592.728 833.346 589.645 844.88 582.588C850.59 579.096 855.845 574.713 860.53 569.624C865.443 564.294 869.267 557.793 874.505 552.835C891.457 536.788 914.834 538.2 935.43 540.41C947.843 541.728 960.174 543.418 972.652 543.381C987.163 543.344 1001.87 542.713 1015.99 547.207C1043.92 556.085 1061.48 585.708 1088.63 595.867C1103.61 601.476 1119.7 599.34 1135.08 597.761C1149.39 596.294 1163.14 596.35 1177.36 598.82C1193.63 601.643 1210.02 606.175 1226.58 604.707C1240.85 603.444 1255.1 598.058 1267.45 589.887C1289.67 575.177 1307.52 547.04 1293.92 517.733C1287.98 504.955 1278.66 495.409 1267.94 488.128C1260.72 483.225 1253.04 478.768 1246.73 472.342C1242.22 467.754 1238.35 461.755 1239.16 454.512C1240.12 445.969 1246.4 438.986 1252.68 434.974C1269.55 424.202 1291.09 421.565 1310.06 419.726C1337.67 417.051 1367.09 420.45 1393.06 407.282C1405.7 400.875 1418.36 389.49 1414.94 371.902C1412.27 358.14 1401.94 347.163 1392.03 339.753C1367.29 321.255 1338.85 310.52 1309.88 304.855C1284.09 299.804 1257.93 300.008 1232.12 295.885C1224.11 294.603 1214.07 292.56 1208.92 284.593C1203.74 276.588 1205.06 268.955 1210.48 261.86C1219.15 250.531 1227.4 238.775 1223.1 222.561C1219.23 207.907 1206.74 198.194 1195.11 192.195C1166.85 177.597 1133.81 176.297 1103.34 178.433C1071.21 180.699 1039.55 187.459 1007.78 192.975C993.459 195.464 978.915 197.024 964.518 194.535C950.462 192.121 937.952 184.673 924.498 179.937C895.198 169.63 864.419 187.366 835.331 174.718C825.521 170.447 817.663 162.609 811.53 153.007C804.274 141.641 800.305 127.656 792.643 116.735C780.718 99.7787 757.405 90.4181 754.135 66.794C750.475 40.3654 770.778 21.403 785.891 5.43069C786.591 4.68779 787.664 5.89501 786.949 6.63791H786.916Z" fill="url(#paint4_linear_62_12216)"/>
<path d="M1036.67 576.515C1043.48 581.789 1049.65 588.03 1055.08 595.106C1060.13 601.699 1063.46 608.886 1067.07 616.538C1070.77 624.376 1075.16 630.115 1082.56 633.458C1089.69 636.671 1097.46 637.618 1105.04 638.324C1139.99 641.648 1174.93 649.151 1210.1 645.53C1223.97 644.1 1238.49 641.462 1250.95 633.959C1256.45 630.653 1261.51 626.493 1266.39 622.129C1270.56 618.433 1274.45 614.124 1279 611.041C1293.92 600.993 1312.3 599.953 1328.31 593.007C1334.82 590.184 1342.58 585.857 1344.63 577.555C1347.2 567.117 1340.4 556.531 1335.57 548.47C1324.7 530.344 1312.58 508.112 1312.94 485.324C1313.38 457.02 1338.95 445.95 1360.28 445.096C1369.1 444.743 1377.93 445.486 1386.75 445.003C1396.51 444.483 1406.24 443.109 1415.92 441.716C1431.5 439.45 1447.05 437.649 1462.69 435.847C1498.75 431.705 1563.6 415.473 1548.55 357.936C1541.13 329.594 1516.31 312.34 1493.68 301.903C1482.37 296.684 1470.59 292.709 1458.65 289.868C1450.37 287.899 1441.93 287.323 1433.58 285.8C1425.16 284.24 1417.38 281.027 1409.72 276.793C1402.12 272.595 1394.78 267.729 1386.94 264.108C1378.95 260.412 1370.66 258.443 1362.07 257.812C1343.62 256.437 1324.45 258.499 1306.3 262.139C1300.38 263.328 1294.41 263.885 1288.45 264.702C1282.78 265.482 1277.07 266.262 1271.34 266.355C1267.26 266.429 1261.92 266.559 1258.41 263.755C1254.75 260.839 1254.4 254.859 1255.59 250.401C1257.41 243.548 1261.92 238.144 1264.02 231.439C1266.44 223.676 1262.99 214.891 1259.61 208.205C1251.85 192.827 1239.86 181.85 1225.54 175.239C1210.95 168.478 1195.12 165.748 1179.5 164.281C1160.99 162.535 1142.35 162.312 1123.78 162.944C1084.46 164.262 1045.39 169.686 1006.39 175.22C997.412 176.502 988.529 177.69 979.468 177.449C971.252 177.226 963.069 176.074 955 174.384C938.163 170.837 921.764 164.875 904.845 161.867C888.202 158.895 871.218 157.465 856.886 146.34C847.174 138.8 838.974 128.399 835.721 115.287C829.425 89.9356 842.391 63.8599 857.504 46.2718C865.655 36.7813 875.155 28.7766 885.616 22.9262C886.478 22.4434 887.243 23.9106 886.364 24.412C864.548 36.5955 844.18 59.4025 837.526 86.6668C834.37 99.6118 835.07 113.448 841.008 125.242C848.882 140.898 863.556 151.039 878.604 155.218C886.592 157.446 894.791 158.449 902.909 159.824C911.759 161.309 920.446 163.65 929.15 166.027C946.118 170.67 963.134 175.517 980.672 175.777C989.994 175.926 999.169 174.552 1008.39 173.233C1018.01 171.877 1027.61 170.521 1037.22 169.24C1056.99 166.603 1076.8 164.281 1096.67 162.758C1116.06 161.272 1135.5 160.566 1154.94 161.124C1171.19 161.588 1187.61 162.628 1203.6 166.213C1217.96 169.426 1232.41 174.904 1244.15 185.194C1254.21 194.015 1264.42 208.391 1266.13 223.174C1266.86 229.507 1264.67 234.615 1261.9 239.964C1258.91 245.758 1253.04 255.527 1258.63 261.749C1261.92 265.408 1268.82 264.739 1272.95 264.572C1278.71 264.349 1284.43 263.495 1290.15 262.733C1297.53 261.731 1304.82 260.616 1312.16 259.186C1320.79 257.496 1329.6 256.976 1338.33 256.363C1355.36 255.174 1372.4 255.304 1388.37 262.919C1395.61 266.374 1402.45 270.794 1409.47 274.731C1417.74 279.374 1426.1 282.773 1435.23 284.333C1443.67 285.782 1452.16 286.488 1460.52 288.549C1466.02 289.905 1471.47 291.502 1476.87 293.359C1500.09 301.308 1524.82 313.863 1540.16 336.169C1552.88 354.667 1557.27 381.913 1544.01 401.581C1531.58 420.005 1509.75 427.935 1490.65 432.634C1481.02 435.011 1471.26 436.59 1461.45 437.667C1444.91 439.487 1428.46 441.642 1411.96 443.963C1402.41 445.3 1392.78 446.619 1383.15 446.823C1374.51 447.009 1365.86 446.322 1357.24 446.953C1343.99 447.919 1328.21 452.934 1319.93 465.749C1307.28 485.324 1318.61 512.923 1327.77 531.142C1333.04 541.617 1340.43 551.182 1344.5 562.344C1347.05 569.383 1347.78 577.369 1343.54 583.758C1339.24 590.221 1331.97 593.471 1325.46 595.96C1316.92 599.229 1308.07 601.346 1299.39 604.058C1291.3 606.583 1282.78 609.406 1276.07 615.405C1266.54 623.949 1257.41 633.049 1246.09 638.435C1232.96 644.675 1218.11 646.793 1204 647.721C1185.38 648.947 1166.68 647.387 1148.15 645.214C1139.42 644.174 1130.68 642.985 1121.96 641.797C1114.66 640.812 1107.32 640.367 1100 639.475C1093.27 638.639 1086.43 637.358 1080.22 634.145C1074.08 630.95 1070.05 626.047 1066.76 619.417C1062.96 611.747 1059.9 604.132 1054.84 597.353C1049.31 589.943 1042.98 583.424 1035.92 577.945C1035.12 577.332 1035.87 575.846 1036.67 576.459V576.515Z" fill="url(#paint5_linear_62_12216)"/>
<path d="M304.234 831.514C321.413 842.044 340.919 827.372 353.592 814.446C359.936 807.983 365.809 800.739 370.674 792.772C375.229 785.324 379.605 777.914 385.754 772.008C396.898 761.329 410.759 759.546 424.815 760.084C448.453 760.994 471.96 765.322 495.24 769.872C520.668 774.831 546.063 780.31 571.783 782.836C596.625 785.268 621.255 779.957 646.146 780.7C658.64 781.071 671.297 781.554 683.612 778.582C693.21 776.279 704.875 771.934 710.943 762.443C720.33 747.771 707.445 729.774 698.611 719.429C687.402 706.298 673.965 694.691 659.909 685.832C639.313 672.831 616.212 667.036 593.127 663.099C577.07 660.35 561.778 657.732 546.6 650.767C538.693 647.127 524.735 641.258 521.823 630.783C518.374 618.377 537.88 613.622 544.517 611.913C566.431 606.267 587.124 616.557 608.761 618.637C630.837 620.754 649.058 609.183 668.824 599.99C689.599 590.332 710.731 589.589 732.905 590.964C757.275 592.468 781.499 596.48 805.901 597.26C818.737 597.668 831.654 597.185 844.327 594.771C853.421 593.044 860.986 589.329 867.428 581.659C877.157 570.07 883.322 554.766 897.622 549.51C920.105 541.245 945.923 548.34 968.845 549.733C979.078 550.346 989.246 549.919 999.397 551.794C1008.21 553.41 1016.82 556.345 1024.91 560.654C1042.49 570.033 1054.87 585.708 1068.8 600.547C1083.91 616.631 1102.54 622.221 1122.58 625.731C1147.7 630.114 1173.61 631.117 1198.98 629.52C1212.06 628.703 1225.23 627.143 1238.05 623.967C1248.58 621.367 1257.64 615.702 1266.69 609.258C1274.8 603.482 1282.86 597.91 1292.21 595.18C1302.69 592.134 1314.16 591.205 1322.49 582.402C1350.19 553.076 1313.39 501.445 1288.29 487.831C1277.29 481.869 1263.42 477.282 1255.53 466.008C1247.78 454.958 1254 441.586 1263.25 434.788C1278.11 423.868 1298.39 423.329 1315.41 421.955C1339.34 420.023 1365.55 419.503 1387.28 406.391C1403.42 396.64 1409.85 377.009 1399.53 358.92C1387.77 338.304 1363.48 331.117 1343.73 326.158C1320.23 320.252 1296.13 318.562 1272.4 314.346C1258.71 311.913 1244.97 309.777 1231.3 307.214C1211.59 303.518 1175.66 293.693 1185.98 261.916C1188.4 254.45 1192.91 248.284 1196.99 241.951C1201.12 235.543 1205.44 228.096 1202.93 219.831C1199.53 208.687 1188.27 200.59 1179.49 195.557C1169.73 189.948 1158.92 186.976 1148.07 185.88C1126.76 183.708 1105.3 188.146 1084.76 194.331C1083.83 194.61 1083.42 192.957 1084.37 192.678C1120.79 181.72 1170.41 174.068 1198.96 209.709C1203.04 214.798 1206.09 221.075 1204.96 228.151C1203.86 235.135 1199.51 240.948 1195.89 246.464C1187.28 259.557 1180.12 277.183 1193.15 289.979C1203.71 300.342 1219.51 303.333 1232.82 305.766C1246.76 308.31 1260.76 310.613 1274.72 313.027C1299.13 317.243 1323.89 318.971 1347.95 325.508C1366.13 330.448 1387.2 337.413 1399.08 355.205C1406.95 366.999 1409.2 382.915 1401.23 395.415C1390.02 413.021 1366.56 417.72 1349 420.376C1326.65 423.756 1303.55 422.53 1281.51 428.474C1272.58 430.888 1262.6 434.807 1256.99 443.647C1252.26 451.095 1252.26 459.62 1257.8 466.417C1267.04 477.746 1281.51 481.405 1293.04 488.667C1306.25 497.006 1317.54 511.919 1325.07 526.61C1332.49 541.06 1337.34 559.669 1329.45 575.196C1318.86 596.015 1296.96 592.301 1280.38 602.107C1271.37 607.437 1263.22 614.514 1254.05 619.547C1243.85 625.137 1232.69 627.199 1221.56 628.87C1196.91 632.603 1171.81 632.566 1147.03 630.504C1126.18 628.777 1102.86 626.419 1083.99 615.312C1068.11 605.97 1057.62 588.494 1043.79 576.069C1027.17 561.136 1007.52 553.187 986.431 551.98C974.474 551.293 962.598 551.052 950.641 549.807C937.805 548.47 924.855 547.096 911.971 548.414C901.234 549.51 891.831 552.37 884.103 561.322C878.897 567.34 874.977 574.601 870.08 580.916C857.423 597.223 838.552 598.411 820.526 599.006C795.831 599.823 771.266 596.034 746.684 593.768C722.705 591.558 697.651 589.645 674.664 599.228C655.907 607.066 638.321 619.9 617.823 620.661C594.722 621.515 572.629 608.515 549.463 612.563C541.849 613.901 530.038 616.278 524.686 623.41C520.635 628.814 524.719 634.275 528.656 637.859C539.816 648.074 555.303 653.441 569.034 657.063C589.093 662.356 609.688 663.415 629.585 669.952C648.537 676.193 665.635 686.482 681.318 700.058C696.415 713.133 731.815 747.009 707.299 768.98C689.924 784.563 664.887 782.947 644.145 782.334C618.831 781.591 593.973 786.903 568.676 784.21C519.171 778.935 470.431 761.979 420.536 761.681C412.321 761.626 403.894 762.443 396.313 766.306C388.276 770.411 381.948 777.654 376.742 785.621C367.062 800.424 357.822 814.297 344.27 824.958C332.443 834.263 317.118 841.357 303.42 832.962C302.574 832.442 303.323 830.957 304.169 831.477L304.234 831.514Z" fill="url(#paint6_linear_62_12216)"/>
<path d="M671.264 793.515C677.641 793.088 684.035 793.571 690.412 793.923C696.952 794.276 703.541 794.573 710.064 793.701C716.132 792.902 722.168 790.933 727.195 786.847C732.872 782.26 736.712 775.221 738.924 767.792C740.73 761.682 741.186 755.089 739.185 748.96C737.363 743.369 733.735 738.801 729.765 735.049C725.291 730.833 720.199 727.49 715.091 724.407C709.902 721.268 704.582 718.427 699.376 715.306C693.031 711.518 687.045 707.042 681.237 702.25C674.843 696.975 668.726 691.329 662.447 685.888C656.314 680.595 650.001 675.543 643.201 671.401C635.815 666.907 627.909 663.545 619.742 661.446C614.406 660.072 608.989 659.199 603.653 657.825C597.699 656.283 591.468 654.445 586.213 650.73C584.115 649.244 582.13 647.387 580.861 644.935C579.576 642.447 578.892 639.215 578.811 636.318C578.746 634.033 579.202 631.73 580.454 629.91C581.609 628.239 583.252 627.18 585.009 626.53C589.239 624.933 594.022 625.304 598.366 625.88C602.514 626.437 606.597 627.422 610.681 628.387C618.018 630.152 625.518 630.783 633.001 630.82C642.241 630.876 651.514 630.003 660.625 628.22C665.066 627.347 669.458 626.252 673.818 624.896C674.746 624.599 675.152 626.252 674.209 626.549C665.229 629.353 655.988 631.062 646.715 631.916C637.963 632.733 629.113 632.808 620.377 631.786C615.203 631.192 610.193 629.91 605.101 628.796C600.578 627.793 595.974 626.995 591.354 627.125C587.873 627.217 583.236 627.83 581.251 631.582C580.21 633.532 580.161 635.965 580.487 638.157C580.91 640.998 581.723 643.84 583.448 645.994C585.237 648.204 587.563 649.764 589.939 651.046C592.721 652.55 595.665 653.646 598.626 654.593C604.483 656.469 610.469 657.639 616.44 658.92C623.695 660.481 630.756 662.932 637.507 666.331C644.633 669.915 651.287 674.558 657.631 679.703C663.96 684.848 669.979 690.438 676.161 695.805C682.457 701.284 688.915 706.615 695.797 711.109C700.775 714.359 705.965 717.145 711.073 720.098C716.376 723.144 721.68 726.32 726.577 730.183C731.002 733.674 735.215 737.761 738.176 742.942C741.072 748.031 742.406 754.03 741.901 760.066C741.283 767.718 738.339 775.388 734.223 781.424C730.318 787.126 724.966 791.1 718.947 793.273C712.879 795.465 706.404 795.929 700.059 795.911C693.487 795.892 686.931 795.279 680.374 795.075C677.332 794.982 674.29 794.964 671.248 795.168C670.288 795.224 670.288 793.515 671.248 793.459L671.264 793.515Z" fill="url(#paint7_linear_62_12216)"/>
</g>
<defs>
<linearGradient id="paint0_linear_62_12216" x1="1406.11" y1="256.307" x2="168.816" y2="256.307" gradientUnits="userSpaceOnUse">
<stop stop-color="#FBDE96"/>
<stop offset="0.03" stop-color="#EAC57B"/>
<stop offset="0.08" stop-color="#D9AC62"/>
<stop offset="0.12" stop-color="#CF9E52"/>
<stop offset="0.15" stop-color="#CC994D"/>
<stop offset="0.36" stop-color="#F0CC83"/>
<stop offset="0.47" stop-color="#FFE098"/>
<stop offset="0.52" stop-color="#E5C073"/>
<stop offset="0.56" stop-color="#D0A654"/>
<stop offset="0.61" stop-color="#C1933D"/>
<stop offset="0.66" stop-color="#B88730"/>
<stop offset="0.7" stop-color="#B5842C"/>
<stop offset="0.73" stop-color="#B98830"/>
<stop offset="0.78" stop-color="#C6953D"/>
<stop offset="0.82" stop-color="#DFAE55"/>
</linearGradient>
<linearGradient id="paint1_linear_62_12216" x1="1406.11" y1="416.773" x2="168.816" y2="416.773" gradientUnits="userSpaceOnUse">
<stop stop-color="#FBDE96"/>
<stop offset="0.03" stop-color="#EAC57B"/>
<stop offset="0.08" stop-color="#D9AC62"/>
<stop offset="0.12" stop-color="#CF9E52"/>
<stop offset="0.15" stop-color="#CC994D"/>
<stop offset="0.36" stop-color="#F0CC83"/>
<stop offset="0.47" stop-color="#FFE098"/>
<stop offset="0.52" stop-color="#E5C073"/>
<stop offset="0.56" stop-color="#D0A654"/>
<stop offset="0.61" stop-color="#C1933D"/>
<stop offset="0.66" stop-color="#B88730"/>
<stop offset="0.7" stop-color="#B5842C"/>
<stop offset="0.73" stop-color="#B98830"/>
<stop offset="0.78" stop-color="#C6953D"/>
<stop offset="0.82" stop-color="#DFAE55"/>
</linearGradient>
<linearGradient id="paint2_linear_62_12216" x1="1406.11" y1="476.131" x2="168.816" y2="476.131" gradientUnits="userSpaceOnUse">
<stop stop-color="#FBDE96"/>
<stop offset="0.03" stop-color="#EAC57B"/>
<stop offset="0.08" stop-color="#D9AC62"/>
<stop offset="0.12" stop-color="#CF9E52"/>
<stop offset="0.15" stop-color="#CC994D"/>
<stop offset="0.36" stop-color="#F0CC83"/>
<stop offset="0.47" stop-color="#FFE098"/>
<stop offset="0.52" stop-color="#E5C073"/>
<stop offset="0.56" stop-color="#D0A654"/>
<stop offset="0.61" stop-color="#C1933D"/>
<stop offset="0.66" stop-color="#B88730"/>
<stop offset="0.7" stop-color="#B5842C"/>
<stop offset="0.73" stop-color="#B98830"/>
<stop offset="0.78" stop-color="#C6953D"/>
<stop offset="0.82" stop-color="#DFAE55"/>
</linearGradient>
<linearGradient id="paint3_linear_62_12216" x1="1406.11" y1="454.642" x2="168.816" y2="454.642" gradientUnits="userSpaceOnUse">
<stop stop-color="#FBDE96"/>
<stop offset="0.03" stop-color="#EAC57B"/>
<stop offset="0.08" stop-color="#D9AC62"/>
<stop offset="0.12" stop-color="#CF9E52"/>
<stop offset="0.15" stop-color="#CC994D"/>
<stop offset="0.36" stop-color="#F0CC83"/>
<stop offset="0.47" stop-color="#FFE098"/>
<stop offset="0.52" stop-color="#E5C073"/>
<stop offset="0.56" stop-color="#D0A654"/>
<stop offset="0.61" stop-color="#C1933D"/>
<stop offset="0.66" stop-color="#B88730"/>
<stop offset="0.7" stop-color="#B5842C"/>
<stop offset="0.73" stop-color="#B98830"/>
<stop offset="0.78" stop-color="#C6953D"/>
<stop offset="0.82" stop-color="#DFAE55"/>
</linearGradient>
<linearGradient id="paint4_linear_62_12216" x1="1406.11" y1="428.102" x2="168.816" y2="428.102" gradientUnits="userSpaceOnUse">
<stop stop-color="#FBDE96"/>
<stop offset="0.03" stop-color="#EAC57B"/>
<stop offset="0.08" stop-color="#D9AC62"/>
<stop offset="0.12" stop-color="#CF9E52"/>
<stop offset="0.15" stop-color="#CC994D"/>
<stop offset="0.36" stop-color="#F0CC83"/>
<stop offset="0.47" stop-color="#FFE098"/>
<stop offset="0.52" stop-color="#E5C073"/>
<stop offset="0.56" stop-color="#D0A654"/>
<stop offset="0.61" stop-color="#C1933D"/>
<stop offset="0.66" stop-color="#B88730"/>
<stop offset="0.7" stop-color="#B5842C"/>
<stop offset="0.73" stop-color="#B98830"/>
<stop offset="0.78" stop-color="#C6953D"/>
<stop offset="0.82" stop-color="#DFAE55"/>
</linearGradient>
<linearGradient id="paint5_linear_62_12216" x1="1406.11" y1="335.649" x2="168.815" y2="335.649" gradientUnits="userSpaceOnUse">
<stop stop-color="#FBDE96"/>
<stop offset="0.03" stop-color="#EAC57B"/>
<stop offset="0.08" stop-color="#D9AC62"/>
<stop offset="0.12" stop-color="#CF9E52"/>
<stop offset="0.15" stop-color="#CC994D"/>
<stop offset="0.36" stop-color="#F0CC83"/>
<stop offset="0.47" stop-color="#FFE098"/>
<stop offset="0.52" stop-color="#E5C073"/>
<stop offset="0.56" stop-color="#D0A654"/>
<stop offset="0.61" stop-color="#C1933D"/>
<stop offset="0.66" stop-color="#B88730"/>
<stop offset="0.7" stop-color="#B5842C"/>
<stop offset="0.73" stop-color="#B98830"/>
<stop offset="0.78" stop-color="#C6953D"/>
<stop offset="0.82" stop-color="#DFAE55"/>
</linearGradient>
<linearGradient id="paint6_linear_62_12216" x1="1406.29" y1="510.229" x2="168.995" y2="510.229" gradientUnits="userSpaceOnUse">
<stop stop-color="#FBDE96"/>
<stop offset="0.03" stop-color="#EAC57B"/>
<stop offset="0.08" stop-color="#D9AC62"/>
<stop offset="0.12" stop-color="#CF9E52"/>
<stop offset="0.15" stop-color="#CC994D"/>
<stop offset="0.36" stop-color="#F0CC83"/>
<stop offset="0.47" stop-color="#FFE098"/>
<stop offset="0.52" stop-color="#E5C073"/>
<stop offset="0.56" stop-color="#D0A654"/>
<stop offset="0.61" stop-color="#C1933D"/>
<stop offset="0.66" stop-color="#B88730"/>
<stop offset="0.7" stop-color="#B5842C"/>
<stop offset="0.73" stop-color="#B98830"/>
<stop offset="0.78" stop-color="#C6953D"/>
<stop offset="0.82" stop-color="#DFAE55"/>
</linearGradient>
<linearGradient id="paint7_linear_62_12216" x1="1406.11" y1="710.57" x2="168.816" y2="710.57" gradientUnits="userSpaceOnUse">
<stop stop-color="#FBDE96"/>
<stop offset="0.03" stop-color="#EAC57B"/>
<stop offset="0.08" stop-color="#D9AC62"/>
<stop offset="0.12" stop-color="#CF9E52"/>
<stop offset="0.15" stop-color="#CC994D"/>
<stop offset="0.36" stop-color="#F0CC83"/>
<stop offset="0.47" stop-color="#FFE098"/>
<stop offset="0.52" stop-color="#E5C073"/>
<stop offset="0.56" stop-color="#D0A654"/>
<stop offset="0.61" stop-color="#C1933D"/>
<stop offset="0.66" stop-color="#B88730"/>
<stop offset="0.7" stop-color="#B5842C"/>
<stop offset="0.73" stop-color="#B98830"/>
<stop offset="0.78" stop-color="#C6953D"/>
<stop offset="0.82" stop-color="#DFAE55"/>
</linearGradient>
</defs>
</svg>
