<svg width="483" height="317" viewBox="0 0 483 317" fill="none" xmlns="http://www.w3.org/2000/svg">
<g clip-path="url(#clip0_50_5424)">
<path d="M40.0063 47.2604L0.0448486 47.2765C-0.0867093 48 0.0737271 47.791 0.452357 47.9936C1.93479 48.7976 3.51348 48.8072 5.01517 50.1707C9.08063 53.8658 8.19181 63.6098 9.04212 68.6459C8.57686 130.368 9.92131 192.189 8.34583 253.854C7.64312 257.719 7.22919 262.279 3.31775 264.25C2.36476 264.733 1.30909 264.852 0.44594 265.231C-7.36202e-05 265.427 -0.054622 265.276 0.0416398 265.952H41.9123C93.4317 262.511 105.532 207.372 106.905 164.829C108.449 117.067 100.029 50.6724 40.0031 47.2636L40.0063 47.2604ZM66.1511 248.113C58.3603 260.118 49.0068 264.572 34.8724 265.321C33.9868 265.37 32.7193 265.543 32.1289 264.826V48.5596H39.6694C44.444 48.5596 52.9953 52.8656 56.6661 55.9657C78.5785 74.4633 81.7102 116.453 82.4931 143.279C83.3595 172.885 82.5509 222.843 66.1511 248.113Z" fill="black"/>
<path d="M415.999 236.42C411.205 234.272 407.675 231.886 408.862 225.937C409.405 223.213 413.855 217.366 416.528 216.562C417.927 216.141 419.666 217.659 421.033 218.193C443.318 226.85 465.419 215.167 471.635 192.379C476.467 174.66 473.011 151.933 459.217 139.083C458.89 138.777 455.54 136.43 456.005 136.034C458.168 135.806 460.353 135.516 462.541 135.751C467.682 136.298 471.195 140.575 476.708 139.9C483.045 139.125 483.911 126.772 476.352 125.769C468.076 124.672 461.075 131.075 454.487 135.018C451.856 133.995 449.389 132.394 446.626 131.442C423.061 123.335 403.164 141.511 398.983 163.945C395.505 182.606 399.262 204.77 416.21 215.627C410.037 219.794 402.939 224.454 400.908 232.121C398.264 242.103 402.596 251.004 411.561 255.667L420.706 259.841C407.954 267.145 386.543 279.275 393.83 297.235C395.864 302.249 400.815 306.722 405.41 309.427C429.71 323.721 477.532 318.351 482.548 285.006C488.169 247.618 439.673 247.039 415.999 236.43V236.42ZM420.119 156.506C421.222 148.849 424.412 133.6 432.96 131.107C443.481 128.036 448.664 143.492 450.335 151.2C453.64 166.434 454.866 205.056 443.058 216.64C437.975 221.624 431.359 220.827 426.963 215.469C417.305 203.702 418.023 171.074 420.122 156.506H420.119ZM447.406 314.739C425.006 318.592 403.334 311.466 404.97 285.073C405.711 273.126 412.273 266.267 421.98 260.301C422.705 260.121 425.458 261.102 426.408 261.363C436.791 264.225 449.071 267.611 459.057 271.412C463.167 272.978 466.783 274.541 469.931 277.718C472.376 280.182 473.961 283.163 474.285 286.7C475.816 303.378 462.018 312.225 447.402 314.739H447.406Z" fill="black"/>
<path d="M391.445 265.225C390.293 264.768 389.379 264.678 388.323 263.835C384.9 261.092 385.602 254.259 385.426 250.342C383.972 218.225 385.808 185.732 385.105 153.544C383.889 136.922 370.024 126.425 353.65 130.728C342.875 133.561 334 143.225 326.051 150.502V128.634L297.176 147.772C296.839 148.573 299.069 148.196 299.551 148.277C303.783 148.991 303.533 153.12 304.19 156.49C303.767 187.607 305.987 219.965 304.55 250.991C304.415 253.895 304.03 259.864 302.692 262.314C301.437 264.617 299.172 264.501 297.494 265.948H334.073C333.191 264.922 331.465 264.823 330.261 264.141C325.734 261.584 326.581 253.503 326.385 249.052C324.996 217.151 326.712 184.899 326.071 152.93C326.103 152.194 326.607 151.811 327.008 151.296C330.974 146.219 343.292 135.526 349.408 133.87C360.914 130.754 362.971 140.318 363.606 149.361C362.284 183.069 365.326 218.074 363.59 251.634C363.446 254.455 362.952 260.038 361.479 262.382C360.305 264.247 358.463 264.562 356.595 265.221C356.076 265.405 355.742 265.054 355.893 265.948H392.151C392.309 265.035 391.939 265.418 391.445 265.221V265.225Z" fill="black"/>
<path d="M288.728 264.286C283.488 261.511 285.221 252.021 284.322 247.155L284.335 128.313L255.466 147.769C256.717 148.634 258.056 148.045 259.535 148.83C260.308 149.238 260.683 149.737 261.091 150.486C262.506 153.085 262.737 159.436 262.856 162.546C264.03 193.408 262.204 225.216 262.516 256.137C261.951 259.07 261.81 262.469 259.037 264.228C257.985 264.897 256.557 264.984 255.784 265.952H292.363C291.545 264.923 289.918 264.913 288.731 264.286H288.728Z" fill="black"/>
<path d="M244.319 260.555C243.552 258.073 243.36 253.709 243.251 251.014C241.967 219.164 244.232 186.449 243.279 154.509C242.204 138.835 231.551 128.496 215.553 129.962C203.453 131.072 192.569 142.627 184.226 150.502V128.634L155.351 147.772C155.046 148.495 157.366 148.27 157.934 148.389C161.742 149.197 162.163 154.454 162.403 157.738C164.54 186.886 161.463 217.791 162.744 247.152C161.941 251.837 163.058 257.864 160.751 262.199C159.724 264.128 158.235 264.466 156.374 265.225C155.89 265.421 155.508 265.029 155.668 265.948H191.927C192.078 265.054 191.744 265.405 191.224 265.221C190.014 264.794 188.888 264.655 187.778 263.835C184.29 261.263 184.935 255.731 184.229 251.956V152.596C190.675 144.025 215.591 120.598 220.648 142.135C221.293 144.887 221.649 148.454 221.781 151.29C223.257 183.04 220.635 215.926 221.781 247.795C220.95 252.512 222.426 261.61 217.375 264.282C216.188 264.91 214.561 264.919 213.743 265.948H250.323C249.139 264.749 247.021 264.784 245.824 263.453C245.352 262.929 244.534 261.263 244.316 260.552L244.319 260.555Z" fill="black"/>
<path d="M142.499 251.332L142.512 129.11L142.028 128.628L113.637 147.772C113.502 148.505 113.958 148.209 114.436 148.248C117.025 148.45 118.431 148.508 119.477 151.242C120.837 154.799 120.911 162.378 121.03 166.405C121.819 192.807 121.694 221.737 120.68 248.091C120.526 252.091 121.177 261.108 117.792 263.848C116.984 264.501 115.617 264.836 114.66 265.228C114.179 265.427 113.794 265.032 113.955 265.951H148.769C149.254 265.951 150.441 266.421 150.213 265.312C142.567 264.652 143.096 257.185 142.499 251.332Z" fill="black"/>
<path d="M280.982 112.864C283.244 113.07 285.554 114.066 288.012 114.179C296.872 114.581 305.06 109.49 309.366 101.946L303.421 108.365C297.934 112.88 288.763 115.173 282.128 112.037C273.162 107.802 274.699 91.4011 274.898 83.2554C275.652 82.7248 288.224 82.9338 290.287 82.9563C296.278 83.027 303.629 84.0207 309.543 83.3068C309.886 83.265 310.281 83.3197 310.509 82.9917C310.858 75.9103 307.313 67.2404 301.832 62.7028C300.51 61.6062 298.957 61.0499 297.815 59.815H313.056L313.538 60.2973V112.073L313.056 112.555H307.762V112.877H328.94V112.555H323.485L323.472 69.9321C323.851 65.9315 328.705 57.3291 333.557 60.4935C335.646 61.857 333.57 64.4233 333.252 65.9058C331.84 72.5047 343.379 73.2573 343.405 65.4427C343.414 61.9825 341.547 59.5641 338.258 58.6766C333.005 57.2584 327.81 59.1557 325.153 63.8991L323.485 67.2114V59.4934L297 59.5062C264.515 49.804 251.898 98.8458 279.525 111.915L279.358 112.561C279.063 112.529 278.81 112.233 278.723 112.233H264.926C263.677 112.233 261.235 109.783 261.235 108.535V0H243.908V0.643172H251.609L251.622 102.116C251.475 103.126 251.234 104.181 250.968 105.159C251.099 105.069 251.568 104.779 251.606 104.837V112.233H246.475C248.628 109.963 250.133 108.217 250.968 105.159C250.31 105.602 249.334 107.94 248.667 108.802C247.242 110.638 244.954 111.97 242.968 112.105C241.213 111.88 239.458 109.915 239.458 102.946H239.439C239.458 98.5371 239.458 94.1314 239.445 89.7257L239.455 89.8061V60.8891C240.173 59.9597 247.316 60.7797 248.721 60.4581V59.4934H239.894C239.708 59.4934 239.564 59.4291 239.455 59.3229V52.7851C239.455 49.447 239.349 46.1025 239.413 42.7709C238.434 42.5908 238.922 43.0732 238.746 43.5299C237.051 47.8713 234.427 50.743 229.469 50.8106V59.1718H220.645C220.305 59.1718 220.035 60.0851 220.164 60.4581H228.988L229.469 60.9405V101.245C229.469 101.245 228.879 105.615 230.743 109.249C230.377 111.465 224.197 113.935 223.19 109.683C221.014 91.1599 231.497 55.9109 201.38 58.1942C195.819 58.6155 188.497 62.3909 189.389 68.9512C190.165 74.6594 198.832 74.2735 199.291 69.2599C199.538 66.5683 197.561 65.2144 198.832 61.7509C200.571 57.0172 207.621 58.2167 210.351 61.4454C213.737 65.4459 213.162 70.0125 213.092 74.7526C213.069 76.2609 213.496 81.5863 212.556 82.3421C210.079 84.3359 200.241 84.3488 196.666 84.9823C183.995 87.2302 178.746 99.9199 186.722 109.982L190.002 112.23H179.413V17.5264C179.413 17.4107 179.74 17.0055 179.788 16.7739C191.731 16.0182 203.039 19.7422 207.021 31.9881C208.189 35.5803 208.391 39.3685 208.776 43.0957L209.261 16.0761L144.913 16.0922C144.104 15.9153 139.31 15.5069 139.31 16.5585V42.7677C140.058 42.8095 139.878 42.8803 139.952 42.2918C140.186 40.4233 140.061 38.2237 140.359 36.262C142.205 24.0578 150.438 17.4171 162.561 16.7064C163.783 16.6356 166.636 16.5199 167.707 16.7192C168.073 16.7868 168.356 16.8286 168.465 17.2466L168.189 112.23H162.734L163.209 112.873C172.418 113.385 182.339 112.192 191.462 112.861C196.862 113.256 199.577 114.636 205.404 113.028C209.392 111.928 211.828 109.809 214.067 106.438C215.242 114.787 226.299 116.375 230.919 109.976C231.006 109.953 231.112 110.002 231.234 110.092C232.312 111.745 234.006 113.137 236.628 113.732C239.551 114.43 242.667 113.803 245.664 112.857C257.038 113.665 269.777 111.831 280.985 112.857L280.982 112.864ZM287.371 58.8341C301.329 57.9369 300.128 72.2989 300.7 82.326H274.709C275.136 72.9132 275.084 59.6252 287.371 58.8341ZM213.105 105.641C213.105 108.458 207.618 111.838 205.147 112.459C191.933 115.793 190.643 101.177 193.759 92.0411C197.038 82.4289 205.609 86.0049 213.101 82.9659V105.638L213.105 105.641Z" fill="black"/>
</g>
<defs>
<clipPath id="clip0_50_5424">
<rect width="482.906" height="316.794" fill="white"/>
</clipPath>
</defs>
</svg>
