<svg width="1175" height="67" viewBox="0 0 1175 67" fill="none" xmlns="http://www.w3.org/2000/svg">
<g filter="url(#filter0_d_931_4792)">
<rect x="673.5" y="2.5" width="240" height="61" rx="6" fill="black"/>
<rect x="673.5" y="2.5" width="240" height="61" rx="6" stroke="url(#paint0_linear_931_4792)"/>
</g>
<path d="M696.805 30.1C697.415 30.23 697.905 30.535 698.275 31.015C698.645 31.485 698.83 32.025 698.83 32.635C698.83 33.515 698.52 34.215 697.9 34.735C697.29 35.245 696.435 35.5 695.335 35.5H690.43V24.97H695.17C696.24 24.97 697.075 25.215 697.675 25.705C698.285 26.195 698.59 26.86 698.59 27.7C698.59 28.32 698.425 28.835 698.095 29.245C697.775 29.655 697.345 29.94 696.805 30.1ZM692.995 29.23H694.675C695.095 29.23 695.415 29.14 695.635 28.96C695.865 28.77 695.98 28.495 695.98 28.135C695.98 27.775 695.865 27.5 695.635 27.31C695.415 27.12 695.095 27.025 694.675 27.025H692.995V29.23ZM694.885 33.43C695.315 33.43 695.645 33.335 695.875 33.145C696.115 32.945 696.235 32.66 696.235 32.29C696.235 31.92 696.11 31.63 695.86 31.42C695.62 31.21 695.285 31.105 694.855 31.105H692.995V33.43H694.885ZM699.808 31.3C699.808 30.44 699.968 29.685 700.288 29.035C700.618 28.385 701.063 27.885 701.623 27.535C702.183 27.185 702.808 27.01 703.498 27.01C704.088 27.01 704.603 27.13 705.043 27.37C705.493 27.61 705.838 27.925 706.078 28.315V27.13H708.643V35.5H706.078V34.315C705.828 34.705 705.478 35.02 705.028 35.26C704.588 35.5 704.073 35.62 703.483 35.62C702.803 35.62 702.183 35.445 701.623 35.095C701.063 34.735 700.618 34.23 700.288 33.58C699.968 32.92 699.808 32.16 699.808 31.3ZM706.078 31.315C706.078 30.675 705.898 30.17 705.538 29.8C705.188 29.43 704.758 29.245 704.248 29.245C703.738 29.245 703.303 29.43 702.943 29.8C702.593 30.16 702.418 30.66 702.418 31.3C702.418 31.94 702.593 32.45 702.943 32.83C703.303 33.2 703.738 33.385 704.248 33.385C704.758 33.385 705.188 33.2 705.538 32.83C705.898 32.46 706.078 31.955 706.078 31.315ZM713.063 24.4V35.5H710.498V24.4H713.063ZM714.412 31.3C714.412 30.44 714.572 29.685 714.892 29.035C715.222 28.385 715.667 27.885 716.227 27.535C716.787 27.185 717.412 27.01 718.102 27.01C718.692 27.01 719.207 27.13 719.647 27.37C720.097 27.61 720.442 27.925 720.682 28.315V27.13H723.247V35.5H720.682V34.315C720.432 34.705 720.082 35.02 719.632 35.26C719.192 35.5 718.677 35.62 718.087 35.62C717.407 35.62 716.787 35.445 716.227 35.095C715.667 34.735 715.222 34.23 714.892 33.58C714.572 32.92 714.412 32.16 714.412 31.3ZM720.682 31.315C720.682 30.675 720.502 30.17 720.142 29.8C719.792 29.43 719.362 29.245 718.852 29.245C718.342 29.245 717.907 29.43 717.547 29.8C717.197 30.16 717.022 30.66 717.022 31.3C717.022 31.94 717.197 32.45 717.547 32.83C717.907 33.2 718.342 33.385 718.852 33.385C719.362 33.385 719.792 33.2 720.142 32.83C720.502 32.46 720.682 31.955 720.682 31.315ZM730.203 27.04C731.183 27.04 731.963 27.36 732.543 28C733.133 28.63 733.428 29.5 733.428 30.61V35.5H730.878V30.955C730.878 30.395 730.733 29.96 730.443 29.65C730.153 29.34 729.763 29.185 729.273 29.185C728.783 29.185 728.393 29.34 728.103 29.65C727.813 29.96 727.668 30.395 727.668 30.955V35.5H725.103V27.13H727.668V28.24C727.928 27.87 728.278 27.58 728.718 27.37C729.158 27.15 729.653 27.04 730.203 27.04ZM734.7 31.315C734.7 30.445 734.875 29.685 735.225 29.035C735.585 28.385 736.08 27.885 736.71 27.535C737.35 27.185 738.08 27.01 738.9 27.01C739.95 27.01 740.825 27.285 741.525 27.835C742.235 28.385 742.7 29.16 742.92 30.16H740.19C739.96 29.52 739.515 29.2 738.855 29.2C738.385 29.2 738.01 29.385 737.73 29.755C737.45 30.115 737.31 30.635 737.31 31.315C737.31 31.995 737.45 32.52 737.73 32.89C738.01 33.25 738.385 33.43 738.855 33.43C739.515 33.43 739.96 33.11 740.19 32.47H742.92C742.7 33.45 742.235 34.22 741.525 34.78C740.815 35.34 739.94 35.62 738.9 35.62C738.08 35.62 737.35 35.445 736.71 35.095C736.08 34.745 735.585 34.245 735.225 33.595C734.875 32.945 734.7 32.185 734.7 31.315ZM752.182 31.18C752.182 31.42 752.167 31.67 752.137 31.93H746.332C746.372 32.45 746.537 32.85 746.827 33.13C747.127 33.4 747.492 33.535 747.922 33.535C748.562 33.535 749.007 33.265 749.257 32.725H751.987C751.847 33.275 751.592 33.77 751.222 34.21C750.862 34.65 750.407 34.995 749.857 35.245C749.307 35.495 748.692 35.62 748.012 35.62C747.192 35.62 746.462 35.445 745.822 35.095C745.182 34.745 744.682 34.245 744.322 33.595C743.962 32.945 743.782 32.185 743.782 31.315C743.782 30.445 743.957 29.685 744.307 29.035C744.667 28.385 745.167 27.885 745.807 27.535C746.447 27.185 747.182 27.01 748.012 27.01C748.822 27.01 749.542 27.18 750.172 27.52C750.802 27.86 751.292 28.345 751.642 28.975C752.002 29.605 752.182 30.34 752.182 31.18ZM749.557 30.505C749.557 30.065 749.407 29.715 749.107 29.455C748.807 29.195 748.432 29.065 747.982 29.065C747.552 29.065 747.187 29.19 746.887 29.44C746.597 29.69 746.417 30.045 746.347 30.505H749.557ZM757.914 35.62C757.464 35.62 757.094 35.49 756.804 35.23C756.524 34.96 756.384 34.63 756.384 34.24C756.384 33.84 756.524 33.505 756.804 33.235C757.094 32.965 757.464 32.83 757.914 32.83C758.354 32.83 758.714 32.965 758.994 33.235C759.284 33.505 759.429 33.84 759.429 34.24C759.429 34.63 759.284 34.96 758.994 35.23C758.714 35.49 758.354 35.62 757.914 35.62ZM757.914 29.515C757.464 29.515 757.094 29.385 756.804 29.125C756.524 28.855 756.384 28.525 756.384 28.135C756.384 27.735 756.524 27.4 756.804 27.13C757.094 26.86 757.464 26.725 757.914 26.725C758.354 26.725 758.714 26.86 758.994 27.13C759.284 27.4 759.429 27.735 759.429 28.135C759.429 28.525 759.284 28.855 758.994 29.125C758.714 29.385 758.354 29.515 757.914 29.515Z" fill="white"/>
<g filter="url(#filter1_d_931_4792)">
<rect x="932.5" y="2.5" width="240" height="61" rx="6" fill="black"/>
<rect x="932.5" y="2.5" width="240" height="61" rx="6" stroke="url(#paint1_linear_931_4792)"/>
</g>
<path d="M956.005 23.97V26.025H953.215V34.5H950.65V26.025H947.86V23.97H956.005ZM961.102 34.62C960.282 34.62 959.542 34.445 958.882 34.095C958.232 33.745 957.717 33.245 957.337 32.595C956.967 31.945 956.782 31.185 956.782 30.315C956.782 29.455 956.972 28.7 957.352 28.05C957.732 27.39 958.252 26.885 958.912 26.535C959.572 26.185 960.312 26.01 961.132 26.01C961.952 26.01 962.692 26.185 963.352 26.535C964.012 26.885 964.532 27.39 964.912 28.05C965.292 28.7 965.482 29.455 965.482 30.315C965.482 31.175 965.287 31.935 964.897 32.595C964.517 33.245 963.992 33.745 963.322 34.095C962.662 34.445 961.922 34.62 961.102 34.62ZM961.102 32.4C961.592 32.4 962.007 32.22 962.347 31.86C962.697 31.5 962.872 30.985 962.872 30.315C962.872 29.645 962.702 29.13 962.362 28.77C962.032 28.41 961.622 28.23 961.132 28.23C960.632 28.23 960.217 28.41 959.887 28.77C959.557 29.12 959.392 29.635 959.392 30.315C959.392 30.985 959.552 31.5 959.872 31.86C960.202 32.22 960.612 32.4 961.102 32.4ZM971.508 32.325V34.5H970.203C969.273 34.5 968.548 34.275 968.028 33.825C967.508 33.365 967.248 32.62 967.248 31.59V28.26H966.228V26.13H967.248V24.09H969.813V26.13H971.493V28.26H969.813V31.62C969.813 31.87 969.873 32.05 969.993 32.16C970.113 32.27 970.313 32.325 970.593 32.325H971.508ZM972.427 30.3C972.427 29.44 972.587 28.685 972.907 28.035C973.237 27.385 973.682 26.885 974.242 26.535C974.802 26.185 975.427 26.01 976.117 26.01C976.707 26.01 977.222 26.13 977.662 26.37C978.112 26.61 978.457 26.925 978.697 27.315V26.13H981.262V34.5H978.697V33.315C978.447 33.705 978.097 34.02 977.647 34.26C977.207 34.5 976.692 34.62 976.102 34.62C975.422 34.62 974.802 34.445 974.242 34.095C973.682 33.735 973.237 33.23 972.907 32.58C972.587 31.92 972.427 31.16 972.427 30.3ZM978.697 30.315C978.697 29.675 978.517 29.17 978.157 28.8C977.807 28.43 977.377 28.245 976.867 28.245C976.357 28.245 975.922 28.43 975.562 28.8C975.212 29.16 975.037 29.66 975.037 30.3C975.037 30.94 975.212 31.45 975.562 31.83C975.922 32.2 976.357 32.385 976.867 32.385C977.377 32.385 977.807 32.2 978.157 31.83C978.517 31.46 978.697 30.955 978.697 30.315ZM985.683 23.4V34.5H983.118V23.4H985.683ZM997.095 29.1C997.705 29.23 998.195 29.535 998.565 30.015C998.935 30.485 999.12 31.025 999.12 31.635C999.12 32.515 998.81 33.215 998.19 33.735C997.58 34.245 996.725 34.5 995.625 34.5H990.72V23.97H995.46C996.53 23.97 997.365 24.215 997.965 24.705C998.575 25.195 998.88 25.86 998.88 26.7C998.88 27.32 998.715 27.835 998.385 28.245C998.065 28.655 997.635 28.94 997.095 29.1ZM993.285 28.23H994.965C995.385 28.23 995.705 28.14 995.925 27.96C996.155 27.77 996.27 27.495 996.27 27.135C996.27 26.775 996.155 26.5 995.925 26.31C995.705 26.12 995.385 26.025 994.965 26.025H993.285V28.23ZM995.175 32.43C995.605 32.43 995.935 32.335 996.165 32.145C996.405 31.945 996.525 31.66 996.525 31.29C996.525 30.92 996.4 30.63 996.15 30.42C995.91 30.21 995.575 30.105 995.145 30.105H993.285V32.43H995.175ZM1008.5 30.18C1008.5 30.42 1008.48 30.67 1008.45 30.93H1002.65C1002.69 31.45 1002.85 31.85 1003.14 32.13C1003.44 32.4 1003.81 32.535 1004.24 32.535C1004.88 32.535 1005.32 32.265 1005.57 31.725H1008.3C1008.16 32.275 1007.91 32.77 1007.54 33.21C1007.18 33.65 1006.72 33.995 1006.17 34.245C1005.62 34.495 1005.01 34.62 1004.33 34.62C1003.51 34.62 1002.78 34.445 1002.14 34.095C1001.5 33.745 1001 33.245 1000.64 32.595C1000.28 31.945 1000.1 31.185 1000.1 30.315C1000.1 29.445 1000.27 28.685 1000.62 28.035C1000.98 27.385 1001.48 26.885 1002.12 26.535C1002.76 26.185 1003.5 26.01 1004.33 26.01C1005.14 26.01 1005.86 26.18 1006.49 26.52C1007.12 26.86 1007.61 27.345 1007.96 27.975C1008.32 28.605 1008.5 29.34 1008.5 30.18ZM1005.87 29.505C1005.87 29.065 1005.72 28.715 1005.42 28.455C1005.12 28.195 1004.75 28.065 1004.3 28.065C1003.87 28.065 1003.5 28.19 1003.2 28.44C1002.91 28.69 1002.73 29.045 1002.66 29.505H1005.87ZM1014.52 32.325V34.5H1013.21C1012.28 34.5 1011.56 34.275 1011.04 33.825C1010.52 33.365 1010.26 32.62 1010.26 31.59V28.26H1009.24V26.13H1010.26V24.09H1012.82V26.13H1014.5V28.26H1012.82V31.62C1012.82 31.87 1012.88 32.05 1013 32.16C1013.12 32.27 1013.32 32.325 1013.6 32.325H1014.52ZM1020.32 34.62C1019.87 34.62 1019.5 34.49 1019.21 34.23C1018.93 33.96 1018.79 33.63 1018.79 33.24C1018.79 32.84 1018.93 32.505 1019.21 32.235C1019.5 31.965 1019.87 31.83 1020.32 31.83C1020.76 31.83 1021.12 31.965 1021.4 32.235C1021.69 32.505 1021.84 32.84 1021.84 33.24C1021.84 33.63 1021.69 33.96 1021.4 34.23C1021.12 34.49 1020.76 34.62 1020.32 34.62ZM1020.32 28.515C1019.87 28.515 1019.5 28.385 1019.21 28.125C1018.93 27.855 1018.79 27.525 1018.79 27.135C1018.79 26.735 1018.93 26.4 1019.21 26.13C1019.5 25.86 1019.87 25.725 1020.32 25.725C1020.76 25.725 1021.12 25.86 1021.4 26.13C1021.69 26.4 1021.84 26.735 1021.84 27.135C1021.84 27.525 1021.69 27.855 1021.4 28.125C1021.12 28.385 1020.76 28.515 1020.32 28.515Z" fill="white"/>
<g filter="url(#filter2_d_931_4792)">
<rect x="2.5" y="3.5" width="415" height="61" rx="6" fill="black"/>
<rect x="2.5" y="3.5" width="415" height="61" rx="6" stroke="url(#paint2_linear_931_4792)"/>
</g>
<path d="M28.6955 34.475C29.6788 34.6583 30.5122 35.1583 31.1955 35.975C31.8788 36.7917 32.2205 37.7417 32.2205 38.825C32.2205 39.7083 31.9955 40.5083 31.5455 41.225C31.1122 41.925 30.4705 42.4833 29.6205 42.9C28.7705 43.3 27.7538 43.5 26.5705 43.5H20.5205V26.025H26.3955C28.1622 26.025 29.5038 26.4333 30.4205 27.25C31.3538 28.0667 31.8205 29.125 31.8205 30.425C31.8205 31.5083 31.5288 32.3917 30.9455 33.075C30.3622 33.7417 29.6122 34.2083 28.6955 34.475ZM22.2705 33.75H26.3455C27.5288 33.75 28.4372 33.475 29.0705 32.925C29.7205 32.3583 30.0455 31.5833 30.0455 30.6C30.0455 29.6333 29.7205 28.875 29.0705 28.325C28.4372 27.775 27.5038 27.5 26.2705 27.5H22.2705V33.75ZM26.4455 42.025C27.7122 42.025 28.6955 41.725 29.3955 41.125C30.1122 40.525 30.4705 39.7 30.4705 38.65C30.4705 37.6 30.0955 36.7667 29.3455 36.15C28.6122 35.5167 27.6205 35.2 26.3705 35.2H22.2705V42.025H26.4455ZM47.7875 35.975C47.7875 36.575 47.7708 37.0333 47.7375 37.35H36.4125C36.4625 38.3833 36.7125 39.2667 37.1625 40C37.6125 40.7333 38.2042 41.2917 38.9375 41.675C39.6708 42.0417 40.4708 42.225 41.3375 42.225C42.4708 42.225 43.4208 41.95 44.1875 41.4C44.9708 40.85 45.4875 40.1083 45.7375 39.175H47.5875C47.2542 40.5083 46.5375 41.6 45.4375 42.45C44.3542 43.2833 42.9875 43.7 41.3375 43.7C40.0542 43.7 38.9042 43.4167 37.8875 42.85C36.8708 42.2667 36.0708 41.45 35.4875 40.4C34.9208 39.3333 34.6375 38.0917 34.6375 36.675C34.6375 35.2583 34.9208 34.0167 35.4875 32.95C36.0542 31.8833 36.8458 31.0667 37.8625 30.5C38.8792 29.9333 40.0375 29.65 41.3375 29.65C42.6375 29.65 43.7708 29.9333 44.7375 30.5C45.7208 31.0667 46.4708 31.8333 46.9875 32.8C47.5208 33.75 47.7875 34.8083 47.7875 35.975ZM46.0125 35.925C46.0292 34.9083 45.8208 34.0417 45.3875 33.325C44.9708 32.6083 44.3958 32.0667 43.6625 31.7C42.9292 31.3333 42.1292 31.15 41.2625 31.15C39.9625 31.15 38.8542 31.5667 37.9375 32.4C37.0208 33.2333 36.5125 34.4083 36.4125 35.925H46.0125ZM53.2643 31.325V39.8C53.2643 40.6333 53.4226 41.2083 53.7393 41.525C54.0559 41.8417 54.6143 42 55.4143 42H57.0143V43.5H55.1393C53.9059 43.5 52.9893 43.2167 52.3893 42.65C51.7893 42.0667 51.4893 41.1167 51.4893 39.8V31.325H49.5893V29.85H51.4893V26.425H53.2643V29.85H57.0143V31.325H53.2643ZM76.0607 43.5L71.7357 36.2H68.5107V43.5H66.7607V26.025H72.0107C73.9607 26.025 75.4357 26.4917 76.4357 27.425C77.4524 28.3583 77.9607 29.5833 77.9607 31.1C77.9607 32.3667 77.5941 33.45 76.8607 34.35C76.1441 35.2333 75.0774 35.8083 73.6607 36.075L78.1607 43.5H76.0607ZM68.5107 34.775H72.0357C73.4024 34.775 74.4274 34.4417 75.1107 33.775C75.8107 33.1083 76.1607 32.2167 76.1607 31.1C76.1607 29.95 75.8274 29.0667 75.1607 28.45C74.4941 27.8167 73.4441 27.5 72.0107 27.5H68.5107V34.775ZM80.6336 36.65C80.6336 35.25 80.9086 34.025 81.4586 32.975C82.0253 31.9083 82.8003 31.0917 83.7836 30.525C84.7836 29.9417 85.9086 29.65 87.1586 29.65C88.4586 29.65 89.5753 29.95 90.5086 30.55C91.4586 31.15 92.1419 31.9167 92.5586 32.85V29.85H94.3086V43.5H92.5586V40.475C92.1253 41.4083 91.4336 42.1833 90.4836 42.8C89.5503 43.4 88.4336 43.7 87.1336 43.7C85.9003 43.7 84.7836 43.4083 83.7836 42.825C82.8003 42.2417 82.0253 41.4167 81.4586 40.35C80.9086 39.2833 80.6336 38.05 80.6336 36.65ZM92.5586 36.675C92.5586 35.575 92.3336 34.6083 91.8836 33.775C91.4336 32.9417 90.8169 32.3 90.0336 31.85C89.2669 31.4 88.4169 31.175 87.4836 31.175C86.5169 31.175 85.6503 31.3917 84.8836 31.825C84.1169 32.2583 83.5086 32.8917 83.0586 33.725C82.6253 34.5417 82.4086 35.5167 82.4086 36.65C82.4086 37.7667 82.6253 38.75 83.0586 39.6C83.5086 40.4333 84.1169 41.075 84.8836 41.525C85.6503 41.9583 86.5169 42.175 87.4836 42.175C88.4169 42.175 89.2669 41.95 90.0336 41.5C90.8169 41.05 91.4336 40.4083 91.8836 39.575C92.3336 38.7417 92.5586 37.775 92.5586 36.675ZM104.704 29.6C106.337 29.6 107.67 30.1083 108.704 31.125C109.737 32.125 110.254 33.5833 110.254 35.5V43.5H108.529V35.7C108.529 34.2167 108.154 33.0833 107.404 32.3C106.67 31.5167 105.662 31.125 104.379 31.125C103.062 31.125 102.012 31.5417 101.229 32.375C100.445 33.2083 100.054 34.4333 100.054 36.05V43.5H98.3037V29.85H100.054V32.175C100.487 31.3417 101.112 30.7083 101.929 30.275C102.745 29.825 103.67 29.6 104.704 29.6ZM119.849 29.65C121.132 29.65 122.249 29.95 123.199 30.55C124.149 31.15 124.832 31.9083 125.249 32.825V29.85H126.999V43.85C126.999 45.1 126.724 46.2083 126.174 47.175C125.641 48.1417 124.891 48.8833 123.924 49.4C122.957 49.9333 121.857 50.2 120.624 50.2C118.874 50.2 117.416 49.7833 116.249 48.95C115.099 48.1167 114.382 46.9833 114.099 45.55H115.824C116.124 46.5 116.691 47.2583 117.524 47.825C118.374 48.3917 119.407 48.675 120.624 48.675C121.507 48.675 122.299 48.4833 122.999 48.1C123.699 47.7333 124.249 47.1833 124.649 46.45C125.049 45.7167 125.249 44.85 125.249 43.85V40.475C124.816 41.4083 124.124 42.1833 123.174 42.8C122.241 43.4 121.132 43.7 119.849 43.7C118.599 43.7 117.474 43.4083 116.474 42.825C115.491 42.2417 114.716 41.4167 114.149 40.35C113.599 39.2833 113.324 38.05 113.324 36.65C113.324 35.25 113.599 34.025 114.149 32.975C114.716 31.9083 115.491 31.0917 116.474 30.525C117.474 29.9417 118.599 29.65 119.849 29.65ZM125.249 36.675C125.249 35.575 125.024 34.6083 124.574 33.775C124.124 32.9417 123.507 32.3 122.724 31.85C121.957 31.4 121.107 31.175 120.174 31.175C119.207 31.175 118.341 31.3917 117.574 31.825C116.807 32.2583 116.199 32.8917 115.749 33.725C115.316 34.5417 115.099 35.5167 115.099 36.65C115.099 37.7667 115.316 38.75 115.749 39.6C116.199 40.4333 116.807 41.075 117.574 41.525C118.341 41.9583 119.207 42.175 120.174 42.175C121.107 42.175 121.957 41.95 122.724 41.5C123.507 41.05 124.124 40.4083 124.574 39.575C125.024 38.7417 125.249 37.775 125.249 36.675ZM143.344 35.975C143.344 36.575 143.327 37.0333 143.294 37.35H131.969C132.019 38.3833 132.269 39.2667 132.719 40C133.169 40.7333 133.761 41.2917 134.494 41.675C135.227 42.0417 136.027 42.225 136.894 42.225C138.027 42.225 138.977 41.95 139.744 41.4C140.527 40.85 141.044 40.1083 141.294 39.175H143.144C142.811 40.5083 142.094 41.6 140.994 42.45C139.911 43.2833 138.544 43.7 136.894 43.7C135.611 43.7 134.461 43.4167 133.444 42.85C132.427 42.2667 131.627 41.45 131.044 40.4C130.477 39.3333 130.194 38.0917 130.194 36.675C130.194 35.2583 130.477 34.0167 131.044 32.95C131.611 31.8833 132.402 31.0667 133.419 30.5C134.436 29.9333 135.594 29.65 136.894 29.65C138.194 29.65 139.327 29.9333 140.294 30.5C141.277 31.0667 142.027 31.8333 142.544 32.8C143.077 33.75 143.344 34.8083 143.344 35.975ZM141.569 35.925C141.586 34.9083 141.377 34.0417 140.944 33.325C140.527 32.6083 139.952 32.0667 139.219 31.7C138.486 31.3333 137.686 31.15 136.819 31.15C135.519 31.15 134.411 31.5667 133.494 32.4C132.577 33.2333 132.069 34.4083 131.969 35.925H141.569ZM153.706 43.625C153.34 43.625 153.031 43.5 152.781 43.25C152.548 43 152.431 42.6917 152.431 42.325C152.431 41.9583 152.548 41.6583 152.781 41.425C153.031 41.175 153.34 41.05 153.706 41.05C154.056 41.05 154.348 41.175 154.581 41.425C154.831 41.6583 154.956 41.9583 154.956 42.325C154.956 42.6917 154.831 43 154.581 43.25C154.348 43.5 154.056 43.625 153.706 43.625ZM153.706 32.75C153.34 32.75 153.031 32.625 152.781 32.375C152.548 32.125 152.431 31.8167 152.431 31.45C152.431 31.0833 152.548 30.7833 152.781 30.55C153.031 30.3 153.34 30.175 153.706 30.175C154.056 30.175 154.348 30.3 154.581 30.55C154.831 30.7833 154.956 31.0833 154.956 31.45C154.956 31.8167 154.831 32.125 154.581 32.375C154.348 32.625 154.056 32.75 153.706 32.75ZM176.481 38.55C176.481 39.3833 176.273 40.1667 175.856 40.9C175.456 41.6333 174.856 42.25 174.056 42.75C173.273 43.25 172.339 43.55 171.256 43.65V45.675H169.631V43.65C168.064 43.5 166.798 43.0083 165.831 42.175C164.864 41.3417 164.381 40.2417 164.381 38.875H167.431C167.481 39.525 167.689 40.0667 168.056 40.5C168.423 40.9167 168.948 41.1833 169.631 41.3V35.8C168.514 35.5167 167.606 35.2333 166.906 34.95C166.206 34.65 165.606 34.1833 165.106 33.55C164.623 32.9167 164.381 32.05 164.381 30.95C164.381 29.5667 164.864 28.425 165.831 27.525C166.798 26.6083 168.064 26.075 169.631 25.925V23.9H171.256V25.925C172.723 26.0583 173.898 26.525 174.781 27.325C175.681 28.1083 176.189 29.1917 176.306 30.575H173.256C173.206 30.0583 173.006 29.6 172.656 29.2C172.306 28.7833 171.839 28.5 171.256 28.35V33.75C172.373 34.0167 173.281 34.3 173.981 34.6C174.681 34.8833 175.273 35.3417 175.756 35.975C176.239 36.5917 176.481 37.45 176.481 38.55ZM167.281 30.8C167.281 31.4833 167.481 32.0167 167.881 32.4C168.298 32.7833 168.881 33.0917 169.631 33.325V28.275C168.914 28.3583 168.339 28.6167 167.906 29.05C167.489 29.4833 167.281 30.0667 167.281 30.8ZM171.256 41.3C171.989 41.1833 172.564 40.8917 172.981 40.425C173.398 39.9417 173.606 39.3667 173.606 38.7C173.606 38.0333 173.398 37.5167 172.981 37.15C172.581 36.7667 172.006 36.4583 171.256 36.225V41.3ZM180.266 27.875V25.275H185.466V43.5H182.591V27.875H180.266ZM192.881 40.075L189.856 46.975H188.006L189.781 40.075H192.881ZM194.996 34.15C194.996 31.2667 195.479 29.0167 196.446 27.4C197.429 25.7667 199.113 24.95 201.496 24.95C203.879 24.95 205.554 25.7667 206.521 27.4C207.504 29.0167 207.996 31.2667 207.996 34.15C207.996 37.0667 207.504 39.35 206.521 41C205.554 42.6333 203.879 43.45 201.496 43.45C199.113 43.45 197.429 42.6333 196.446 41C195.479 39.35 194.996 37.0667 194.996 34.15ZM205.196 34.15C205.196 32.8 205.104 31.6583 204.921 30.725C204.754 29.7917 204.404 29.0333 203.871 28.45C203.338 27.85 202.546 27.55 201.496 27.55C200.446 27.55 199.654 27.85 199.121 28.45C198.588 29.0333 198.229 29.7917 198.046 30.725C197.879 31.6583 197.796 32.8 197.796 34.15C197.796 35.55 197.879 36.725 198.046 37.675C198.213 38.625 198.563 39.3917 199.096 39.975C199.646 40.5583 200.446 40.85 201.496 40.85C202.546 40.85 203.338 40.5583 203.871 39.975C204.421 39.3917 204.779 38.625 204.946 37.675C205.113 36.725 205.196 35.55 205.196 34.15ZM211.012 34.15C211.012 31.2667 211.495 29.0167 212.462 27.4C213.445 25.7667 215.128 24.95 217.512 24.95C219.895 24.95 221.57 25.7667 222.537 27.4C223.52 29.0167 224.012 31.2667 224.012 34.15C224.012 37.0667 223.52 39.35 222.537 41C221.57 42.6333 219.895 43.45 217.512 43.45C215.128 43.45 213.445 42.6333 212.462 41C211.495 39.35 211.012 37.0667 211.012 34.15ZM221.212 34.15C221.212 32.8 221.12 31.6583 220.937 30.725C220.77 29.7917 220.42 29.0333 219.887 28.45C219.353 27.85 218.562 27.55 217.512 27.55C216.462 27.55 215.67 27.85 215.137 28.45C214.603 29.0333 214.245 29.7917 214.062 30.725C213.895 31.6583 213.812 32.8 213.812 34.15C213.812 35.55 213.895 36.725 214.062 37.675C214.228 38.625 214.578 39.3917 215.112 39.975C215.662 40.5583 216.462 40.85 217.512 40.85C218.562 40.85 219.353 40.5583 219.887 39.975C220.437 39.3917 220.795 38.625 220.962 37.675C221.128 36.725 221.212 35.55 221.212 34.15ZM227.027 34.15C227.027 31.2667 227.511 29.0167 228.477 27.4C229.461 25.7667 231.144 24.95 233.527 24.95C235.911 24.95 237.586 25.7667 238.552 27.4C239.536 29.0167 240.027 31.2667 240.027 34.15C240.027 37.0667 239.536 39.35 238.552 41C237.586 42.6333 235.911 43.45 233.527 43.45C231.144 43.45 229.461 42.6333 228.477 41C227.511 39.35 227.027 37.0667 227.027 34.15ZM237.227 34.15C237.227 32.8 237.136 31.6583 236.952 30.725C236.786 29.7917 236.436 29.0333 235.902 28.45C235.369 27.85 234.577 27.55 233.527 27.55C232.477 27.55 231.686 27.85 231.152 28.45C230.619 29.0333 230.261 29.7917 230.077 30.725C229.911 31.6583 229.827 32.8 229.827 34.15C229.827 35.55 229.911 36.725 230.077 37.675C230.244 38.625 230.594 39.3917 231.127 39.975C231.677 40.5583 232.477 40.85 233.527 40.85C234.577 40.85 235.369 40.5583 235.902 39.975C236.452 39.3917 236.811 38.625 236.977 37.675C237.144 36.725 237.227 35.55 237.227 34.15ZM260.487 33.25V35.65H250.212V33.25H260.487ZM282.755 38.55C282.755 39.3833 282.547 40.1667 282.13 40.9C281.73 41.6333 281.13 42.25 280.33 42.75C279.547 43.25 278.614 43.55 277.53 43.65V45.675H275.905V43.65C274.339 43.5 273.072 43.0083 272.105 42.175C271.139 41.3417 270.655 40.2417 270.655 38.875H273.705C273.755 39.525 273.964 40.0667 274.33 40.5C274.697 40.9167 275.222 41.1833 275.905 41.3V35.8C274.789 35.5167 273.88 35.2333 273.18 34.95C272.48 34.65 271.88 34.1833 271.38 33.55C270.897 32.9167 270.655 32.05 270.655 30.95C270.655 29.5667 271.139 28.425 272.105 27.525C273.072 26.6083 274.339 26.075 275.905 25.925V23.9H277.53V25.925C278.997 26.0583 280.172 26.525 281.055 27.325C281.955 28.1083 282.464 29.1917 282.58 30.575H279.53C279.48 30.0583 279.28 29.6 278.93 29.2C278.58 28.7833 278.114 28.5 277.53 28.35V33.75C278.647 34.0167 279.555 34.3 280.255 34.6C280.955 34.8833 281.547 35.3417 282.03 35.975C282.514 36.5917 282.755 37.45 282.755 38.55ZM273.555 30.8C273.555 31.4833 273.755 32.0167 274.155 32.4C274.572 32.7833 275.155 33.0917 275.905 33.325V28.275C275.189 28.3583 274.614 28.6167 274.18 29.05C273.764 29.4833 273.555 30.0667 273.555 30.8ZM277.53 41.3C278.264 41.1833 278.839 40.8917 279.255 40.425C279.672 39.9417 279.88 39.3667 279.88 38.7C279.88 38.0333 279.672 37.5167 279.255 37.15C278.855 36.7667 278.28 36.4583 277.53 36.225V41.3ZM286.54 27.875V25.275H291.74V43.5H288.865V27.875H286.54ZM299.155 40.075L296.13 46.975H294.28L296.055 40.075H299.155ZM301.271 34.15C301.271 31.2667 301.754 29.0167 302.721 27.4C303.704 25.7667 305.387 24.95 307.771 24.95C310.154 24.95 311.829 25.7667 312.796 27.4C313.779 29.0167 314.271 31.2667 314.271 34.15C314.271 37.0667 313.779 39.35 312.796 41C311.829 42.6333 310.154 43.45 307.771 43.45C305.387 43.45 303.704 42.6333 302.721 41C301.754 39.35 301.271 37.0667 301.271 34.15ZM311.471 34.15C311.471 32.8 311.379 31.6583 311.196 30.725C311.029 29.7917 310.679 29.0333 310.146 28.45C309.612 27.85 308.821 27.55 307.771 27.55C306.721 27.55 305.929 27.85 305.396 28.45C304.862 29.0333 304.504 29.7917 304.321 30.725C304.154 31.6583 304.071 32.8 304.071 34.15C304.071 35.55 304.154 36.725 304.321 37.675C304.487 38.625 304.837 39.3917 305.371 39.975C305.921 40.5583 306.721 40.85 307.771 40.85C308.821 40.85 309.612 40.5583 310.146 39.975C310.696 39.3917 311.054 38.625 311.221 37.675C311.387 36.725 311.471 35.55 311.471 34.15ZM317.286 34.15C317.286 31.2667 317.769 29.0167 318.736 27.4C319.719 25.7667 321.403 24.95 323.786 24.95C326.169 24.95 327.844 25.7667 328.811 27.4C329.794 29.0167 330.286 31.2667 330.286 34.15C330.286 37.0667 329.794 39.35 328.811 41C327.844 42.6333 326.169 43.45 323.786 43.45C321.403 43.45 319.719 42.6333 318.736 41C317.769 39.35 317.286 37.0667 317.286 34.15ZM327.486 34.15C327.486 32.8 327.394 31.6583 327.211 30.725C327.044 29.7917 326.694 29.0333 326.161 28.45C325.628 27.85 324.836 27.55 323.786 27.55C322.736 27.55 321.944 27.85 321.411 28.45C320.878 29.0333 320.519 29.7917 320.336 30.725C320.169 31.6583 320.086 32.8 320.086 34.15C320.086 35.55 320.169 36.725 320.336 37.675C320.503 38.625 320.853 39.3917 321.386 39.975C321.936 40.5583 322.736 40.85 323.786 40.85C324.836 40.85 325.628 40.5583 326.161 39.975C326.711 39.3917 327.069 38.625 327.236 37.675C327.403 36.725 327.486 35.55 327.486 34.15ZM333.302 34.15C333.302 31.2667 333.785 29.0167 334.752 27.4C335.735 25.7667 337.418 24.95 339.802 24.95C342.185 24.95 343.86 25.7667 344.827 27.4C345.81 29.0167 346.302 31.2667 346.302 34.15C346.302 37.0667 345.81 39.35 344.827 41C343.86 42.6333 342.185 43.45 339.802 43.45C337.418 43.45 335.735 42.6333 334.752 41C333.785 39.35 333.302 37.0667 333.302 34.15ZM343.502 34.15C343.502 32.8 343.41 31.6583 343.227 30.725C343.06 29.7917 342.71 29.0333 342.177 28.45C341.643 27.85 340.852 27.55 339.802 27.55C338.752 27.55 337.96 27.85 337.427 28.45C336.893 29.0333 336.535 29.7917 336.352 30.725C336.185 31.6583 336.102 32.8 336.102 34.15C336.102 35.55 336.185 36.725 336.352 37.675C336.518 38.625 336.868 39.3917 337.402 39.975C337.952 40.5583 338.752 40.85 339.802 40.85C340.852 40.85 341.643 40.5583 342.177 39.975C342.727 39.3917 343.085 38.625 343.252 37.675C343.418 36.725 343.502 35.55 343.502 34.15ZM352.817 40.075L349.792 46.975H347.942L349.717 40.075H352.817ZM354.933 34.15C354.933 31.2667 355.416 29.0167 356.383 27.4C357.366 25.7667 359.049 24.95 361.433 24.95C363.816 24.95 365.491 25.7667 366.458 27.4C367.441 29.0167 367.933 31.2667 367.933 34.15C367.933 37.0667 367.441 39.35 366.458 41C365.491 42.6333 363.816 43.45 361.433 43.45C359.049 43.45 357.366 42.6333 356.383 41C355.416 39.35 354.933 37.0667 354.933 34.15ZM365.133 34.15C365.133 32.8 365.041 31.6583 364.858 30.725C364.691 29.7917 364.341 29.0333 363.808 28.45C363.274 27.85 362.483 27.55 361.433 27.55C360.383 27.55 359.591 27.85 359.058 28.45C358.524 29.0333 358.166 29.7917 357.983 30.725C357.816 31.6583 357.733 32.8 357.733 34.15C357.733 35.55 357.816 36.725 357.983 37.675C358.149 38.625 358.499 39.3917 359.033 39.975C359.583 40.5583 360.383 40.85 361.433 40.85C362.483 40.85 363.274 40.5583 363.808 39.975C364.358 39.3917 364.716 38.625 364.883 37.675C365.049 36.725 365.133 35.55 365.133 34.15ZM370.948 34.15C370.948 31.2667 371.432 29.0167 372.398 27.4C373.382 25.7667 375.065 24.95 377.448 24.95C379.832 24.95 381.507 25.7667 382.473 27.4C383.457 29.0167 383.948 31.2667 383.948 34.15C383.948 37.0667 383.457 39.35 382.473 41C381.507 42.6333 379.832 43.45 377.448 43.45C375.065 43.45 373.382 42.6333 372.398 41C371.432 39.35 370.948 37.0667 370.948 34.15ZM381.148 34.15C381.148 32.8 381.057 31.6583 380.873 30.725C380.707 29.7917 380.357 29.0333 379.823 28.45C379.29 27.85 378.498 27.55 377.448 27.55C376.398 27.55 375.607 27.85 375.073 28.45C374.54 29.0333 374.182 29.7917 373.998 30.725C373.832 31.6583 373.748 32.8 373.748 34.15C373.748 35.55 373.832 36.725 373.998 37.675C374.165 38.625 374.515 39.3917 375.048 39.975C375.598 40.5583 376.398 40.85 377.448 40.85C378.498 40.85 379.29 40.5583 379.823 39.975C380.373 39.3917 380.732 38.625 380.898 37.675C381.065 36.725 381.148 35.55 381.148 34.15ZM386.964 34.15C386.964 31.2667 387.447 29.0167 388.414 27.4C389.397 25.7667 391.081 24.95 393.464 24.95C395.847 24.95 397.522 25.7667 398.489 27.4C399.472 29.0167 399.964 31.2667 399.964 34.15C399.964 37.0667 399.472 39.35 398.489 41C397.522 42.6333 395.847 43.45 393.464 43.45C391.081 43.45 389.397 42.6333 388.414 41C387.447 39.35 386.964 37.0667 386.964 34.15ZM397.164 34.15C397.164 32.8 397.072 31.6583 396.889 30.725C396.722 29.7917 396.372 29.0333 395.839 28.45C395.306 27.85 394.514 27.55 393.464 27.55C392.414 27.55 391.622 27.85 391.089 28.45C390.556 29.0333 390.197 29.7917 390.014 30.725C389.847 31.6583 389.764 32.8 389.764 34.15C389.764 35.55 389.847 36.725 390.014 37.675C390.181 38.625 390.531 39.3917 391.064 39.975C391.614 40.5583 392.414 40.85 393.464 40.85C394.514 40.85 395.306 40.5583 395.839 39.975C396.389 39.3917 396.747 38.625 396.914 37.675C397.081 36.725 397.164 35.55 397.164 34.15Z" fill="white"/>
<defs>
<filter id="filter0_d_931_4792" x="671" y="0" width="245" height="66" filterUnits="userSpaceOnUse" color-interpolation-filters="sRGB">
<feFlood flood-opacity="0" result="BackgroundImageFix"/>
<feColorMatrix in="SourceAlpha" type="matrix" values="0 0 0 0 0 0 0 0 0 0 0 0 0 0 0 0 0 0 127 0" result="hardAlpha"/>
<feOffset/>
<feGaussianBlur stdDeviation="1"/>
<feComposite in2="hardAlpha" operator="out"/>
<feColorMatrix type="matrix" values="0 0 0 0 0 0 0 0 0 0 0 0 0 0 0 0 0 0 1 0"/>
<feBlend mode="normal" in2="BackgroundImageFix" result="effect1_dropShadow_931_4792"/>
<feBlend mode="normal" in="SourceGraphic" in2="effect1_dropShadow_931_4792" result="shape"/>
</filter>
<filter id="filter1_d_931_4792" x="930" y="0" width="245" height="66" filterUnits="userSpaceOnUse" color-interpolation-filters="sRGB">
<feFlood flood-opacity="0" result="BackgroundImageFix"/>
<feColorMatrix in="SourceAlpha" type="matrix" values="0 0 0 0 0 0 0 0 0 0 0 0 0 0 0 0 0 0 127 0" result="hardAlpha"/>
<feOffset/>
<feGaussianBlur stdDeviation="1"/>
<feComposite in2="hardAlpha" operator="out"/>
<feColorMatrix type="matrix" values="0 0 0 0 0 0 0 0 0 0 0 0 0 0 0 0 0 0 1 0"/>
<feBlend mode="normal" in2="BackgroundImageFix" result="effect1_dropShadow_931_4792"/>
<feBlend mode="normal" in="SourceGraphic" in2="effect1_dropShadow_931_4792" result="shape"/>
</filter>
<filter id="filter2_d_931_4792" x="0" y="1" width="420" height="66" filterUnits="userSpaceOnUse" color-interpolation-filters="sRGB">
<feFlood flood-opacity="0" result="BackgroundImageFix"/>
<feColorMatrix in="SourceAlpha" type="matrix" values="0 0 0 0 0 0 0 0 0 0 0 0 0 0 0 0 0 0 127 0" result="hardAlpha"/>
<feOffset/>
<feGaussianBlur stdDeviation="1"/>
<feComposite in2="hardAlpha" operator="out"/>
<feColorMatrix type="matrix" values="0 0 0 0 0 0 0 0 0 0 0 0 0 0 0 0 0 0 1 0"/>
<feBlend mode="normal" in2="BackgroundImageFix" result="effect1_dropShadow_931_4792"/>
<feBlend mode="normal" in="SourceGraphic" in2="effect1_dropShadow_931_4792" result="shape"/>
</filter>
<linearGradient id="paint0_linear_931_4792" x1="793.447" y1="63.5045" x2="793.447" y2="2.50452" gradientUnits="userSpaceOnUse">
<stop stop-color="#B58947"/>
<stop offset="0.12" stop-color="#70460C"/>
<stop offset="0.25" stop-color="#FFEAA5"/>
<stop offset="0.62" stop-color="#CEA253"/>
<stop offset="0.83" stop-color="#82561D"/>
<stop offset="0.92" stop-color="#946627"/>
<stop offset="1" stop-color="#A3732F"/>
</linearGradient>
<linearGradient id="paint1_linear_931_4792" x1="1052.45" y1="63.5045" x2="1052.45" y2="2.50452" gradientUnits="userSpaceOnUse">
<stop stop-color="#B58947"/>
<stop offset="0.12" stop-color="#70460C"/>
<stop offset="0.25" stop-color="#FFEAA5"/>
<stop offset="0.62" stop-color="#CEA253"/>
<stop offset="0.83" stop-color="#82561D"/>
<stop offset="0.92" stop-color="#946627"/>
<stop offset="1" stop-color="#A3732F"/>
</linearGradient>
<linearGradient id="paint2_linear_931_4792" x1="209.908" y1="64.5045" x2="209.908" y2="3.50452" gradientUnits="userSpaceOnUse">
<stop stop-color="#B58947"/>
<stop offset="0.12" stop-color="#70460C"/>
<stop offset="0.25" stop-color="#FFEAA5"/>
<stop offset="0.62" stop-color="#CEA253"/>
<stop offset="0.83" stop-color="#82561D"/>
<stop offset="0.92" stop-color="#946627"/>
<stop offset="1" stop-color="#A3732F"/>
</linearGradient>
</defs>
</svg>
